<!-- Generated by IcoMoon.io -->
<svg version="1.1" xmlns="http://www.w3.org/2000/svg" width="29" height="32" viewBox="0 0 29 32">
<title>bell</title>
<path d="M23.2 13.188v7.758l2.869 2.782c0.212 0.205 0.331 0.488 0.331 0.783 0 0.602-0.488 1.090-1.090 1.090h-23.42c-0.602 0-1.090-0.488-1.090-1.090 0-0.295 0.119-0.577 0.331-0.783l2.869-2.782v-7.758c0-4.779 2.624-8.751 7.2-9.806v-1.055c0-1.288 1.072-2.327 2.4-2.327s2.4 1.040 2.4 2.327v1.055c4.592 1.055 7.2 5.042 7.2 9.806zM7.2 22.497h12.8v-9.309c0-3.848-2.416-6.982-6.4-6.982s-6.4 3.134-6.4 6.982v9.309zM13.6 32c1.76 0 3.2-1.44 3.2-3.2h-6.4c0 1.76 1.44 3.2 3.2 3.2z"></path>
</svg>
