<!-- Generated by IcoMoon.io -->
<svg version="1.1" xmlns="http://www.w3.org/2000/svg" width="32" height="32" viewBox="0 0 32 32">
<title>calendar</title>
<path d="M25.333 5.333h-1.333v-2.667h-2.667v2.667h-10.667v-2.667h-2.667v2.667h-1.333c-1.48 0-2.653 1.2-2.653 2.667l-0.013 18.667c0 1.467 1.187 2.667 2.667 2.667h18.667c1.467 0 2.667-1.2 2.667-2.667v-18.667c0-1.467-1.2-2.667-2.667-2.667zM25.333 26.667h-18.667v-13.333h18.667v13.333zM25.333 10.667h-18.667v-2.667h18.667v2.667zM12 18.667h-2.667v-2.667h2.667v2.667zM17.333 18.667h-2.667v-2.667h2.667v2.667zM22.667 18.667h-2.667v-2.667h2.667v2.667zM12 24h-2.667v-2.667h2.667v2.667zM17.333 24h-2.667v-2.667h2.667v2.667zM22.667 24h-2.667v-2.667h2.667v2.667z"></path>
</svg>
