<!-- Generated by IcoMoon.io -->
<svg version="1.1" xmlns="http://www.w3.org/2000/svg" width="34" height="32" viewBox="0 0 34 32">
<title>cancel</title>
<path d="M32.521 0.734c-0.946-0.947-2.476-0.947-3.422 0l-11.868 11.844-11.868-11.868c-0.947-0.947-2.476-0.947-3.422 0s-0.947 2.476 0 3.422l11.868 11.868-11.868 11.868c-0.947 0.946-0.947 2.476 0 3.422s2.476 0.946 3.422 0l11.868-11.868 11.868 11.868c0.946 0.946 2.476 0.946 3.422 0s0.946-2.476 0-3.422l-11.868-11.868 11.868-11.868c0.922-0.922 0.922-2.476 0-3.398z"></path>
</svg>
