<!-- Generated by IcoMoon.io -->
<svg version="1.1" xmlns="http://www.w3.org/2000/svg" width="32" height="32" viewBox="0 0 32 32">
<title>close</title>
<path d="M24.949 8.398c-0.513-0.513-1.341-0.513-1.854 0l-6.429 6.415-6.429-6.429c-0.513-0.513-1.341-0.513-1.854 0s-0.513 1.341 0 1.854l6.429 6.429-6.429 6.429c-0.513 0.513-0.513 1.341 0 1.854s1.341 0.513 1.854 0l6.429-6.429 6.429 6.429c0.513 0.513 1.341 0.513 1.854 0s0.513-1.341 0-1.854l-6.429-6.429 6.429-6.429c0.5-0.5 0.5-1.341 0-1.84z"></path>
</svg>
