<!-- Generated by IcoMoon.io -->
<svg version="1.1" xmlns="http://www.w3.org/2000/svg" width="32" height="32" viewBox="0 0 32 32">
<title>download</title>
<path d="M11.608 16.941l3.449 3.449c0.521 0.521 1.365 0.521 1.886 0l3.449-3.449c0.52-0.52 0.52-1.363 0-1.883-0.519-0.519-1.36-0.52-1.88-0.003l-1.179 1.171v-9.56c0-0.736-0.597-1.333-1.333-1.333s-1.333 0.597-1.333 1.333v9.56l-1.179-1.171c-0.52-0.517-1.361-0.516-1.88 0.003-0.52 0.52-0.52 1.363 0 1.883zM6.667 24c-0.736 0-1.333 0.597-1.333 1.333s0.597 1.333 1.333 1.333h18.667c0.736 0 1.333-0.597 1.333-1.333s-0.597-1.333-1.333-1.333h-18.667z"></path>
<path d="M15.057 20.391v0zM11.608 16.941v0zM20.392 15.059v0zM18.512 15.056v0zM17.333 16.227h-1.333v3.205l2.273-2.259-0.94-0.946zM14.667 16.227l-0.94 0.946 2.273 2.259v-3.205h-1.333zM13.488 15.056v0zM16 19.448l-3.449-3.449-1.886 1.886 3.449 3.449 1.886-1.886zM16 19.448v0l-1.886 1.886c1.041 1.041 2.73 1.041 3.771 0l-1.886-1.886zM19.449 15.999l-3.449 3.449 1.886 1.886 3.449-3.449-1.886-1.886zM19.449 16.001c0.001 0.001 0.001 0.001 0.001 0.001s-0.001-0.001-0.001-0.002-0-0.001-0 0-0 0.001 0 0 0.001-0.001 0.001-0.002 0-0.001-0.001 0.001l1.886 1.886c1.041-1.041 1.041-2.728 0-3.769l-1.886 1.886zM19.452 16.001c0.001-0.001 0.001-0.001 0.001-0.001s-0.001 0.001-0.002 0.001-0.001 0 0 0 0.001 0-0-0-0.001-0.001-0.002-0.001-0-0 0.001 0.001l1.886-1.886c-1.038-1.038-2.721-1.041-3.763-0.006l1.88 1.892zM18.273 17.172l1.179-1.171-1.88-1.892-1.179 1.171 1.88 1.891zM16 6.667v9.56h2.667v-9.56h-2.667zM16 6.667v0h2.667c0-1.473-1.194-2.667-2.667-2.667v2.667zM16 6.667v0-2.667c-1.473 0-2.667 1.194-2.667 2.667h2.667zM16 16.227v-9.56h-2.667v9.56h2.667zM12.548 16.001l1.178 1.171 1.88-1.891-1.179-1.171-1.88 1.892zM12.551 16.001c0.001-0.001 0.001-0.001 0.001-0.001s-0.001 0.001-0.002 0.001-0.001 0-0 0 0.001 0-0-0-0.001-0.001-0.002-0.001-0-0 0.001 0.001l1.88-1.892c-1.042-1.035-2.724-1.032-3.763 0.006l1.886 1.886zM12.551 15.999c-0.001-0.001-0.001-0.001-0.001-0.001s0.001 0.001 0.001 0.002 0 0.001 0 0 0-0.001-0 0-0.001 0.001-0.001 0.002-0 0.001 0.001-0.001l-1.886-1.886c-1.041 1.041-1.041 2.728 0 3.769l1.886-1.886zM6.667 25.333v-2.667c-1.473 0-2.667 1.194-2.667 2.667h2.667zM6.667 25.333h-2.667c0 1.473 1.194 2.667 2.667 2.667v-2.667zM25.333 25.333h-18.667v2.667h18.667v-2.667zM25.333 25.333v2.667c1.473 0 2.667-1.194 2.667-2.667h-2.667zM25.333 25.333h2.667c0-1.473-1.194-2.667-2.667-2.667v2.667zM6.667 25.333h18.667v-2.667h-18.667v2.667z"></path>
</svg>
