<!-- Generated by IcoMoon.io -->
<svg version="1.1" xmlns="http://www.w3.org/2000/svg" width="32" height="32" viewBox="0 0 32 32">
<title>edit</title>
<path d="M27.616 8.503l-0.933 0.933-2.786-2.786 0.933-0.933c0.512-0.512 1.34-0.512 1.853 0l0.933 0.933c0.513 0.512 0.513 1.34 0 1.853zM22.964 7.584l2.786 2.786-6.964 6.964h-2.786l0.076-2.628 6.888-7.122zM8 26.667h16c1.473 0 2.667-1.194 2.667-2.667v-7.378c0-0.736-0.597-1.333-1.333-1.333s-1.333 0.597-1.333 1.333v7.378h-16v-16h10.333c0.736 0 1.333-0.597 1.333-1.333s-0.597-1.333-1.333-1.333h-10.333c-1.473 0-2.667 1.194-2.667 2.667v16c0 1.473 1.194 2.667 2.667 2.667z"></path>
</svg>
