<!-- Generated by IcoMoon.io -->
<svg version="1.1" xmlns="http://www.w3.org/2000/svg" width="32" height="32" viewBox="0 0 32 32">
<title>estimate</title>
<path d="M25.333 4h-18.667c-1.467 0-2.667 1.2-2.667 2.667v18.667c0 1.467 1.2 2.667 2.667 2.667h18.667c1.467 0 2.667-1.2 2.667-2.667v-18.667c0-1.467-1.2-2.667-2.667-2.667zM25.333 25.333h-18.667v-18.667h18.667v18.667z"></path>
<path d="M15 10.293h-6.667v2h6.667v-2z"></path>
<path d="M24 21h-6.667v2h6.667v-2z"></path>
<path d="M24 17.667h-6.667v2h6.667v-2z"></path>
<path d="M10.667 24h2v-2.667h2.667v-2h-2.667v-2.667h-2v2.667h-2.667v2h2.667v2.667z"></path>
<path d="M18.786 14.6l1.88-1.88 1.88 1.88 1.413-1.413-1.88-1.893 1.88-1.88-1.413-1.413-1.88 1.88-1.88-1.88-1.413 1.413 1.88 1.88-1.88 1.893 1.413 1.413z"></path>
</svg>
