<svg width="16" height="16" viewBox="0 0 16 16" fill="none" xmlns="http://www.w3.org/2000/svg">
<path d="M14 11V14H2V11H0V14C0 15.1 0.9 16 2 16H14C15.1 16 16 15.1 16 14V11H14ZM3 5L4.41 6.41L7 3.83V12H9V3.83L11.59 6.41L13 5L8 0L3 5Z" fill="#0000C9" fill-opacity="0.788235"/>
<path d="M14 14.5H14.5V14V11.5H15.5V14C15.5 14.8239 14.8239 15.5 14 15.5H2C1.17614 15.5 0.5 14.8239 0.5 14V11.5H1.5V14V14.5H2H14ZM8.5 3.83V11.5H7.5V3.83V2.62619L6.64713 3.47576L4.41068 5.70358L3.70711 5L8 0.707107L12.2929 5L11.5893 5.70358L9.35287 3.47576L8.5 2.62619V3.83Z" stroke="#0000C9" stroke-opacity="0.788235"/>
</svg>
