<!-- Generated by IcoMoon.io -->
<svg version="1.1" xmlns="http://www.w3.org/2000/svg" width="32" height="32" viewBox="0 0 32 32">
<title>file</title>
<path d="M18.667 2.667h-10.667c-1.467 0-2.653 1.2-2.653 2.667l-0.013 21.333c0 1.467 1.187 2.667 2.653 2.667h16.013c1.467 0 2.667-1.2 2.667-2.667v-16l-8-8zM24 26.667h-16v-21.333h9.333v6.667h6.667v14.667zM11.608 19.072c-0.52 0.52-0.52 1.363 0 1.883 0.519 0.519 1.36 0.52 1.88 0.003l1.179-1.171v4.213c0 0.736 0.597 1.333 1.333 1.333s1.333-0.597 1.333-1.333v-4.213l1.174 1.174c0.522 0.522 1.371 0.519 1.891-0.005 0.517-0.52 0.518-1.362 0.001-1.882l-3.442-3.46c-0.52-0.523-1.366-0.524-1.888-0.002l-3.46 3.46z"></path>
</svg>
