<!-- Generated by IcoMoon.io -->
<svg version="1.1" xmlns="http://www.w3.org/2000/svg" width="32" height="32" viewBox="0 0 32 32">
<title>hide</title>
<path d="M22.553 8.318l3.579-3.145c0.191-0.167 0.427-0.249 0.663-0.249 0.557 0 1 0.453 1 1 0 0.276-0.115 0.552-0.339 0.749l-22 19.335c-0.189 0.168-0.425 0.249-0.661 0.249-0.553 0-1-0.445-1-1 0-0.276 0.115-0.552 0.337-0.749l3.251-2.857c-1.885-1.509-3.503-3.403-4.729-5.371-0.128-0.212-0.192-0.451-0.192-0.689s0.065-0.477 0.193-0.689c2.815-4.52 7.7-8.644 13.137-8.644 2.42 0 4.715 0.791 6.761 2.061zM25.644 10.758c1.289 1.257 2.405 2.684 3.3 4.156 0.123 0.208 0.184 0.443 0.184 0.676s-0.061 0.468-0.184 0.676c-2.757 4.537-7.628 8.657-13.152 8.657-1.731 0-3.404-0.417-4.973-1.132l3.499-3.076c0.469 0.136 0.965 0.208 1.477 0.208 2.944 0 5.333-2.389 5.333-5.333 0-0.275-0.021-0.544-0.061-0.808l4.577-4.024zM19.068 11.38c-0.904-0.704-2.040-1.124-3.273-1.124-2.944 0-5.333 2.389-5.333 5.333 0 0.988 0.269 1.913 0.737 2.707l1.547-1.359c-0.183-0.413-0.284-0.868-0.284-1.348 0-1.84 1.493-3.333 3.333-3.333 0.632 0 1.224 0.176 1.728 0.483l1.545-1.359z"></path>
</svg>
