<!-- Generated by IcoMoon.io -->
<svg version="1.1" xmlns="http://www.w3.org/2000/svg" width="32" height="32" viewBox="0 0 32 32">
<title>icon-permission</title>
<path d="M21.333 12v2.667c1.333 0 2.667 1.333 2.667 2.667v6.667c0 1.333-1.333 2.667-2.667 2.667h-10.667c-1.333 0-2.667-1.333-2.667-2.667v-6.667c0-1.333 1.333-2.667 2.667-2.667h8v-2.667c0-4-0.453-4-2.667-4-1.933 0-2.524 0-2.642 2.667-0.033 0.736-0.621 1.333-1.358 1.333s-1.339-0.598-1.325-1.334c0.063-3.248 0.609-5.332 5.325-5.332 5.333 0 5.333 2.987 5.333 6.667zM10.667 17.333v6.667h10.667v-6.667h-10.667zM16 18.667c-0.736 0-1.333 0.597-1.333 1.333v1.333c0 0.736 0.597 1.333 1.333 1.333s1.333-0.597 1.333-1.333v-1.333c0-0.736-0.597-1.333-1.333-1.333z"></path>
</svg>
