<!-- Generated by IcoMoon.io -->
<svg version="1.1" xmlns="http://www.w3.org/2000/svg" width="32" height="32" viewBox="0 0 32 32">
<title>icon-user-management</title>
<path d="M15.999 4c-1.467 0-2.667 1.2-2.667 2.667s1.2 2.667 2.667 2.667c1.467 0 2.667-1.2 2.667-2.667s-1.2-2.667-2.667-2.667zM10.666 14.667h10.667v-0.76c0-1.080-0.64-2.040-1.627-2.467-1.133-0.493-2.387-0.773-3.707-0.773s-2.573 0.28-3.707 0.773c-0.987 0.427-1.627 1.387-1.627 2.467v0.76zM9.999 20c0 1.467-1.2 2.667-2.667 2.667s-2.667-1.2-2.667-2.667c0-1.467 1.2-2.667 2.667-2.667s2.667 1.2 2.667 2.667zM7.333 24h1.334c0 0-0.667 1.333-0.667 2v0.667h-5.333c0-1.080 0.64-1.467 1.627-1.893 1.133-0.493 2.373-0.773 3.039-0.773zM27.333 20c0 1.467-1.2 2.667-2.667 2.667s-2.667-1.2-2.667-2.667c0-1.467 1.2-2.667 2.667-2.667s2.667 1.2 2.667 2.667zM27.707 24.72c0.987 0.427 1.627 0.867 1.627 1.947h-5.333c0 0 0.001 0 0-0.667s-0.667-2-0.667-2h1.333c0.667 0 1.907 0.227 3.040 0.72zM13.333 18.667c0-1.467 1.2-2.667 2.667-2.667s2.667 1.2 2.667 2.667c0 1.467-1.2 2.667-2.667 2.667s-2.667-1.2-2.667-2.667zM21.333 26.667h-10.667c0-1.080 0.526-1.842 1.333-2.667 1.165-1.19 2.68-1.333 4-1.333s2.835 0.144 4 1.333c0.807 0.824 1.333 1.587 1.333 2.667zM21.333 8c0-0.736 0.597-1.333 1.333-1.333h2.667c0.736 0 1.333 0.597 1.333 1.333v6.667c0 0.736-0.597 1.333-1.333 1.333s-1.333-0.597-1.333-1.333v-5.333h-1.333c-0.736 0-1.333-0.597-1.333-1.333zM6.666 6.667c-0.736 0-1.333 0.597-1.333 1.333v6.667c0 0.736 0.597 1.333 1.333 1.333s1.333-0.597 1.333-1.333v-5.333h1.333c0.736 0 1.333-0.597 1.333-1.333s-0.597-1.333-1.333-1.333h-2.667z"></path>
</svg>
