<!-- Generated by IcoMoon.io -->
<svg version="1.1" xmlns="http://www.w3.org/2000/svg" width="32" height="32" viewBox="0 0 32 32">
<title>icon-un-subscribe</title>
<path d="M7.978 7.971h2.689v1.319c0 0.736 0.597 1.333 1.333 1.333l8-0c0.736-0 1.333-0.597 1.333-1.333v-1.318h2.689v6.633c0 0.73 0.592 1.322 1.322 1.322s1.322-0.592 1.322-1.322v-7.163c0-1.313-0.977-2.122-2.17-2.122l-4.497-0c0-1.326-2.347-2.652-4-2.652s-4.055 1.326-4.055 2.652h-4.442c-1.194 0-2.17 0.809-2.17 2.122v16.84c0 1.313 0.977 2.387 2.17 2.387h4.504c0.732 0 1.326-0.594 1.326-1.326s-0.594-1.326-1.326-1.326h-4.029v-16.044zM17.333 6.644c0 0.732-0.597 1.326-1.333 1.326s-1.333-0.594-1.333-1.326c0-0.732 0.597-1.326 1.333-1.326s1.333 0.594 1.333 1.326zM19.609 19.057c-0.521-0.521-1.365-0.521-1.886 0s-0.521 1.365 0 1.886l2.724 2.724-2.724 2.724c-0.521 0.521-0.521 1.365 0 1.886s1.365 0.521 1.886 0l2.724-2.724 2.724 2.724c0.521 0.521 1.365 0.521 1.886 0s0.521-1.365 0-1.886l-2.724-2.724 2.724-2.724c0.521-0.521 0.521-1.365 0-1.886s-1.365-0.521-1.886 0l-2.724 2.724-2.724-2.724zM12 13.333c-0.736 0-1.333 0.597-1.333 1.333s0.597 1.333 1.333 1.333h8c0.736 0 1.333-0.597 1.333-1.333s-0.597-1.333-1.333-1.333h-8z"></path>
</svg>
