<!-- Generated by IcoMoon.io -->
<svg version="1.1" xmlns="http://www.w3.org/2000/svg" width="32" height="32" viewBox="0 0 32 32">
<title>icon-user</title>
<path d="M16 8c1.467 0 2.667 1.2 2.667 2.667s-1.2 2.667-2.667 2.667c-1.467 0-2.667-1.2-2.667-2.667s1.2-2.667 2.667-2.667zM16 21.333c3.6 0 7.733 1.72 8 2.667h-16c0.307-0.96 4.413-2.667 8-2.667zM16 5.333c-2.947 0-5.333 2.387-5.333 5.333s2.387 5.333 5.333 5.333c2.947 0 5.333-2.387 5.333-5.333s-2.387-5.333-5.333-5.333zM16 18.667c-3.56 0-10.667 1.787-10.667 5.333v1.333c0 0.736 0.597 1.333 1.333 1.333h18.667c0.736 0 1.333-0.597 1.333-1.333v-1.333c0-3.547-7.107-5.333-10.667-5.333z"></path>
</svg>
