<!-- Generated by IcoMoon.io -->
<svg version="1.1" xmlns="http://www.w3.org/2000/svg" width="32" height="32" viewBox="0 0 32 32">
<title>icon-help</title>
<path d="M14.744 5.359c-1.249 0.165-2.381 0.511-3.423 1.014l0.067-0.029c-3.159 1.547-5.418 4.512-5.959 8.042l-0.008 0.060c-0.059 0.397-0.093 0.855-0.093 1.321 0 0.203 0.006 0.405 0.019 0.605l-0.001-0.027c0.008 1.618 0.418 3.139 1.136 4.469l-0.025-0.050c1.020 2.026 2.61 3.639 4.56 4.658l0.058 0.028c1.431 0.761 3.128 1.208 4.93 1.208 1.63 0 3.175-0.366 4.557-1.020l-0.065 0.028c2.441-1.173 4.334-3.162 5.354-5.607l0.026-0.071c0.491-1.184 0.777-2.56 0.777-4.002 0-5.142-3.629-9.436-8.466-10.462l-0.070-0.012c-0.524-0.103-1.127-0.162-1.743-0.162-0.056 0-0.112 0-0.168 0.001l0.008-0c-0.697-0.013-1.36-0.009-1.473 0.008zM17.382 8.088c2.472 0.308 4.54 1.795 5.648 3.872l0.019 0.040c0.578 1.095 0.918 2.394 0.918 3.772 0 0.069-0.001 0.138-0.003 0.206l0-0.010c0.005 0.1 0.007 0.217 0.007 0.335 0 2.051-0.797 3.917-2.097 5.303l0.004-0.004c-1.422 1.455-3.404 2.358-5.596 2.358-0.107 0-0.213-0.002-0.319-0.006l0.015 0c-0.066 0.002-0.143 0.003-0.22 0.003-1.359 0-2.639-0.334-3.764-0.925l0.044 0.021c-2.433-1.325-4.056-3.862-4.056-6.779 0-0.262 0.013-0.521 0.039-0.777l-0.003 0.032c0.041-1.452 0.45-2.801 1.136-3.966l-0.021 0.039c0.665-0.979 1.484-1.798 2.431-2.444l0.032-0.020c0.887-0.521 1.924-0.898 3.030-1.068l0.049-0.006c0.374-0.041 0.807-0.065 1.246-0.065 0.515 0 1.022 0.032 1.519 0.095l-0.059-0.006zM15.062 9.664c-1.421 0.334-2.551 1.339-3.054 2.654l-0.010 0.029c-0.226 0.6-0.216 0.852 0.047 1.151 0.191 0.211 0.466 0.343 0.772 0.343 0.271 0 0.517-0.103 0.702-0.273l-0.001 0.001c0.204-0.186 0.381-0.397 0.527-0.628l0.007-0.013c0.376-0.73 1.124-1.22 1.987-1.22 0.157 0 0.31 0.016 0.458 0.047l-0.014-0.003c0.552 0.020 1.031 0.315 1.306 0.751l0.004 0.007c0.112 0.193 0.178 0.424 0.178 0.671 0 0.053-0.003 0.105-0.009 0.157l0.001-0.006c-0.002 0.739-0.187 1.074-1.214 2.199-1.183 1.297-1.41 1.632-1.648 2.435-0.050 0.104-0.079 0.227-0.079 0.356 0 0.463 0.376 0.839 0.839 0.839 0.042 0 0.082-0.003 0.122-0.009l-0.005 0.001c0.554 0 0.956-0.329 1.338-1.095 0.365-0.68 0.81-1.263 1.332-1.766l0.002-0.002c0.86-0.74 1.417-1.81 1.473-3.012l0-0.009c0-0.020 0.001-0.044 0.001-0.068 0-1.686-1.175-3.097-2.751-3.458l-0.024-0.005c-0.404-0.093-0.868-0.146-1.344-0.146-0.332 0-0.659 0.026-0.977 0.076l0.035-0.005zM15.463 20.404c-0.29 0.172-0.49 0.469-0.528 0.815l-0 0.005c-0.002 0.023-0.003 0.051-0.003 0.078 0 0.591 0.479 1.070 1.070 1.070 0.377 0 0.708-0.195 0.899-0.489l0.003-0.004c0.086-0.161 0.137-0.352 0.137-0.556 0-0.209-0.053-0.405-0.147-0.576l0.003 0.006c-0.194-0.296-0.525-0.489-0.901-0.489-0.195 0-0.379 0.052-0.537 0.143l0.005-0.003z"></path>
</svg>
