<!-- Generated by IcoMoon.io -->
<svg version="1.1" xmlns="http://www.w3.org/2000/svg" width="32" height="32" viewBox="0 0 32 32">
<title>icon-info-inverted</title>
<path d="M25 16c0-5-4-9-9-9s-9 4-9 9c0 5 4 9 9 9s9-4 9-9zM28 16c0 6.6-5.4 12-12 12s-12-5.4-12-12c0-6.6 5.4-12 12-12s12 5.4 12 12zM17.6 10v1.6c0 1-0.8 1.6-1.6 1.6-1 0-1.6-0.8-1.6-1.6v-1.6c0-0.8 0.8-1.6 1.6-1.6 1 0 1.6 0.8 1.6 1.6zM17.6 16v6c0 1-0.8 1.6-1.6 1.6-1 0-1.6-0.8-1.6-1.6v-6c0-0.8 0.8-1.6 1.6-1.6 1 0 1.6 0.8 1.6 1.6z"></path>
</svg>
