<!-- Generated by IcoMoon.io -->
<svg version="1.1" xmlns="http://www.w3.org/2000/svg" width="24" height="32" viewBox="0 0 24 32">
<title>icon-custom-html-abe</title>
<path d="M0.654 0.084c-0.249 0.108-0.506 0.419-0.587 0.71-0.090 0.323-0.090 30.020 0 30.343 0.083 0.297 0.341 0.604 0.601 0.712 0.303 0.127 21.819 0.127 22.123 0 0.26-0.108 0.518-0.415 0.601-0.712 0.092-0.331 0.089-23.531-0.003-23.873-0.057-0.213-0.559-0.743-3.446-3.64-2.283-2.291-3.46-3.429-3.628-3.507-0.24-0.112-0.551-0.117-7.86-0.116-6.189 0.001-7.646 0.017-7.8 0.084zM18.404 5.080l1.402 1.404h-2.837v-1.404c0-0.772 0.007-1.404 0.016-1.404s0.647 0.632 1.419 1.404zM8.488 12.55c0.492 0.248 0.705 0.891 0.457 1.375-0.056 0.11-0.712 0.932-1.458 1.827l-1.356 1.627 1.395 1.675c0.78 0.937 1.426 1.769 1.466 1.889 0.163 0.493-0.095 1.11-0.543 1.297-0.276 0.115-0.675 0.11-0.932-0.012-0.141-0.067-0.737-0.734-1.85-2.070-0.903-1.084-1.703-2.054-1.779-2.155-0.177-0.237-0.24-0.653-0.143-0.946 0.046-0.138 0.746-1.038 1.787-2.297 1.801-2.177 1.982-2.35 2.451-2.35 0.125 0 0.352 0.063 0.505 0.14zM12.854 12.55c0.328 0.166 0.557 0.523 0.558 0.874 0.002 0.362-1.238 7.965-1.348 8.266-0.143 0.392-0.443 0.596-0.92 0.626-0.322 0.020-0.416 0.001-0.595-0.122-0.315-0.216-0.457-0.444-0.486-0.781-0.017-0.196 0.193-1.651 0.602-4.168 0.345-2.127 0.645-3.947 0.665-4.044s0.125-0.276 0.232-0.399c0.358-0.408 0.808-0.495 1.292-0.251zM15.981 12.55c0.307 0.188 3.632 4.203 3.733 4.507 0.125 0.379 0.032 0.735-0.298 1.141-1.561 1.918-3.337 3.993-3.472 4.054-0.266 0.121-0.706 0.093-0.984-0.064-0.466-0.262-0.686-0.91-0.459-1.349 0.049-0.095 0.705-0.912 1.458-1.816l1.369-1.643-1.399-1.68c-0.77-0.924-1.426-1.749-1.458-1.835-0.086-0.226-0.072-0.627 0.029-0.821 0.287-0.551 1.001-0.79 1.482-0.496z"></path>
</svg>
