<!-- Generated by IcoMoon.io -->
<svg version="1.1" xmlns="http://www.w3.org/2000/svg" width="32" height="32" viewBox="0 0 32 32">
<title>icon-selected</title>
<path d="M6.667 4h18.667c1.467 0 2.667 1.2 2.667 2.667v18.667c0 1.467-1.2 2.667-2.667 2.667h-18.667c-1.467 0-2.667-1.2-2.667-2.667v-18.667c0-1.467 1.2-2.667 2.667-2.667zM12.4 21.72c0.52 0.52 1.36 0.52 1.88 0l10.107-10.12c0.52-0.52 0.52-1.36 0-1.88s-1.36-0.52-1.88 0l-9.173 9.173-3.84-3.84c-0.52-0.52-1.36-0.52-1.88 0s-0.52 1.36 0 1.88l4.787 4.787z"></path>
</svg>
