<!-- Generated by IcoMoon.io -->
<svg version="1.1" xmlns="http://www.w3.org/2000/svg" width="32" height="32" viewBox="0 0 32 32">
<title>icon-download</title>
<path d="M11.608 16.941l3.449 3.449c0.521 0.521 1.365 0.521 1.886 0l3.449-3.449c0.52-0.52 0.52-1.363 0-1.883-0.519-0.519-1.36-0.52-1.88-0.003l-1.179 1.171v-9.56c0-0.736-0.597-1.333-1.333-1.333s-1.333 0.597-1.333 1.333v9.56l-1.179-1.171c-0.52-0.517-1.361-0.516-1.88 0.003-0.52 0.52-0.52 1.363 0 1.883zM6.667 24c-0.736 0-1.333 0.597-1.333 1.333s0.597 1.333 1.333 1.333h18.667c0.736 0 1.333-0.597 1.333-1.333s-0.597-1.333-1.333-1.333h-18.667z"></path>
</svg>
