<!-- Generated by IcoMoon.io -->
<svg version="1.1" xmlns="http://www.w3.org/2000/svg" width="32" height="32" viewBox="0 0 32 32">
<title>icon-copy</title>
<path d="M10.667 6.667c0 0.736 0.597 1.333 1.333 1.333h12v14.667c0 0.736 0.597 1.333 1.333 1.333s1.333-0.597 1.333-1.333v-16c0-0.736-0.597-1.333-1.333-1.333h-13.333c-0.736 0-1.333 0.597-1.333 1.333zM8 24h10.667v-10.667h-10.667v10.667zM5.333 12c0-0.736 0.597-1.333 1.333-1.333h13.333c0.736 0 1.333 0.597 1.333 1.333v13.333c0 0.736-0.597 1.333-1.333 1.333h-13.333c-0.736 0-1.333-0.597-1.333-1.333v-13.333z"></path>
</svg>
