<!-- Generated by IcoMoon.io -->
<svg version="1.1" xmlns="http://www.w3.org/2000/svg" width="32" height="32" viewBox="0 0 32 32">
<title>icon-tools</title>
<path d="M26.375 22.783l-8.84-8.811c0.905-2.271 0.438-4.949-1.402-6.793-1.853-1.847-4.56-2.305-6.845-1.385-0.76 0.306-0.838 1.279-0.258 1.858l2.634 2.632-1.383 1.368-2.631-2.622c-0.578-0.576-1.546-0.5-1.853 0.255-0.925 2.275-0.467 4.981 1.388 6.821 1.811 1.805 4.449 2.28 6.708 1.436l8.87 8.84c0.38 0.379 0.993 0.379 1.373 0l2.239-2.232c0.389-0.369 0.389-0.98 0-1.368zM23.454 24.335l-8.4-8.373c-0.466-0.464-1.195-0.495-1.809-0.257-0.307 0.119-0.624 0.201-0.948 0.246-1.324 0.194-2.716-0.204-3.729-1.213-0.925-0.912-1.353-2.135-1.285-3.338l2.067 2.060c0.52 0.519 1.362 0.519 1.883 0l2.239-2.232c0.523-0.521 0.523-1.368 0-1.889l-2.061-2.054c1.207-0.068 2.424 0.359 3.349 1.271 1.051 1.048 1.451 2.494 1.207 3.843-0.052 0.306-0.138 0.602-0.257 0.887-0.26 0.622-0.24 1.373 0.238 1.85l8.363 8.336-0.857 0.864z"></path>
</svg>
