<!-- Generated by IcoMoon.io -->
<svg version="1.1" xmlns="http://www.w3.org/2000/svg" width="36" height="32" viewBox="0 0 36 32">
<title>icon-storyline</title>
<path d="M8.604 1.067v1.067h2.133v-2.133h-2.133v1.067zM17.138 1.067v1.067h-2.133v2.133h2.133v2.133h2.133v-2.133h2.133v-2.133h-2.133v-2.133h-2.133v1.067zM25.671 1.067v1.067h2.133v-2.133h-2.133v1.067zM4.338 5.333v1.067h-2.133v2.133h2.133v2.133h2.133v-2.133h2.133v-2.133h-2.133v-2.133h-2.133v1.067zM29.938 5.333v1.067h-2.133v2.133h2.133v2.133h2.133v-2.133h2.133v-2.133h-2.133v-2.133h-2.133v1.067zM16.755 8.611c-4.721 0.498-8.938 3.454-10.996 7.709-0.431 0.891-0.697 1.583-0.924 2.399l-0.134 0.484 2.212-0.039 0.235-0.66c0.607-1.702 1.476-3.084 2.736-4.352 3.546-3.572 8.876-4.491 13.405-2.311 2.783 1.34 4.935 3.737 5.967 6.648l0.239 0.676 2.212 0.039-0.134-0.484c-1.804-6.511-8.114-10.815-14.818-10.108zM16.747 12.908c-1.34 0.218-2.777 0.786-3.947 1.562-0.706 0.468-2.077 1.845-2.549 2.561-0.358 0.542-0.941 1.668-1.040 2.009l-0.047 0.16h2.26l0.421-0.688c0.834-1.362 2.218-2.516 3.677-3.064 1.019-0.383 1.522-0.471 2.682-0.471s1.663 0.088 2.682 0.471c1.459 0.548 2.843 1.702 3.677 3.064l0.421 0.688h2.26l-0.049-0.16c-0.108-0.358-0.686-1.475-1.038-2.009-0.491-0.743-1.855-2.108-2.585-2.587-1.082-0.71-2.307-1.221-3.524-1.469-0.776-0.159-2.52-0.194-3.302-0.066zM17.14 17.178c-1.030 0.223-2 0.757-2.721 1.497-0.225 0.23-0.459 0.491-0.52 0.579-0.127 0.183-0.126 0.183 0.413 0.3 0.186 0.040 0.642 0.171 1.014 0.29l0.676 0.216 0.231-0.173c1.138-0.854 2.593-0.897 3.777-0.11l0.417 0.277 0.757-0.24c0.416-0.132 0.893-0.263 1.058-0.291s0.319-0.079 0.34-0.114-0.208-0.321-0.509-0.636c-0.564-0.59-1.282-1.092-1.919-1.341-0.896-0.351-2.099-0.452-3.012-0.254zM0 24.531v3.198l6.098 0.020c6.089 0.020 6.098 0.020 6.56 0.178 0.69 0.236 1.327 0.638 1.861 1.174 0.414 0.416 0.556 0.636 1.088 1.689l0.611 1.21h3.974l0.612-1.212c0.539-1.066 0.67-1.27 1.093-1.689 0.555-0.55 1.059-0.871 1.795-1.139l0.522-0.191 12.196-0.040v-6.395l-5.991 0.001c-4.8 0.001-6.144 0.022-6.759 0.104-1.752 0.233-3.334 0.846-4.797 1.858l-0.659 0.456-0.55-0.386c-1.138-0.797-2.193-1.3-3.444-1.639-1.382-0.375-1.725-0.392-8.217-0.393l-5.991-0.001v3.198z"></path>
</svg>
