<!-- Generated by IcoMoon.io -->
<svg version="1.1" xmlns="http://www.w3.org/2000/svg" width="32" height="32" viewBox="0 0 32 32">
<title>icon-move</title>
<path d="M16 8h10.667c1.467 0 2.667 1.2 2.667 2.667v13.333c0 1.467-1.2 2.667-2.667 2.667h-21.333c-1.467 0-2.667-1.2-2.667-2.667v-16c0-1.467 1.2-2.667 2.667-2.667h8l2.667 2.667zM5.333 8v16h21.333v-13.333h-11.773l-2.667-2.667h-6.893zM19.608 21.725l3.449-3.449c0.521-0.521 0.521-1.365 0-1.886l-3.449-3.449c-0.52-0.52-1.363-0.52-1.883 0-0.519 0.519-0.52 1.36-0.003 1.88l1.171 1.179h-9.56c-0.736 0-1.333 0.597-1.333 1.333s0.597 1.333 1.333 1.333h9.56l-1.171 1.179c-0.517 0.52-0.516 1.361 0.003 1.88 0.52 0.52 1.363 0.52 1.883 0z"></path>
</svg>
