<!-- Generated by IcoMoon.io -->
<svg version="1.1" xmlns="http://www.w3.org/2000/svg" width="32" height="32" viewBox="0 0 32 32">
<title>icon-interactive</title>
<path d="M1 1h30v3h-30z"></path>
<path d="M1 28.5h12.5v1c0 0.827 0.673 1.5 1.5 1.5h2c0.827 0 1.5-0.673 1.5-1.5v-1h12.5v-2h-30zM17.5 28.5v1c0 0.276-0.224 0.5-0.5 0.5h-2c-0.276 0-0.5-0.224-0.5-0.5v-1z"></path>
<path d="M2.5 5v20.5h27v-20.5zM10 8.5v3l2.121-2.121c0.543 0.543 0.879 1.293 0.879 2.121 0 1.657-1.343 3-3 3s-3-1.343-3-3 1.343-3 3-3zM5.5 24h-1v-1h1zM4.5 11.5h1c0 2.481 2.019 4.5 4.5 4.5s4.5-2.019 4.5-4.5-2.019-4.5-4.5-4.5v-1c3.033 0 5.5 2.467 5.5 5.5s-2.467 5.5-5.5 5.5-5.5-2.467-5.5-5.5zM7.5 24h-1v-1h1zM26 20.5c-0.112 0-0.218-0.023-0.319-0.057l-2.701 2.363c0.012 0.063 0.020 0.127 0.020 0.194 0 0.552-0.448 1-1 1s-1-0.448-1-1c0-0.040 0.007-0.078 0.012-0.116l-2.619-1.964c-0.121 0.052-0.253 0.080-0.393 0.080-0.112 0-0.218-0.023-0.319-0.057l-2.701 2.363c0.012 0.063 0.020 0.127 0.020 0.193 0 0.552-0.448 1-1 1-0.369 0-0.688-0.202-0.861-0.5h-4.639v-1h4.639c0.173-0.298 0.492-0.5 0.861-0.5 0.112 0 0.218 0.023 0.319 0.057l2.701-2.363c-0.012-0.063-0.020-0.127-0.020-0.194 0-0.552 0.448-1 1-1s1 0.448 1 1c0 0.040-0.007 0.078-0.012 0.116l2.619 1.964c0.121-0.052 0.253-0.080 0.393-0.080 0.112 0 0.218 0.023 0.319 0.057l2.701-2.363c-0.012-0.063-0.020-0.127-0.020-0.193 0-0.552 0.448-1 1-1s1 0.448 1 1c0 0.552-0.448 1-1 1zM27 16h-11v-1h1.5v-2.5h2v-3h2v1.5h2v-4h2v8h1.5z"></path>
</svg>
