<!-- Generated by IcoMoon.io -->
<svg version="1.1" xmlns="http://www.w3.org/2000/svg" width="32" height="32" viewBox="0 0 32 32">
<title>icon-export</title>
<path d="M8 4h10.667l8 7.2 0 14.4c0 1.467-1.102 2.4-2.667 2.4h-16c-1.564 0-2.667-0.933-2.667-2.4v-19.2c0-1.467 1.102-2.4 2.667-2.4zM8 6.667v18.667h16v-13.333h-5.333c-0.736 0-1.333-0.597-1.333-1.333l0-4h-9.333zM16.151 20.517v-1.555l-2.825 2.82c-0.49 0.489-1.283 0.489-1.772 0s-0.491-1.283-0.002-1.774l2.825-2.83h-1.562c-0.694 0-1.256-0.562-1.256-1.256s0.562-1.256 1.256-1.256h4.518c0.736 0 1.333 0.597 1.333 1.333v4.517c0 0.695-0.563 1.258-1.258 1.258s-1.258-0.563-1.258-1.258z"></path>
</svg>
