<!-- Generated by IcoMoon.io -->
<svg version="1.1" xmlns="http://www.w3.org/2000/svg" width="32" height="32" viewBox="0 0 32 32">
<title>icon-subscription</title>
<path d="M14.005 15.623l-8.698-4.956 0 10.667h8.026c0.736 0 1.333 0.597 1.333 1.333s-0.597 1.333-1.333 1.333h-8.026c-1.467 0-2.667-1.2-2.667-2.667l0.013-13.333c0-1.467 1.187-2.667 2.653-2.667h18.68c1.467 0 2.667 1.2 2.667 2.667v5.333c0 0.736-0.597 1.333-1.333 1.333s-1.333-0.597-1.333-1.333v-2.667l-8.659 4.955c-0.41 0.234-0.912 0.235-1.322 0.001zM14.667 13.333l9.32-5.333h-18.68l9.36 5.333zM30.358 18.187c0.471-0.566 0.395-1.407-0.171-1.878s-1.407-0.395-1.878 0.171l-5.732 6.878-2.968-2.968c-0.521-0.521-1.365-0.521-1.886 0s-0.521 1.365 0 1.886l4 4c0.265 0.265 0.629 0.406 1.003 0.389s0.724-0.191 0.964-0.478l6.667-8z"></path>
</svg>
