<!-- Generated by IcoMoon.io -->
<svg version="1.1" xmlns="http://www.w3.org/2000/svg" width="32" height="32" viewBox="0 0 32 32">
<title>icon-trash</title>
<path d="M9.333 24c0 1.467 1.2 2.667 2.667 2.667h8c1.467 0 2.667-1.2 2.667-2.667v-12c0-0.736-0.597-1.333-1.333-1.333h-10.667c-0.736 0-1.333 0.597-1.333 1.333v12zM12 13.333h8v10.667h-8v-10.667zM19.057 5.724c-0.25-0.25-0.589-0.391-0.943-0.391h-4.229c-0.354 0-0.693 0.14-0.943 0.391l-0.943 0.943h-2.667c-0.736 0-1.333 0.597-1.333 1.333s0.597 1.333 1.333 1.333h13.333c0.736 0 1.333-0.597 1.333-1.333s-0.597-1.333-1.333-1.333h-2.667l-0.943-0.943z"></path>
</svg>
