<!-- Generated by IcoMoon.io -->
<svg version="1.1" xmlns="http://www.w3.org/2000/svg" width="32" height="32" viewBox="0 0 32 32">
<title>icon-file</title>
<path d="M8 4h10.667l8 7.2 0 14.4c0 1.467-1.102 2.4-2.667 2.4h-16c-1.564 0-2.667-0.933-2.667-2.4v-19.2c0-1.467 1.102-2.4 2.667-2.4zM8 6.667v18.667h16v-13.333h-5.333c-0.736 0-1.333-0.597-1.333-1.333l0-4h-9.333zM12 14.667c-0.736 0-1.333 0.597-1.333 1.333s0.597 1.333 1.333 1.333h8c0.736 0 1.333-0.597 1.333-1.333s-0.597-1.333-1.333-1.333h-8zM10.667 10.667c0-0.736 0.597-1.333 1.333-1.333h2.667c0.736 0 1.333 0.597 1.333 1.333s-0.597 1.333-1.333 1.333h-2.667c-0.736 0-1.333-0.597-1.333-1.333zM12 20c-0.736 0-1.333 0.597-1.333 1.333s0.597 1.333 1.333 1.333h8c0.736 0 1.333-0.597 1.333-1.333s-0.597-1.333-1.333-1.333h-8z"></path>
</svg>
