<!-- Generated by IcoMoon.io -->
<svg version="1.1" xmlns="http://www.w3.org/2000/svg" width="32" height="32" viewBox="0 0 32 32">
<title>icon-excel</title>
<path d="M13.663 4.33v4.084l-0.14 0.209c-0.295 0.442-0.103 0.424-4.615 0.424l-4.047 0 0.032 22.083 0.127 0.17c0.088 0.111 0.185 0.209 0.293 0.294l0.004 0.003 0.17 0.127h21.028l0.17-0.127c0.111-0.088 0.209-0.185 0.294-0.293l0.003-0.004 0.127-0.17v-30.259l-0.127-0.17c-0.088-0.111-0.185-0.209-0.293-0.294l-0.004-0.003c-0.169-0.126-0.214-0.127-6.596-0.143l-6.426-0.016zM8.617 4.032l-3.169 3.169h6.369v-3.169c0-1.743-0.007-3.169-0.016-3.169s-1.442 1.426-3.184 3.169zM22.892 15.186c0.142 0.081 0.26 0.187 0.352 0.313l0.002 0.003 0.14 0.209v3.997c0 4.46 0.024 4.214-0.431 4.497l-0.215 0.134h-13.477l-0.215-0.134c-0.454-0.283-0.431-0.037-0.431-4.497v-3.997l0.14-0.209c0.303-0.454-0.205-0.424 7.245-0.424 6.234 0 6.691 0.007 6.891 0.108zM10.463 17.848v0.923h4.615v-1.846h-4.615zM16.924 17.848v0.923h4.615v-1.846h-4.615zM10.463 21.54v0.923h4.615v-1.846h-4.615zM16.924 21.54v0.923h4.615v-1.846h-4.615z"></path>
</svg>
