<!-- Generated by IcoMoon.io -->
<svg version="1.1" xmlns="http://www.w3.org/2000/svg" width="32" height="32" viewBox="0 0 32 32">
<title>icon-published</title>
<path d="M16 5.333c-5.888 0-10.667 4.779-10.667 10.667s4.779 10.667 10.667 10.667c5.888 0 10.667-4.779 10.667-10.667s-4.779-10.667-10.667-10.667zM8 16c0-0.651 0-1.333 0-2l4.789 5.2v1.067c0 1.173 0.96 2.133 2.133 2.133v1.502c-3.589-0.568-6.923-3.56-6.923-7.902zM22 21.333c-0.277-0.864-0.784-1.067-1.744-1.067h-1.067v-3.2c0-0.587-0.48-1.067-1.067-1.067h-6.4v-2.133h2.133c0.587 0 1.067-0.48 1.067-1.067v-2.133h2.133c1.173 0 2.133-0.586 2.133-1.76v-0.156c2.811 1.249 4.811 3.676 4.811 7.249 0 2.219-0.667 3.333-2 5.333z"></path>
</svg>
