<!-- Generated by IcoMoon.io -->
<svg version="1.1" xmlns="http://www.w3.org/2000/svg" width="32" height="32" viewBox="0 0 32 32">
<title>icon-link</title>
<path d="M20 14.667h-8c-0.736 0-1.333 0.597-1.333 1.333s0.597 1.333 1.333 1.333h8c0.736 0 1.333-0.597 1.333-1.333s-0.597-1.333-1.333-1.333z"></path>
<path d="M7.867 16c0-4 3.187-5.467 5.467-5.467h0.067c0.7 0 1.267-0.567 1.267-1.267s-0.567-1.267-1.267-1.267h-0.067c-3.68 0-8 2.667-8 8s4.32 8 8 8h0.067c0.7 0 1.267-0.567 1.267-1.267s-0.567-1.267-1.267-1.267h-0.067c-2.28 0-5.467-1.467-5.467-5.467z"></path>
<path d="M24.133 16c0-4-3.187-5.467-5.467-5.467h-0.067c-0.7 0-1.267-0.567-1.267-1.267s0.567-1.267 1.267-1.267h0.067c3.68 0 8 2.667 8 8s-4.32 8-8 8h-0.067c-0.7 0-1.267-0.567-1.267-1.267s0.567-1.267 1.267-1.267h0.067c2.28 0 5.467-1.467 5.467-5.467z"></path>
</svg>
