<!-- Generated by IcoMoon.io -->
<svg version="1.1" xmlns="http://www.w3.org/2000/svg" width="32" height="32" viewBox="0 0 32 32">
<title>icon-user-edit</title>
<path d="M21.333 10.667c0 2.947-2.387 5.333-5.333 5.333s-5.333-2.387-5.333-5.333c0-2.947 2.387-5.333 5.333-5.333s5.333 2.387 5.333 5.333zM18.667 10.667c0-1.467-1.2-2.667-2.667-2.667s-2.667 1.2-2.667 2.667c0 1.467 1.2 2.667 2.667 2.667s2.667-1.2 2.667-2.667zM8 23.133v0.867h4c0.736 0 1.333 0.597 1.333 1.333s-0.597 1.333-1.333 1.333h-5.333c-0.736 0-1.333-0.597-1.333-1.333v-2.2c0-1.373 0.68-2.68 1.853-3.373 2.573-1.533 5.587-2.427 8.813-2.427h2.667c0.736 0 1.333 0.597 1.333 1.333s-0.597 1.333-1.333 1.333h-2.667c-2.627 0-5.2 0.707-7.453 2.053-0.333 0.2-0.547 0.627-0.547 1.080zM26.325 21.484l-0.829 0.829-2.476-2.476 0.829-0.829c0.455-0.455 1.191-0.455 1.647 0l0.829 0.829c0.455 0.455 0.455 1.191 0 1.647zM22.19 20.667l2.476 2.476-6.19 6.19h-1.104c-0.751 0-1.355-0.621-1.333-1.372l0.028-0.964 6.123-6.331z"></path>
</svg>
