<!-- Generated by IcoMoon.io -->
<svg version="1.1" xmlns="http://www.w3.org/2000/svg" width="32" height="32" viewBox="0 0 32 32">
<title>icon-calender</title>
<path d="M13.333 16.534c0-0.736 0.597-1.333 1.333-1.333s1.333 0.597 1.333 1.333c0 0.736-0.597 1.333-1.333 1.333s-1.333-0.597-1.333-1.333zM26.667 7.467v17.067c0 1.173-1.067 2.133-2.37 2.133h-16.593c-1.316 0-2.37-0.96-2.37-2.133l0.012-17.067c0-1.173 1.043-2.133 2.359-2.133h1.185v-0.948c0-0.655 0.531-1.185 1.185-1.185s1.185 0.531 1.185 1.185v0.948h9.482v-0.948c0-0.655 0.531-1.185 1.185-1.185s1.185 0.531 1.185 1.185v0.948h1.185c1.304 0 2.37 0.96 2.37 2.133zM8 9.867h16v-2h-16v2zM24 24.001v-11.467h-16v11.467h16zM18.667 16.534c0 0.736 0.597 1.333 1.333 1.333s1.333-0.597 1.333-1.333c0-0.736-0.597-1.333-1.333-1.333s-1.333 0.597-1.333 1.333z"></path>
</svg>
