<!-- Generated by IcoMoon.io -->
<svg version="1.1" xmlns="http://www.w3.org/2000/svg" width="32" height="32" viewBox="0 0 32 32">
<title>icon-edit</title>
<path d="M24 17.333c0-0.736 0.597-1.333 1.333-1.333s1.333 0.597 1.333 1.333v6.667c0 1.467-1.2 2.667-2.667 2.667h-16c-1.467 0-2.667-1.2-2.667-2.667v-17.333c0-0.736 0.597-1.333 1.333-1.333h8c0.736 0 1.333 0.597 1.333 1.333s-0.597 1.333-1.333 1.333h-6.667v16h16v-6.667zM26.325 8.151l-0.829 0.829-2.476-2.476 0.829-0.829c0.455-0.456 1.191-0.456 1.647 0l0.829 0.829c0.455 0.456 0.455 1.191 0 1.647zM22.19 7.334l2.476 2.476-6.19 6.19h-1.104c-0.751 0-1.355-0.621-1.333-1.372l0.028-0.964 6.123-6.33z"></path>
</svg>
