<!-- Generated by IcoMoon.io -->
<svg version="1.1" xmlns="http://www.w3.org/2000/svg" width="31" height="32" viewBox="0 0 31 32">
<title>icon-h5p</title>
<path d="M14.926 0.126c-0.28 0.196-0.334 0.458-0.334 1.624 0 1.215 0.058 1.46 0.383 1.628 0.25 0.129 0.42 0.129 0.67 0 0.326-0.168 0.383-0.413 0.383-1.628 0-1.166-0.054-1.428-0.334-1.624-0.084-0.059-0.257-0.106-0.384-0.106s-0.301 0.048-0.384 0.106zM21.579 2.171c0 1.925-0.013 2.192-0.111 2.359-0.061 0.103-0.156 0.209-0.212 0.236s-0.533 0.064-1.061 0.084c-0.952 0.035-0.961 0.037-1.159 0.227-0.167 0.16-0.2 0.242-0.2 0.495 0 0.3 0.092 0.446 0.392 0.626 0.054 0.032 0.531 0.073 1.060 0.091 1.35 0.046 1.253-0.098 1.279 1.896l0.020 1.566h2.083v-0.836c0-0.771 0.013-0.863 0.171-1.18 0.429-0.862 1.493-1.027 2.181-0.34 0.377 0.377 0.456 0.66 0.456 1.634v0.722h3.478l-0.037-1.029c-0.050-1.412-0.265-2.318-0.836-3.539-1.29-2.756-4.242-4.945-6.932-5.141l-0.571-0.042v2.171zM4.414 4.364c-0.245 0.206-0.309 0.47-0.183 0.759 0.132 0.304 1.789 1.935 2.036 2.004 0.459 0.128 0.88-0.21 0.88-0.705 0-0.205-0.094-0.321-0.998-1.224-0.966-0.966-1.007-0.998-1.268-0.998-0.194 0-0.326 0.047-0.466 0.165zM13.677 5.731c-2.833 0.539-5.174 2.3-6.461 4.858-0.539 1.072-0.888 2.394-0.932 3.536l-0.019 0.49 3.832 0.065 0.158 0.183c0.149 0.173 0.158 0.229 0.158 1.031 0 1.163 0.16 1.496 0.718 1.496 0.559 0 0.718-0.333 0.718-1.505v-0.856l0.382-0.382h2.361v-1.437h-0.511c-0.704 0-1.102-0.132-1.511-0.5-0.465-0.418-0.67-0.842-0.706-1.459-0.037-0.636 0.132-1.112 0.546-1.537 0.417-0.429 0.869-0.617 1.593-0.664l0.589-0.038v-3.377l-0.245 0.007c-0.135 0.004-0.436 0.044-0.669 0.088zM19.326 13.265c-0.153 0.029-0.341 0.185-0.446 0.37-0.041 0.073-0.090 0.559-0.108 1.093-0.047 1.324 0.039 1.253-1.537 1.279l-1.207 0.020v2.8h0.515c0.304 0 0.654 0.045 0.855 0.11 0.428 0.138 0.93 0.581 1.163 1.026 0.151 0.289 0.175 0.412 0.176 0.921 0.001 0.492-0.025 0.64-0.157 0.909-0.367 0.745-1.023 1.144-1.973 1.198l-0.579 0.033v2.072h3.568l0.118-0.506c0.319-1.364 0.718-2.045 2.296-3.916 1.055-1.25 1.516-2.017 1.877-3.121 0.136-0.417 0.369-1.368 0.369-1.506 0-0.016-0.796-0.028-1.77-0.028-1.547 0-1.793-0.014-1.957-0.111-0.103-0.061-0.209-0.156-0.236-0.212s-0.064-0.533-0.084-1.061c-0.035-0.944-0.038-0.962-0.221-1.153-0.184-0.191-0.41-0.266-0.663-0.218zM0.271 14.78c-0.25 0.196-0.337 0.52-0.218 0.805 0.163 0.39 0.333 0.434 1.674 0.434s1.511-0.044 1.674-0.434c0.119-0.285 0.032-0.609-0.218-0.805-0.155-0.122-0.263-0.132-1.456-0.132s-1.301 0.010-1.456 0.132zM27.438 14.78c-0.25 0.196-0.337 0.52-0.218 0.805 0.163 0.39 0.333 0.434 1.674 0.434s1.511-0.044 1.674-0.434c0.119-0.285 0.032-0.609-0.218-0.805-0.155-0.122-0.263-0.132-1.456-0.132s-1.301 0.010-1.456 0.132zM6.363 16.048c0 0.151 0.239 1.106 0.395 1.576 0.389 1.174 0.776 1.798 2.084 3.358 1.269 1.513 1.685 2.231 2.008 3.463l0.171 0.651h3.571v-1.443c0-2.056 0.019-2.083 1.491-2.083 0.817 0 0.858-0.007 1.049-0.167 0.25-0.21 0.319-0.525 0.176-0.803-0.167-0.324-0.311-0.366-1.359-0.402-0.945-0.032-0.965-0.036-1.143-0.214l-0.181-0.181-0.019-1.892-0.019-1.893h-1.35l-0.029 0.604c-0.037 0.782-0.204 1.176-0.68 1.612-0.814 0.744-1.978 0.744-2.793 0-0.477-0.436-0.643-0.83-0.68-1.612l-0.029-0.604h-1.331c-0.732 0-1.331 0.013-1.331 0.028zM6.132 23.579c-0.304 0.177-1.909 1.857-1.957 2.048-0.094 0.375 0.287 0.842 0.685 0.842 0.255 0 0.488-0.183 1.388-1.094 0.849-0.859 0.898-0.923 0.898-1.166 0-0.3-0.127-0.509-0.393-0.646-0.245-0.127-0.382-0.123-0.622 0.017zM23.82 23.592c-0.259 0.158-0.347 0.318-0.347 0.63 0 0.226 0.067 0.311 0.898 1.152 0.9 0.911 1.132 1.094 1.388 1.094 0.399 0 0.779-0.467 0.685-0.842-0.048-0.191-1.652-1.87-1.956-2.048-0.252-0.147-0.41-0.144-0.668 0.013zM11.131 27.268c0 0.44 0.019 0.909 0.041 1.042l0.040 0.242 3.696 0.038 0.167 0.157c0.336 0.315 0.262 0.928-0.134 1.108-0.104 0.047-0.702 0.073-1.692 0.073-0.842 0-1.532 0.017-1.532 0.037 0 0.090 0.408 0.609 0.696 0.887 0.419 0.402 0.926 0.716 1.524 0.941 0.449 0.169 0.563 0.185 1.371 0.185s0.922-0.015 1.371-0.185c0.598-0.226 1.105-0.539 1.524-0.941 0.289-0.278 0.696-0.797 0.696-0.887 0-0.020-0.393-0.037-0.873-0.037-0.776 0-0.891-0.015-1.040-0.132-0.25-0.196-0.337-0.52-0.218-0.805 0.16-0.384 0.343-0.434 1.564-0.434h1.072l0.041-0.245c0.022-0.135 0.041-0.605 0.041-1.045l0.001-0.8h-8.359l0.001 0.8z"></path>
</svg>
