<!-- Generated by IcoMoon.io -->
<svg version="1.1" xmlns="http://www.w3.org/2000/svg" width="31" height="32" viewBox="0 0 31 32">
<title>icon-success</title>
<path d="M15.61 3.278c-7.181 0-13.034 5.854-13.034 13.034s5.854 13.034 13.034 13.034 13.034-5.854 13.034-13.034-5.854-13.034-13.034-13.034zM15.61 26.693c-5.776 0-10.38-4.683-10.38-10.381s4.605-10.38 10.38-10.38 10.38 4.683 10.38 10.38-4.683 10.38-10.38 10.38zM13.034 19.122l7.649-7.649c0.546-0.468 1.327-0.468 1.873 0 0.468 0.546 0.468 1.327 0 1.795l-8.585 8.585c-0.546 0.468-1.327 0.468-1.873 0l-3.356-3.356c-0.468-0.468-0.468-1.327 0-1.873 0.546-0.468 1.327-0.468 1.873 0l2.419 2.498z"></path>
</svg>
