<!-- Generated by IcoMoon.io -->
<svg version="1.1" xmlns="http://www.w3.org/2000/svg" width="32" height="32" viewBox="0 0 32 32">
<title>icon-plus</title>
<path d="M8.457 8.304c-4.148 4.148-4.148 10.937 0 15.085s10.937 4.148 15.085 0 4.148-10.937 0-15.085-10.937-4.148-15.085 0zM21.657 21.504c-3.111 3.111-8.202 3.111-11.314 0s-3.111-8.202 0-11.314 8.202-3.111 11.314 0 3.111 8.202 0 11.314z"></path>
<path d="M17.32 14.527v-3.583c0-0.754-0.566-1.32-1.32-1.32s-1.32 0.566-1.32 1.32v3.583h-3.583c-0.754 0-1.32 0.566-1.32 1.32s0.566 1.32 1.32 1.32h3.583v3.583c0 0.754 0.566 1.32 1.32 1.32s1.32-0.566 1.32-1.32v-3.583h3.583c0.754 0 1.32-0.566 1.32-1.32s-0.566-1.32-1.32-1.32h-3.583z"></path>
</svg>
