<!-- Generated by IcoMoon.io -->
<svg version="1.1" xmlns="http://www.w3.org/2000/svg" width="32" height="32" viewBox="0 0 32 32">
<title>icon-history</title>
<path d="M26.667 25.333c0-0.736-0.597-1.333-1.333-1.333h-18.667c-0.736 0-1.333 0.597-1.333 1.333s0.597 1.333 1.333 1.333h18.667c0.736 0 1.333-0.597 1.333-1.333zM24.421 13.333v5.333h-16.842v-5.333h16.842zM25.544 10.667h-19.088c-0.618 0-1.123 0.6-1.123 1.333v8c0 0.733 0.505 1.333 1.123 1.333h19.088c0.618 0 1.123-0.6 1.123-1.333v-8c0-0.733-0.505-1.333-1.123-1.333zM26.667 6.667c0-0.736-0.597-1.333-1.333-1.333h-18.667c-0.736 0-1.333 0.597-1.333 1.333s0.597 1.333 1.333 1.333h18.667c0.736 0 1.333-0.597 1.333-1.333z"></path>
</svg>
