<!-- Generated by IcoMoon.io -->
<svg version="1.1" xmlns="http://www.w3.org/2000/svg" width="32" height="32" viewBox="0 0 32 32">
<title>icon-unpublish</title>
<path d="M18 14.667l2 2.667c0.736 0 1.333-0.597 1.333-1.333s-0.597-1.333-1.333-1.333h-2zM6.013 6.242c-0.385 0.425-0.383 1.075 0.003 1.5 5.768 6.338 5.366 5.64 6.651 6.925h-0.667c-0.736 0-1.333 0.597-1.333 1.333s0.597 1.333 1.333 1.333h2.667l2.4 2.587 5.298 5.838c0.442 0.487 1.208 0.487 1.65 0 0.385-0.425 0.385-1.072 0-1.497l-16.352-18.019c-0.442-0.487-1.208-0.487-1.65 0z"></path>
<path d="M24.133 16c0-4-3.187-5.467-5.467-5.467-0.714 0-1.333-0.524-1.333-1.267s0.62-1.267 1.333-1.267c3.68 0 8 2.667 8 8 0 1.077-0.176 2.046-0.488 2.906-0.265 0.732-1.168 0.899-1.784 0.423-0.497-0.384-0.633-1.065-0.47-1.671 0.134-0.496 0.208-1.047 0.208-1.657z"></path>
<path d="M7.867 16c0-4 3.187-5.467 5.467-5.467 0.714 0 1.333-0.524 1.333-1.267s-0.62-1.267-1.333-1.267c-3.68 0-8 2.667-8 8s4.32 8 8 8c0.714 0 1.333-0.524 1.333-1.267s-0.62-1.267-1.333-1.267c-2.28 0-5.467-1.467-5.467-5.467z"></path>
</svg>
