<!-- Generated by IcoMoon.io -->
<svg version="1.1" xmlns="http://www.w3.org/2000/svg" width="32" height="32" viewBox="0 0 32 32">
<title>icon-search</title>
<path d="M20.853 18.347l9.884 9.884c0.693 0.693 0.693 1.813 0 2.507s-1.813 0.693-2.507 0l-9.884-9.884c-2.756 2.009-6.364 2.898-10.204 1.742-3.964-1.191-7.076-4.551-7.893-8.622-1.671-8.249 5.458-15.396 13.724-13.724 4.053 0.818 7.413 3.929 8.622 7.893 1.156 3.84 0.267 7.449-1.742 10.204zM11.555 3.556c-4.427 0-8 3.573-8 8s3.573 8 8 8c4.427 0 8-3.573 8-8s-3.573-8-8-8z"></path>
</svg>
