<!-- Generated by IcoMoon.io -->
<svg version="1.1" xmlns="http://www.w3.org/2000/svg" width="32" height="32" viewBox="0 0 32 32">
<title>icon-crossmark</title>
<path d="M16 5.333c-5.867 0-10.667 4.8-10.667 10.667s4.8 10.667 10.667 10.667 10.667-4.8 10.667-10.667-4.8-10.667-10.667-10.667zM16 24c-4.4 0-8-3.6-8-8s3.6-8 8-8 8 3.6 8 8-3.6 8-8 8z"></path>
<path d="M17.867 16l2.533-2.533c0.533-0.533 0.533-1.333 0-1.867s-1.333-0.533-1.867 0l-2.533 2.533-2.533-2.533c-0.533-0.533-1.333-0.533-1.867 0s-0.533 1.333 0 1.867l2.533 2.533-2.533 2.533c-0.533 0.533-0.533 1.333 0 1.867s1.333 0.533 1.867 0l2.533-2.533 2.533 2.533c0.533 0.533 1.333 0.533 1.867 0s0.533-1.333 0-1.867l-2.533-2.533z"></path>
</svg>
