<!-- Generated by IcoMoon.io -->
<svg version="1.1" xmlns="http://www.w3.org/2000/svg" width="28" height="32" viewBox="0 0 28 32">
<title>icon-lock-close</title>
<path d="M8.849 3.28c1.397-1.397 3.293-2.182 5.269-2.182s3.871 0.785 5.269 2.182c1.397 1.397 2.182 3.293 2.182 5.269v4.471h1.49c1.186 0 2.323 0.471 3.161 1.309s1.309 1.975 1.309 3.161v8.941c0 1.186-0.471 2.323-1.309 3.161s-1.976 1.309-3.161 1.309h-17.882c-1.186 0-2.323-0.471-3.161-1.309s-1.309-1.976-1.309-3.161v-8.941c0-1.186 0.471-2.323 1.309-3.161s1.975-1.309 3.161-1.309h1.49v-4.471c0-1.976 0.785-3.871 2.182-5.269zM9.647 13.019h8.941v-4.471c0-1.186-0.471-2.323-1.309-3.161s-1.976-1.309-3.161-1.309c-1.186 0-2.323 0.471-3.161 1.309s-1.309 1.976-1.309 3.161v4.471zM5.176 15.999c-0.395 0-0.774 0.157-1.054 0.436s-0.436 0.659-0.436 1.054v8.941c0 0.395 0.157 0.774 0.436 1.054s0.659 0.437 1.054 0.437h17.882c0.395 0 0.774-0.157 1.054-0.437s0.437-0.658 0.437-1.054v-8.941c0-0.395-0.157-0.774-0.437-1.054s-0.658-0.436-1.054-0.436h-17.882zM14.118 18.98c0.823 0 1.49 0.667 1.49 1.49v2.98c0 0.823-0.667 1.49-1.49 1.49s-1.49-0.667-1.49-1.49v-2.98c0-0.823 0.667-1.49 1.49-1.49z"></path>
</svg>
