<!-- Generated by IcoMoon.io -->
<svg version="1.1" xmlns="http://www.w3.org/2000/svg" width="32" height="32" viewBox="0 0 32 32">
<title>icon-checkmark</title>
<path d="M24 16c0-4.418-3.582-8-8-8s-8 3.582-8 8c0 4.418 3.582 8 8 8s8-3.582 8-8zM26.667 16c0 5.891-4.776 10.667-10.667 10.667s-10.667-4.776-10.667-10.667c0-5.891 4.776-10.667 10.667-10.667s10.667 4.776 10.667 10.667zM20.973 14.245l-5 5.333c-0.494 0.527-1.318 0.565-1.859 0.085l-3-2.667c-0.55-0.489-0.6-1.332-0.111-1.882s1.332-0.6 1.882-0.111l2.030 1.804 4.112-4.386c0.504-0.537 1.347-0.564 1.885-0.061s0.565 1.347 0.061 1.885z"></path>
</svg>
