<!-- Generated by IcoMoon.io -->
<svg version="1.1" xmlns="http://www.w3.org/2000/svg" width="32" height="32" viewBox="0 0 32 32">
<title>icon-share</title>
<path d="M25.333 14.667c-0.736 0-1.333 0.597-1.333 1.333v8h-16v-8c0-0.736-0.597-1.333-1.333-1.333s-1.333 0.597-1.333 1.333v8c0 1.467 1.2 2.667 2.667 2.667h16c1.467 0 2.667-1.2 2.667-2.667v-8c0-0.736-0.597-1.333-1.333-1.333zM10.274 11.059c-0.52 0.52-0.52 1.362 0 1.882s1.36 0.52 1.88 0.002l2.512-2.503v9.56c0 0.736 0.597 1.333 1.333 1.333s1.333-0.597 1.333-1.333v-9.56l2.512 2.503c0.52 0.518 1.361 0.517 1.88-0.002s0.52-1.362 0-1.882l-4.783-4.783c-0.521-0.521-1.365-0.521-1.886 0l-4.783 4.783z"></path>
</svg>
