<!-- Generated by IcoMoon.io -->
<svg version="1.1" xmlns="http://www.w3.org/2000/svg" width="33" height="32" viewBox="0 0 33 32">
<title>icon-3d-vista</title>
<path d="M12.951 1.648l-3.24 1.646 6.575 3.287 6.576-3.287-1.809-0.92c-3.943-2.006-4.686-2.376-4.773-2.374-0.049 0.001-1.548 0.743-3.33 1.648zM8.657 9.143l0.005 4.246 6.67 3.31v-8.463l-6.68-3.339 0.005 4.246zM20.565 6.57l-3.324 1.666v8.493l6.68-3.339v-4.247c0-2.336-0.007-4.245-0.016-4.243s-1.512 0.753-3.34 1.67zM4.341 16.931l-3.261 1.643 6.554 3.276 3.245-1.621c1.785-0.892 3.245-1.643 3.245-1.669 0-0.044-6.467-3.307-6.505-3.282-0.009 0.006-1.484 0.75-3.277 1.654zM21.678 16.915c-1.776 0.895-3.229 1.642-3.229 1.66s1.46 0.762 3.244 1.654l3.245 1.621 3.245-1.621c1.785-0.892 3.245-1.643 3.245-1.669 0-0.044-6.467-3.307-6.505-3.283-0.009 0.006-1.469 0.743-3.245 1.638zM0.005 24.412l0.005 4.246 6.67 3.31v-8.463l-6.68-3.339 0.005 4.246zM11.913 21.838l-3.324 1.666v8.493l6.68-3.339v-4.247c0-2.336-0.007-4.245-0.016-4.243s-1.512 0.753-3.34 1.67zM17.309 24.412l0.005 4.246 6.67 3.31v-8.463l-6.68-3.339 0.005 4.246zM29.217 21.838l-3.324 1.666v8.493l6.68-3.339v-4.247c0-2.336-0.007-4.245-0.016-4.243s-1.512 0.753-3.34 1.67z"></path>
</svg>
