<!-- Generated by IcoMoon.io -->
<svg version="1.1" xmlns="http://www.w3.org/2000/svg" width="32" height="32" viewBox="0 0 32 32">
<title>info</title>
<path d="M24 16c0-4.418-3.582-8-8-8s-8 3.582-8 8c0 4.418 3.582 8 8 8s8-3.582 8-8zM26.667 16c0 5.891-4.776 10.667-10.667 10.667s-10.667-4.776-10.667-10.667c0-5.891 4.776-10.667 10.667-10.667s10.667 4.776 10.667 10.667zM17.333 10.667c0-0.736-0.597-1.333-1.333-1.333s-1.333 0.597-1.333 1.333v1.333c0 0.736 0.597 1.333 1.333 1.333s1.333-0.597 1.333-1.333v-1.333zM17.333 16c0-0.736-0.597-1.333-1.333-1.333s-1.333 0.597-1.333 1.333v5.333c0 0.736 0.597 1.333 1.333 1.333s1.333-0.597 1.333-1.333v-5.333z"></path>
</svg>
