<!-- Generated by IcoMoon.io -->
<svg version="1.1" xmlns="http://www.w3.org/2000/svg" width="32" height="32" viewBox="0 0 32 32">
<title>magnifier</title>
<path d="M19.64 17.759l7.413 7.413c0.52 0.52 0.52 1.36 0 1.88s-1.36 0.52-1.88 0l-7.413-7.413c-2.067 1.507-4.773 2.173-7.653 1.307-2.973-0.893-5.307-3.413-5.92-6.467-1.253-6.187 4.093-11.547 10.293-10.293 3.040 0.613 5.56 2.947 6.467 5.92 0.867 2.88 0.2 5.587-1.307 7.653zM12.666 6.666c-3.32 0-6 2.68-6 6s2.68 6 6 6c3.32 0 6-2.68 6-6s-2.68-6-6-6z"></path>
</svg>
