<!-- Generated by IcoMoon.io -->
<svg version="1.1" xmlns="http://www.w3.org/2000/svg" width="32" height="32" viewBox="0 0 32 32">
<title>person</title>
<path d="M16 15c-2.2 0-4-0.7-5.4-2.1s-2.1-3.2-2.1-5.4c0-2.2 0.7-4 2.1-5.4s3.2-2.1 5.4-2.1c2.2 0 4 0.7 5.4 2.1s2.1 3.2 2.1 5.4-0.7 4-2.1 5.4c-1.4 1.4-3.2 2.1-5.4 2.1zM0 31.050v-4.7c0-1.267 0.317-2.35 0.95-3.25s1.45-1.583 2.45-2.050c2.233-1 4.375-1.75 6.425-2.25s4.108-0.75 6.175-0.75c2.067 0 4.117 0.258 6.15 0.775s4.165 1.262 6.396 2.235c1.044 0.471 1.88 1.154 2.51 2.048s0.944 1.975 0.944 3.242v4.7h-32zM3 28.050h26v-1.7c0-0.533-0.158-1.042-0.475-1.525s-0.708-0.842-1.175-1.075c-2.133-1.033-4.083-1.742-5.85-2.125s-3.6-0.575-5.5-0.575-3.75 0.192-5.55 0.575c-1.8 0.383-3.75 1.092-5.85 2.125-0.467 0.233-0.85 0.592-1.15 1.075s-0.45 0.992-0.45 1.525v1.7zM16 12c1.3 0 2.375-0.425 3.225-1.275s1.275-1.925 1.275-3.225c0-1.3-0.425-2.375-1.275-3.225s-1.925-1.275-3.225-1.275c-1.3 0-2.375 0.425-3.225 1.275s-1.275 1.925-1.275 3.225c0 1.3 0.425 2.375 1.275 3.225s1.925 1.275 3.225 1.275z"></path>
</svg>
