<!-- Generated by IcoMoon.io -->
<svg version="1.1" xmlns="http://www.w3.org/2000/svg" width="74" height="32" viewBox="0 0 74 32">
<title>pfizer</title>
<path fill="#fff" d="M0.195 16.532c0.893-2.589 5.985-3.676 13.367-2.78l1.439-5.344c-7.324-0.945-12.673 0.122-13.566 3.499l-1.24 4.625z"></path>
<path fill="#fff" d="M61.674 14.889c0.8 0 1.209 0.525 1.209 1.678 0 0.111 0 0.222 0 0.348h-3.070c0.343-1.216 1.030-2.019 1.875-2.019l-0.014-0.007zM61.688 20.914c-1.373 0-2.094-0.869-2.094-2.432 0-0.104 0-0.209 0-0.313h5.38c0.113-0.417 0.173-0.847 0.179-1.279 0-1.908-1.15-3.37-3.519-3.37s-4.563 2.432-4.563 4.951c0 2.432 1.562 3.913 4.179 3.913 1.11 0.001 2.191-0.353 3.090-1.011l-0.474-1.272c-0.621 0.496-1.383 0.778-2.173 0.806l-0.003 0.007z"></path>
<path fill="#fff" d="M34.146 16.042h-0.972l1.339-5.010h1.030c1.288 0 2.009 0.883 2.009 2.054 0 1.873-1.452 2.957-3.396 2.957h-0.010zM40.413 12.981c0-1.981-1.528-3.426-3.842-3.426h-4.464l-3.403 12.613h2.822l1.246-4.649h2.455c2.805 0 5.174-1.835 5.174-4.538h0.010z"></path>
<path fill="#fff" d="M44.079 13.752l0.312-1.171c0.158-0.611 0.426-1.661 0.8-2.86s1.106-2.019 2.060-2.019c0.46 0 0.745 0.215 0.745 0.58s-0.343 0.625-0.343 1.265c0.006 0.183 0.048 0.364 0.125 0.53s0.186 0.315 0.321 0.438c0.135 0.122 0.293 0.216 0.465 0.275s0.353 0.082 0.534 0.068c0.235 0.001 0.468-0.045 0.685-0.135s0.415-0.223 0.582-0.39c0.167-0.167 0.299-0.367 0.39-0.586s0.138-0.454 0.139-0.692c0-1.536-1.294-2.543-3.269-2.543-2.895 0-4.807 1.873-5.992 6.254l-4.848 17.811h2.747l4.179-15.438h2.846l-1.875 7.029h2.747l2.242-8.409h-5.593z"></path>
<path fill="#fff" d="M57.941 13.753h-7.252l-0.354 1.39h3.506l-5.442 7.026h7.677l0.354-1.39h-3.952l5.463-7.026z"></path>
<path fill="#fff" d="M72.297 13.607c-0.978 0-2.019 0.646-2.846 1.981l0.481-1.835h-2.747l-2.242 8.409h2.747l1.009-3.784c0.409-1.55 1.404-3.061 2.060-3.061 0.714 0 0.446 1.352 1.669 1.352 0.394-0.022 0.765-0.2 1.030-0.496s0.405-0.686 0.388-1.085c0.002-0.203-0.038-0.404-0.116-0.59s-0.194-0.354-0.34-0.494c-0.146-0.139-0.318-0.246-0.507-0.314s-0.389-0.096-0.589-0.082z"></path>
<path fill="#fff" d="M26.932 10.976c-0.893 2.592-5.967 3.68-13.37 2.78l-1.432 5.354c7.32 0.945 12.67-0.118 13.562-3.499l1.239-4.618z"></path>
<path fill="#fff" d="M4.887 5.34c10.812 0.789 21.858 6.209 20.817 10.254l0.972-3.614c0.312-1.14 0.46-1.737 0.46-2.203-0.010-4.117-10.654-9.149-20.814-9.778l-1.435 5.34z"></path>
<path fill="#fff" d="M22.242 22.161c-10.812-0.785-21.858-6.209-20.817-10.254l-0.961 3.617c-0.306 1.154-0.464 1.723-0.464 2.196 0 4.131 10.644 9.163 20.817 9.791l1.425-5.351z"></path>
</svg>
