<!-- Generated by IcoMoon.io -->
<svg version="1.1" xmlns="http://www.w3.org/2000/svg" width="32" height="32" viewBox="0 0 32 32">
<title>reset</title>
<path d="M8.052 11.4l-0.577 1h3.192c0.221 0 0.4 0.179 0.4 0.4s-0.179 0.4-0.4 0.4h-4c-0.368 0-0.667-0.298-0.667-0.667v-4c0-0.221 0.179-0.4 0.4-0.4s0.4 0.179 0.4 0.4v3.080l1.2-1.603c1.821-2.432 4.731-4.010 8-4.010 4.397 0 8.128 2.84 9.47 6.783 0.034 0.101 0.015 0.193-0.046 0.271-0.065 0.083-0.177 0.147-0.317 0.147-0.184 0-0.389-0.131-0.48-0.376-1.294-3.505-4.668-6.024-8.627-6.024-3.395 0-6.362 1.854-7.948 4.6zM23.948 20.6l0.577-1h-3.192c-0.221 0-0.4-0.179-0.4-0.4s0.179-0.4 0.4-0.4h4c0.368 0 0.667 0.299 0.667 0.667v4c0 0.221-0.179 0.4-0.4 0.4s-0.4-0.179-0.4-0.4v-3.079l-1.2 1.603c-1.821 2.431-4.731 4.010-8 4.010-4.397 0-8.128-2.84-9.47-6.783-0.034-0.101-0.015-0.193 0.046-0.271 0.065-0.083 0.177-0.147 0.317-0.147 0.184 0 0.389 0.131 0.48 0.376 1.294 3.505 4.668 6.024 8.627 6.024 3.395 0 6.362-1.854 7.948-4.6z"></path>
</svg>
