<!-- Generated by IcoMoon.io -->
<svg version="1.1" xmlns="http://www.w3.org/2000/svg" width="32" height="32" viewBox="0 0 32 32">
<title>round-check</title>
<path d="M30 16c0-7.732-6.268-14-14-14s-14 6.268-14 14c0 7.732 6.268 14 14 14s14-6.268 14-14zM32 16c0 8.837-7.163 16-16 16s-16-7.163-16-16c0-8.837 7.163-16 16-16s16 7.163 16 16zM22.73 12.684c0.378-0.403 0.357-1.036-0.046-1.413s-1.036-0.357-1.413 0.046l-6.834 7.29-3.772-3.353c-0.413-0.367-1.045-0.33-1.412 0.083s-0.33 1.045 0.083 1.412l4.5 4c0.405 0.36 1.023 0.332 1.394-0.064l7.5-8z"></path>
</svg>
