<svg width="22" height="28" viewBox="0 0 22 28" fill="none" xmlns="http://www.w3.org/2000/svg">
<path d="M19.1053 0H2.89474C1.29684 0 0 1.29684 0 2.89474V24.8947C0 26.4926 1.29684 27.7895 2.89474 27.7895H19.1053C20.7032 27.7895 22 26.4926 22 24.8947V2.89474C22 1.29684 20.7032 0 19.1053 0ZM11 26.6316C10.0389 26.6316 9.26316 25.8558 9.26316 24.8947C9.26316 23.9337 10.0389 23.1579 11 23.1579C11.9611 23.1579 12.7368 23.9337 12.7368 24.8947C12.7368 25.8558 11.9611 26.6316 11 26.6316ZM19.6842 22H2.31579V3.47368H19.6842V22Z" fill="#00A18C"/>
</svg>
