<svg width="28" height="23" viewBox="0 0 28 23" fill="none" xmlns="http://www.w3.org/2000/svg">
<path d="M0.10527 3.78948L0.10527 20C0.10527 21.5979 1.40211 22.8947 3.00001 22.8947L25 22.8947C26.5979 22.8947 27.8947 21.5979 27.8947 20L27.8947 3.78948C27.8947 2.19159 26.5979 0.894744 25 0.894744L3.00001 0.894745C1.40211 0.894745 0.105269 2.19159 0.10527 3.78948ZM26.7368 11.8947C26.7368 12.8558 25.9611 13.6316 25 13.6316C24.039 13.6316 23.2632 12.8558 23.2632 11.8947C23.2632 10.9337 24.039 10.1579 25 10.1579C25.9611 10.1579 26.7368 10.9337 26.7368 11.8947ZM22.1053 3.21053L22.1053 20.579L3.57895 20.579L3.57895 3.21053L22.1053 3.21053Z" fill="#00A18C"/>
</svg>
