<svg width="12" height="19" viewBox="0 0 12 19" fill="none" xmlns="http://www.w3.org/2000/svg">
<path d="M9.06818 0H2.15909C0.967273 0 0 0.967273 0 2.15909V16.8409C0 18.0327 0.967273 19 2.15909 19H9.06818C10.26 19 11.2273 18.0327 11.2273 16.8409V2.15909C11.2273 0.967273 10.26 0 9.06818 0ZM5.61364 18.1364C4.89682 18.1364 4.31818 17.5577 4.31818 16.8409C4.31818 16.1241 4.89682 15.5455 5.61364 15.5455C6.33045 15.5455 6.90909 16.1241 6.90909 16.8409C6.90909 17.5577 6.33045 18.1364 5.61364 18.1364ZM9.5 14.6818H1.72727V2.59091H9.5V14.6818Z" fill="#00A18C"/>
</svg>
