<svg width="19" height="12" viewBox="0 0 19 12" fill="none" xmlns="http://www.w3.org/2000/svg">
<path d="M-3.96383e-07 2.15936L-9.43769e-08 9.06845C-4.22808e-08 10.2603 0.967273 11.2275 2.15909 11.2275L16.8409 11.2275C18.0327 11.2275 19 10.2603 19 9.06845L19 2.15936C19 0.967538 18.0327 0.000265287 16.8409 0.000265339L2.15909 0.000265981C0.967272 0.000266033 -4.48479e-07 0.967539 -3.96383e-07 2.15936ZM18.1364 5.6139C18.1364 6.33072 17.5577 6.90936 16.8409 6.90936C16.1241 6.90936 15.5455 6.33072 15.5455 5.6139C15.5455 4.89708 16.1241 4.31845 16.8409 4.31845C17.5577 4.31845 18.1364 4.89708 18.1364 5.6139ZM14.6818 1.72754L14.6818 9.50027L2.59091 9.50027L2.59091 1.72754L14.6818 1.72754Z" fill="#00A18C"/>
</svg>
