<!-- Generated by IcoMoon.io -->
<svg version="1.1" xmlns="http://www.w3.org/2000/svg" width="32" height="32" viewBox="0 0 32 32">
<title>text-file</title>
<path d="M18.893 6.667l6.44 6.44v12.227h-18.667v-18.667h12.227zM18.893 4h-12.227c-1.467 0-2.667 1.2-2.667 2.667v18.667c0 1.467 1.2 2.667 2.667 2.667h18.667c1.467 0 2.667-1.2 2.667-2.667v-12.227c0-0.707-0.28-1.387-0.787-1.88l-6.44-6.44c-0.493-0.507-1.173-0.787-1.88-0.787zM9.333 20h13.333v2.667h-13.333v-2.667zM9.333 14.667h13.333v2.667h-13.333v-2.667zM9.333 9.333h9.333v2.667h-9.333v-2.667z"></path>
</svg>
