<!-- Generated by IcoMoon.io -->
<svg version="1.1" xmlns="http://www.w3.org/2000/svg" width="33" height="32" viewBox="0 0 33 32">
<title>thumb</title>
<path d="M26.507 27.444v0l-0.003 0.006c-0.299 0.717-1.006 1.216-1.838 1.216h-12c-1.098 0-2-0.901-2-2v-13.333c0-0.553 0.22-1.051 0.578-1.409l8.318-8.317 0.94 0.931c0 0 0.001 0.001 0.001 0.001 0.234 0.234 0.382 0.562 0.39 0.913l-0.033 0.355-1.426 6.859h9.233c1.099 0 2 0.901 2 2v2.667c0 0.254-0.047 0.489-0.137 0.721l-4.022 9.39zM12.195 12.862l-0.195 0.195v14.276h13.106l4.227-9.863v-3.47h-11.812l2.165-8.63-7.492 7.492zM2.667 14h4v14.667h-4v-14.667z"></path>
</svg>
