<!-- Generated by IcoMoon.io -->
<svg version="1.1" xmlns="http://www.w3.org/2000/svg" width="32" height="32" viewBox="0 0 32 32">
<title>upload-cloud</title>
<path d="M25.334 14.667c0-5.16-4.173-9.333-9.333-9.333-4.293 0-7.907 2.907-8.987 6.867-3.253 0.747-5.68 3.653-5.68 7.133 0 4.053 3.28 7.333 7.333 7.333 2.347 0 13.667 0 16 0 3.32-0.013 6-2.707 6-6.027 0-3.107-2.333-5.627-5.333-5.973zM17.334 17.334v2.667c0 0.733-0.6 1.333-1.333 1.333s-1.333-0.6-1.333-1.333v-2.667h-2.387c-0.6 0-0.893-0.72-0.467-1.133l3.72-3.72c0.267-0.267 0.68-0.267 0.947 0l3.72 3.72c0.413 0.413 0.12 1.133-0.467 1.133h-2.4z"></path>
</svg>
