<svg xmlns="http://www.w3.org/2000/svg" xmlns:xlink="http://www.w3.org/1999/xlink" width="0" height="0" style="display:none;"><symbol id="hi-angle-down"></symbol><symbol id="hi-angle-dropdown"></symbol><symbol id="hi-angle-left"></symbol><symbol viewBox="0 0 32 32" id="hi-angle-right">
<path d="M9.841 28.013c0.653 0.653 1.707 0.653 2.36 0l11.080-11.080c0.52-0.52 0.52-1.36 0-1.88l-11.080-11.080c-0.653-0.653-1.707-0.653-2.36 0s-0.653 1.707 0 2.36l9.653 9.667-9.667 9.667c-0.64 0.64-0.64 1.707 0.013 2.347z"></path>
</symbol><symbol viewBox="0 0 24 24" id="hi-angle-up">
    <path d="M21.01 16.62C21.5 16.13 21.5 15.34 21.01 14.85L12.7 6.54001C12.31 6.15001 11.68 6.15001 11.29 6.54001L2.98 14.85C2.49 15.34 2.49 16.13 2.98 16.62C3.47 17.11 4.26 17.11 4.75 16.62L12 9.38001L19.25 16.63C19.73 17.11 20.53 17.11 21.01 16.62Z"></path>
</symbol><symbol id="hi-arrow-down"></symbol><symbol id="hi-arrow-left"></symbol><symbol id="hi-arrow-right"></symbol><symbol id="hi-arrow-up-down"></symbol><symbol id="hi-arrow-up"></symbol><symbol id="hi-bell"></symbol><symbol id="hi-calendar"></symbol><symbol id="hi-cancel"></symbol><symbol id="hi-close"></symbol><symbol id="hi-delete"></symbol><symbol id="hi-diagram"></symbol><symbol id="hi-dots-horizontal"></symbol><symbol id="hi-dots-vertical"></symbol><symbol id="hi-download-file"></symbol><symbol id="hi-download"></symbol><symbol id="hi-edit"></symbol><symbol id="hi-envelope-o"></symbol><symbol id="hi-envelope-o1"></symbol><symbol id="hi-estimate"></symbol><symbol id="hi-exclamation"></symbol><symbol id="hi-feedback"></symbol><symbol id="hi-file"></symbol><symbol id="hi-github"></symbol><symbol id="hi-hide"></symbol><symbol id="hi-icon-3d-vista"></symbol><symbol id="hi-icon-arrow-close"></symbol><symbol id="hi-icon-arrow-small"></symbol><symbol id="hi-icon-arrow"></symbol><symbol id="hi-icon-audit-log"></symbol><symbol id="hi-icon-backup"></symbol><symbol id="hi-icon-calender"></symbol><symbol id="hi-icon-checkmark"></symbol><symbol id="hi-icon-copy"></symbol><symbol id="hi-icon-crossmark"></symbol><symbol id="hi-icon-custom-html-abe"></symbol><symbol id="hi-icon-custom-html-statista"></symbol><symbol id="hi-icon-double-arrows"></symbol><symbol id="hi-icon-download"></symbol><symbol id="hi-icon-edit"></symbol><symbol id="hi-icon-excel"></symbol><symbol viewBox="0 0 16 16" id="hi-icon-export-v2">
<path d="M14 14.5H2H1.5V14V11.5H0.5V14C0.5 14.8239 1.17614 15.5 2 15.5H14C14.8239 15.5 15.5 14.8239 15.5 14V11.5H14.5V14V14.5H14ZM8.5 3.83V2.62619L9.35287 3.47576L11.5893 5.70358L12.2929 5L8 0.707107L3.70711 5L4.41068 5.70358L6.64713 3.47576L7.5 2.62619V3.83V11.5H8.5V3.83Z" stroke="#0000C9" stroke-opacity="0.788235"></path>
</symbol><symbol id="hi-icon-export"></symbol><symbol id="hi-icon-file"></symbol><symbol id="hi-icon-filter"></symbol><symbol id="hi-icon-filter1"></symbol><symbol id="hi-icon-folder"></symbol><symbol id="hi-icon-h5p"></symbol><symbol id="hi-icon-help"></symbol><symbol id="hi-icon-history"></symbol><symbol id="hi-icon-info-inverted"></symbol><symbol id="hi-icon-info"></symbol><symbol id="hi-icon-interactive"></symbol><symbol id="hi-icon-link"></symbol><symbol id="hi-icon-lock-close"></symbol><symbol id="hi-icon-move"></symbol><symbol id="hi-icon-permission"></symbol><symbol id="hi-icon-plus"></symbol><symbol id="hi-icon-popup-info"></symbol><symbol id="hi-icon-published"></symbol><symbol id="hi-icon-reset"></symbol><symbol id="hi-icon-search"></symbol><symbol id="hi-icon-selected"></symbol><symbol id="hi-icon-share"></symbol><symbol id="hi-icon-square"></symbol><symbol id="hi-icon-storyline"></symbol><symbol id="hi-icon-subscribe"></symbol><symbol id="hi-icon-subscription"></symbol><symbol id="hi-icon-success"></symbol><symbol id="hi-icon-tools"></symbol><symbol id="hi-icon-tooltip"></symbol><symbol id="hi-icon-trash"></symbol><symbol id="hi-icon-un-subscribe"></symbol><symbol id="hi-icon-unpublish"></symbol><symbol id="hi-icon-upload"></symbol><symbol id="hi-icon-user-edit"></symbol><symbol id="hi-icon-user-management"></symbol><symbol id="hi-icon-user"></symbol><symbol id="hi-info"></symbol><symbol id="hi-magnifier"></symbol><symbol id="hi-person"></symbol><symbol id="hi-pfizer"></symbol><symbol id="hi-plus-fill"></symbol><symbol id="hi-reset"></symbol><symbol id="hi-round-check"></symbol><symbol id="hi-square-menu-fill"></symbol><symbol id="hi-square-menu"></symbol><symbol viewBox="0 0 16 16" id="hi-star-outlined">
<g clip-path="url(#clip0_563_8159)">
<path d="M16 5.792L11.64 9.576L12.944 15.2L8 12.216L3.056 15.2L4.368 9.576L0 5.792L5.752 5.304L8 0L10.248 5.296L16 5.792zM8 10.72L11.016 12.544L10.216 9.12L12.872 6.816L9.368 6.512L8 3.28L6.64 6.504L3.136 6.808L5.792 9.112L4.992 12.536L8 10.72z" fill="#6F6F6F"></path>
</g>
</symbol><symbol id="hi-star"></symbol><symbol id="hi-text-file"></symbol><symbol id="hi-thumb"></symbol><symbol id="hi-unfold-more"></symbol><symbol id="hi-upload-cloud"></symbol><symbol viewBox="0 0 24 24" id="hi-view-outlined">
<path d="M12 7.6C15.1009 7.6 17.8664 9.304 19.2164 12C17.8664 14.696 15.1009 16.4 12 16.4C8.89909 16.4 6.13364 14.696 4.78364 12C6.13364 9.304 8.89909 7.6 12 7.6ZM12 6C7.90909 6 4.41545 8.488 3 12C4.41545 15.512 7.90909 18 12 18C16.0909 18 19.5845 15.512 21 12C19.5845 8.488 16.0909 6 12 6ZM12 10C13.1291 10 14.0455 10.896 14.0455 12C14.0455 13.104 13.1291 14 12 14C10.8709 14 9.95455 13.104 9.95455 12C9.95455 10.896 10.8709 10 12 10ZM12 8.4C9.97091 8.4 8.31818 10.016 8.31818 12C8.31818 13.984 9.97091 15.6 12 15.6C14.0291 15.6 15.6818 13.984 15.6818 12C15.6818 10.016 14.0291 8.4 12 8.4Z" fill="#0000C9" fill-opacity="0.788235"></path>
</symbol><symbol id="hi-view"></symbol></svg>