<?xml version="1.0" standalone="no"?>
<!DOCTYPE svg PUBLIC "-//W3C//DTD SVG 1.1//EN" "http://www.w3.org/Graphics/SVG/1.1/DTD/svg11.dtd" >
<svg xmlns="http://www.w3.org/2000/svg">
<defs>
  <font id="hlxico" horiz-adv-x="2312.5">
    <font-face font-family="hlxico"
      units-per-em="1000" ascent="1000"
      descent="0" />
    <missing-glyph horiz-adv-x="0" />
    <glyph glyph-name="angle-down"
      unicode="&#xEA01;"
      horiz-adv-x="1000" d="M308.75 654.375L500 463.53125L691.25 654.375L750 595.625L500 345.625L250 595.625L308.75 654.375z" />
    <glyph glyph-name="angle-dropdown"
      unicode="&#xEA02;"
      horiz-adv-x="1031.25" d="M157.90625 692.5C137.5 672.09375 137.5 639.15625 157.90625 618.75L504.15625 272.5C520.40625 256.25 546.65625 256.25 562.9062499999999 272.5L909.1562499999998 618.75C929.5624999999998 639.15625 929.5624999999998 672.09375 909.1562499999998 692.5S855.8124999999999 712.90625 835.4062499999999 692.5L533.3124999999999 390.8437499999999L231.2187499999999 692.9375C211.2187499999999 712.9375 177.8749999999999 712.9375 157.8749999999999 692.53125z" />
    <glyph glyph-name="angle-left"
      unicode="&#xEA03;"
      horiz-adv-x="1000" d="M692.4375 875.40625C672.0312500000001 895.8125 639.09375 895.8125 618.6875 875.40625L272.4375000000001 529.15625C256.1875000000001 512.90625 256.1875000000001 486.65625 272.4375000000001 470.40625L618.6875 124.15625C639.09375 103.75 672.0312500000001 103.75 692.4375 124.15625S712.84375 177.5 692.4375 197.90625L390.78125 500L692.875 802.09375C712.875 822.09375 712.875 855.4375 692.46875 875.4375z" />
    <glyph glyph-name="angle-right"
      unicode="&#xEA04;"
      horiz-adv-x="1000" d="M307.53125 124.59375C327.9375 104.1875 360.875 104.1875 381.28125 124.59375L727.53125 470.84375C743.78125 487.09375 743.78125 513.34375 727.53125 529.59375L381.28125 875.84375C360.875 896.25 327.9375 896.25 307.53125 875.84375S287.125 822.5 307.53125 802.09375L609.1875 500L307.09375 197.90625C287.09375 177.9062499999999 287.09375 144.5624999999999 307.5 124.5624999999999z" />
    <glyph glyph-name="angle-up"
      unicode="&#xEA05;"
      horiz-adv-x="1000" d="M875.4166666666666 307.5C895.8333333333333 327.9166666666668 895.8333333333333 360.8333333333334 875.4166666666666 381.25L529.1666666666666 727.4995833333334C512.9166666666666 743.7495833333334 486.6666666666666 743.7495833333334 470.4166666666666 727.4995833333334L124.1666666666667 381.25C103.75 360.8333333333334 103.75 327.9166666666668 124.1666666666667 307.5C144.5833333333334 287.0833333333334 177.5 287.0833333333334 197.9166666666667 307.5L500 609.16625L802.0833333333333 307.0833333333334C822.0833333333333 287.0833333333334 855.4166666666666 287.0833333333334 875.4166666666666 307.5z" />
    <glyph glyph-name="arrow-down"
      unicode="&#xEA06;"
      horiz-adv-x="1000" d="M728.65625 433.4375C740.9375 447.78125 740.9375 468.9062500000001 728.65625 483.2500000000001C713.40625 501.0625000000001 685.875 501.0625000000001 670.59375 483.2812500000001L541.6875 333.34375V791.6875C541.6875 814.6875 523.03125 833.34375 500.0312500000001 833.34375S458.3750000000001 814.6875 458.3750000000001 791.6875V332.1875000000001L329.5625000000001 483.2812500000001C314.2500000000001 501.2187500000001 286.53125 501.2187500000001 271.2500000000001 483.2500000000001C259.0312500000001 468.9062500000001 259.0625000000001 447.8125000000001 271.3437500000001 433.5000000000001L468.40625 203.5937500000001C485.03125 184.1875000000002 515.0625 184.1875000000002 531.6875 203.5937500000001L728.71875 433.4375000000001z" />
    <glyph glyph-name="arrow-left"
      unicode="&#xEA07;"
      horiz-adv-x="1000" d="M833.34375 500C833.34375 523 814.6875 541.65625 791.6875000000001 541.65625H327.0937500000001L530.4375000000001 745C546.9062500000001 761.46875 546.4375000000001 788.46875 529.6875000000001 804.65625C513.3437500000001 820.4375 487.1250000000001 820.4375 471.0625000000001 804.375L196.1562500000001 529.46875C179.8750000000001 513.1874999999999 179.8750000000001 486.8125 196.1562500000001 470.53125L470.7812500000001 195.90625C486.9375000000001 179.75 513.0937500000001 179.75 529.2500000000001 195.90625C545.3437500000001 212 545.4062500000001 238.0625 529.3750000000001 254.25L327.0937500000002 458.3437499999999H791.6875000000002C814.6875000000002 458.3437499999999 833.3437500000001 477 833.3437500000001 499.9999999999999z" />
    <glyph glyph-name="arrow-right"
      unicode="&#xEA08;"
      horiz-adv-x="1000" d="M687.65625 556.40625L723.21875 520.84375H208.3437500000001C196.84375 520.84375 187.5000000000001 511.5 187.5000000000001 500S196.8125000000001 479.15625 208.3437500000001 479.15625H722.9062500000001L485.4375000000001 239.5624999999999C477.5000000000001 231.5312499999999 477.5312500000001 218.5937499999999 485.5000000000001 210.625S506.5000000000001 202.625 514.5000000000001 210.625L789.1250000000001 485.25C797.2500000000001 493.375 797.2500000000001 506.5937499999999 789.1250000000001 514.71875L514.2187500000001 789.625C506.3125000000001 797.53125 493.1250000000001 797.6875 484.7812500000001 789.65625C476.2500000000001 781.40625 476.1875000000001 767.8125 484.2812500000001 759.71875L687.625 556.375z" />
    <glyph glyph-name="arrow-up-down"
      unicode="&#xEA09;"
      horiz-adv-x="1000" d="M804.21875 303.875C820.3125 320.1875 820.25 346.40625 804.03125 362.625L800.28125 366.375C783.9999999999999 382.65625 757.625 382.65625 741.34375 366.375L708.3125 333.34375V541.6875C708.3125 564.6875 689.65625 583.34375 666.6562500000001 583.34375S625.0000000000001 564.6875 625.0000000000001 541.6875V333.34375L591.9687500000001 366.375C575.6875000000001 382.65625 549.3125000000002 382.65625 533.0312500000002 366.375L529.6250000000001 362.96875C513.2812500000001 346.625 513.3750000000001 320.09375 529.8125000000001 303.8749999999999L639.0312500000001 195.9687499999999C655.4062500000002 179.7812499999999 681.7812500000001 179.9374999999999 697.9687500000001 196.3124999999999L804.2187500000001 303.8749999999999zM195.78125 696.125C179.6875 679.8125 179.75 653.59375 195.96875 637.375L199.71875 633.625C216 617.34375 242.375 617.34375 258.65625 633.625L291.6875 666.65625V458.3125000000001C291.6875 435.3125000000001 310.34375 416.6562500000003 333.34375 416.6562500000003S375 435.3125000000003 375 458.3125000000001V666.6562500000001L408.03125 633.6250000000001C424.3125000000001 617.34375 450.6875 617.34375 466.96875 633.6250000000001L470.375 637.0312500000001C486.71875 653.3750000000001 486.625 679.9062500000001 470.1875 696.1250000000001L360.96875 804.0312500000001C344.59375 820.2187500000001 318.21875 820.0312500000001 302.03125 803.6875000000001L195.78125 696.1250000000001z" />
    <glyph glyph-name="arrow-up"
      unicode="&#xEA0A;"
      horiz-adv-x="1000" d="M271.34375 566.5625C259.0625 552.21875 259.0625 531.09375 271.34375 516.75C286.59375 498.9375000000001 314.125 498.9375000000001 329.40625 516.71875L458.3125 666.65625V208.3125000000001C458.3125 185.3125000000001 476.96875 166.6562500000002 499.96875 166.6562500000002S541.625 185.3125000000002 541.625 208.3125000000001V666.6562500000001L670.34375 516.5937500000001C685.6875 498.6875000000002 713.40625 498.7500000000001 728.6875 516.7187500000001C740.9375 531.0937500000001 740.8750000000001 552.2500000000001 728.59375 566.5625000000001L531.5625 796.4375000000001C514.9375 815.8437500000001 484.9062500000001 815.8437500000001 468.2812500000001 796.4375000000001L271.2500000000001 566.5937500000001z" />
    <glyph glyph-name="bell"
      unicode="&#xEA0B;"
      horiz-adv-x="906.25" d="M725 587.875V345.4375L814.65625 258.5C821.28125 252.09375 825 243.25 825 234.0312499999999C825 215.2187499999999 809.75 199.9687499999999 790.9375 199.9687499999999H59.0624999999999C40.2499999999999 199.9687499999999 24.9999999999999 215.2187499999999 24.9999999999999 234.0312499999999C24.9999999999999 243.25 28.7187499999999 252.0624999999999 35.3437499999999 258.5L124.9999999999999 345.4375V587.875C124.9999999999999 737.21875 206.9999999999999 861.3437499999999 350 894.3124999999999V927.2812499999998C350 967.5312499999998 383.5 999.9999999999998 425 999.9999999999998S499.9999999999999 967.4999999999998 499.9999999999999 927.2812499999998V894.3124999999999C643.5 861.3437499999999 725 736.7499999999999 725 587.875zM225 296.96875H625V587.875C625 708.125 549.5 806.0625 425 806.0625S225 708.125 225 587.875V296.96875zM425 0C480 0 525 45 525 100H325C325 44.9999999999999 370 0 425.0000000000001 0z" />
    <glyph glyph-name="calendar"
      unicode="&#xEA0C;"
      horiz-adv-x="1000" d="M791.65625 833.34375H750V916.6875H666.65625V833.34375H333.3125V916.6875H249.96875V833.34375H208.3125C162.0625 833.34375 125.40625 795.84375 125.40625 750L125 166.65625C125 120.8125 162.09375 83.3124999999999 208.34375 83.3124999999999H791.6875C837.53125 83.3124999999999 875.0312499999999 120.8124999999999 875.0312499999999 166.65625V750C875.0312499999999 795.84375 837.53125 833.34375 791.6874999999999 833.34375zM791.65625 166.65625H208.3124999999999V583.3125H791.65625V166.65625zM791.65625 666.65625H208.3124999999999V750H791.65625V666.65625zM375 416.65625H291.65625V500H375V416.65625zM541.65625 416.65625H458.3124999999999V500H541.65625V416.65625zM708.34375 416.65625H625V500H708.34375V416.65625zM375 250H291.65625V333.34375H375V250zM541.65625 250H458.3124999999999V333.34375H541.65625V250zM708.34375 250H625V333.34375H708.34375V250z" />
    <glyph glyph-name="cancel"
      unicode="&#xEA0D;"
      horiz-adv-x="1062.5" d="M1016.28125 977.0625C986.71875 1006.65625 938.90625 1006.65625 909.34375 977.0625L538.46875 606.9375L167.59375 977.8125C138 1007.40625 90.21875 1007.40625 60.65625 977.8125S31.0625 900.4375 60.65625 870.875L431.5312500000001 500L60.65625 129.1249999999999C31.0625 99.5624999999999 31.0625 51.75 60.65625 22.1874999999999S138.03125 -7.3750000000001 167.59375 22.1874999999999L538.46875 393.0624999999999L909.3437500000002 22.1874999999998C938.9062500000002 -7.3750000000001 986.7187500000002 -7.3750000000001 1016.28125 22.1874999999998S1045.84375 99.5624999999998 1016.28125 129.1249999999998L645.40625 499.9999999999998L1016.28125 870.8749999999998C1045.09375 899.6874999999998 1045.09375 948.2499999999998 1016.28125 977.0624999999998z" />
    <glyph glyph-name="close"
      unicode="&#xEA0E;"
      horiz-adv-x="1000" d="M779.65625 737.5625C763.625 753.59375 737.75 753.59375 721.7187500000001 737.5625L520.8125000000001 537.09375L319.9062500000001 738C303.8750000000001 754.03125 278.0000000000001 754.03125 261.9687500000001 738S245.9375000000001 696.09375 261.9687500000001 680.0625L462.8750000000001 479.15625L261.9687500000001 278.2499999999999C245.9375000000001 262.2187499999999 245.9375000000001 236.3437499999999 261.9687500000001 220.3124999999999S303.8750000000001 204.2812499999999 319.9062500000001 220.3124999999999L520.8125000000001 421.21875L721.7187500000002 220.3124999999999C737.7500000000002 204.2812499999999 763.6250000000002 204.2812499999999 779.6562500000001 220.3124999999999S795.6875000000002 262.21875 779.6562500000001 278.2499999999999L578.7500000000001 479.15625L779.6562500000001 680.0625C795.2812500000001 695.6875 795.2812500000001 721.96875 779.6562500000001 737.5625z" />
    <glyph glyph-name="delete"
      unicode="&#xEA0F;"
      horiz-adv-x="1000" d="M271.875 125Q246.09375 125 227.75 143.34375T209.375 187.5V781.25H166.65625V843.75H362.5V875H637.5V843.75H833.3437499999999V781.25H790.6249999999999V187.5Q790.6249999999999 162.5 771.8749999999999 143.75T728.1249999999999 125H271.875zM728.125 781.25H271.8750000000001V187.5H728.125V781.25zM382.28125 277.09375H444.78125V692.71875H382.28125V277.09375zM555.21875 277.09375H617.71875V692.71875H555.21875V277.09375zM271.875 781.25V781.25z" />
    <glyph glyph-name="diagram"
      unicode="&#xEA10;"
      horiz-adv-x="1000" d="M125 250H375V333.34375H125V250zM125 750V666.65625H875V750H125zM125 458.34375H625V541.6875H125V458.34375z" />
    <glyph glyph-name="dots-horizontal"
      unicode="&#xEA11;"
      horiz-adv-x="1000" d="M312.5 500C312.5 465.46875 284.53125 437.5 250 437.5S187.5 465.46875 187.5 500C187.5 534.53125 215.46875 562.5 250 562.5S312.5 534.53125 312.5 500zM562.5 500C562.5 465.46875 534.53125 437.5 500 437.5S437.5 465.46875 437.5 500C437.5 534.53125 465.46875 562.5 500 562.5S562.5 534.53125 562.5 500zM812.5 500C812.5 465.46875 784.53125 437.5 750 437.5S687.5 465.46875 687.5 500C687.5 534.53125 715.46875 562.5 750 562.5S812.5 534.53125 812.5 500z" />
    <glyph glyph-name="dots-vertical"
      unicode="&#xEA12;"
      horiz-adv-x="1000" d="M500 687.5C465.46875 687.5 437.5 715.46875 437.5 750S465.46875 812.5 500 812.5C534.53125 812.5 562.5 784.53125 562.5 750S534.53125 687.5 500 687.5zM500 437.5C465.46875 437.5 437.5 465.46875 437.5 500S465.46875 562.5 500 562.5C534.53125 562.5 562.5 534.53125 562.5 500S534.53125 437.5 500 437.5zM500 187.5C465.46875 187.5 437.5 215.46875 437.5 250S465.46875 312.5 500 312.5C534.53125 312.5 562.5 284.53125 562.5 250S534.53125 187.5 500 187.5z" />
    <glyph glyph-name="download-file"
      unicode="&#xEA13;"
      horiz-adv-x="1000" d="M750 375V250H250V375H166.65625V250C166.65625 204.15625 204.15625 166.65625 250 166.65625H750C795.84375 166.65625 833.34375 204.1562499999999 833.34375 250V375H750zM708.34375 541.65625L649.5937500000001 600.40625L541.6875000000001 492.90625V833.3125H458.3437500000001V492.90625L350.4375000000001 600.40625L291.6875000000001 541.65625L500.0312500000002 333.3124999999999L708.3750000000002 541.6562499999999z" />
    <glyph glyph-name="download"
      unicode="&#xEA14;"
      horiz-adv-x="1000" d="M362.75 470.59375L470.53125 362.8125C486.8125000000001 346.53125 513.1875 346.53125 529.46875 362.8125L637.2500000000001 470.5937499999999C653.5000000000001 486.8437499999999 653.5000000000001 513.1874999999999 637.2500000000001 529.4374999999999C621.0312500000001 545.6562499999999 594.7500000000001 545.6874999999999 578.5000000000001 529.5312499999999L541.6562500000002 492.9374999999999V791.6875C541.6562500000002 814.6874999999999 523.0000000000001 833.34375 500.0000000000002 833.34375S458.3437500000002 814.6875 458.3437500000002 791.6875V492.9374999999999L421.5000000000003 529.5312499999999C405.2500000000003 545.6874999999999 378.9687500000002 545.6562499999999 362.7500000000003 529.4374999999999C346.5000000000003 513.1874999999999 346.5000000000003 486.8437499999999 362.7500000000003 470.5937499999999zM208.34375 250C185.34375 250 166.6875 231.34375 166.6875 208.34375S185.34375 166.6875000000001 208.34375 166.6875000000001H791.6875000000001C814.6875000000001 166.6875000000001 833.34375 185.3437500000001 833.34375 208.34375S814.6875 250 791.6875000000001 250H208.3437500000001zM470.53125 362.78125V362.78125zM362.75 470.59375V470.59375zM637.25 529.40625V529.40625zM578.5 529.5V529.5zM541.65625 492.90625H499.9999999999999V392.7499999999999L571.03125 463.34375L541.65625 492.90625zM458.34375 492.90625L428.96875 463.34375L500 392.7499999999999V492.9062499999999H458.34375zM421.5 529.5V529.5zM500 392.25L392.21875 500.03125L333.2812500000001 441.09375L441.0625 333.3124999999999L500 392.2499999999999zM500 392.25V392.25L441.0625 333.3125C473.5937500000001 300.78125 526.375 300.78125 558.90625 333.3125L499.9687500000001 392.25zM607.78125 500.03125L500 392.25L558.9375 333.3125L666.71875 441.0937500000001L607.78125 500.0312500000001zM607.78125 499.9687499999999C607.8125000000001 499.9374999999999 607.8125000000001 499.9374999999999 607.8125000000001 499.9374999999999S607.78125 499.9687499999999 607.78125 499.9999999999999S607.78125 500.0312499999999 607.78125 499.9999999999999S607.78125 499.9687499999998 607.78125 499.9999999999999S607.8125000000001 500.0312499999999 607.8125000000001 500.0624999999999S607.8125000000001 500.0937499999999 607.78125 500.0312499999999L666.71875 441.09375C699.25 473.625 699.25 526.34375 666.71875 558.875L607.78125 499.9374999999999zM607.875 499.9687499999999C607.9062500000001 500 607.9062500000001 500 607.9062500000001 500S607.875 499.9687499999999 607.8437500000001 499.9687499999999S607.8125000000001 499.9687499999999 607.8437500000001 499.9687499999999S607.8750000000001 499.9687499999999 607.8437500000001 499.9687499999999S607.8125000000001 500 607.7812500000001 500S607.7812500000001 500 607.8125000000002 499.9687499999999L666.7500000000002 558.90625C634.3125000000001 591.34375 581.7187500000002 591.4375 549.1562500000002 559.09375L607.9062500000002 499.9687499999999zM571.03125 463.375L607.875 499.9687499999999L549.125 559.09375L512.28125 522.5L571.03125 463.40625zM500 791.65625V492.90625H583.34375V791.65625H500zM500 791.65625V791.65625H583.34375C583.34375 837.6875 546.0312500000001 875 500 875V791.65625zM500 791.65625V791.65625V875C453.96875 875 416.65625 837.6875 416.65625 791.65625H500zM500 492.90625V791.65625H416.65625V492.90625H500zM392.125 499.9687499999999L428.9375 463.375L487.6874999999999 522.46875L450.8437499999999 559.0625L392.0937499999999 499.9374999999999zM392.21875 499.9687499999999C392.25 500 392.25 500 392.25 500S392.21875 499.9687499999999 392.1875 499.9687499999999S392.15625 499.9687499999999 392.1875 499.9687499999999S392.21875 499.9687499999999 392.1875 499.9687499999999S392.15625 500 392.125 500S392.125 500 392.15625 499.9687499999999L450.9062499999999 559.09375C418.34375 591.4375 365.78125 591.34375 333.3125 558.90625L392.25 499.9687499999999zM392.21875 500.03125C392.1875 500.0624999999999 392.1875 500.0624999999999 392.1875 500.0624999999999S392.21875 500.03125 392.21875 500S392.21875 499.9687499999999 392.21875 500S392.21875 500.03125 392.21875 500S392.1875 499.9687499999999 392.1875 499.9375000000001S392.1875 499.90625 392.21875 499.9687500000001L333.2812500000001 558.90625C300.75 526.375 300.75 473.65625 333.2812500000001 441.125L392.21875 500.0624999999999zM208.34375 208.34375V291.6875000000001C162.3125 291.6875000000001 125 254.3750000000001 125 208.34375H208.34375zM208.34375 208.34375H125C125 162.3125000000001 162.3125 125 208.34375 125V208.34375zM791.65625 208.34375H208.3124999999999V125H791.65625V208.34375zM791.65625 208.34375V125C837.6874999999999 125 875 162.3125 875 208.34375H791.65625zM791.65625 208.34375H875C875 254.375 837.6875 291.6875000000001 791.65625 291.6875000000001V208.34375zM208.34375 208.34375H791.6875000000001V291.6875000000001H208.3437500000001V208.34375z" />
    <glyph glyph-name="edit"
      unicode="&#xEA15;"
      horiz-adv-x="1000" d="M863 734.28125L833.84375 705.125L746.78125 792.1875L775.9375 821.34375C791.9375 837.34375 817.8124999999999 837.34375 833.84375 821.34375L863 792.1875C879.03125 776.1875 879.03125 750.3125 863 734.28125zM717.625 763L804.6875 675.9375L587.0625 458.3125H500L502.375 540.4375L717.625 763zM250 166.65625H750C796.03125 166.65625 833.34375 203.9687499999999 833.34375 250V480.5625C833.34375 503.5625 814.6875 522.21875 791.6875000000001 522.21875S750.0312500000001 503.5625 750.0312500000001 480.5625V250H250.0312500000002V750H572.9375000000001C595.9375000000001 750 614.59375 768.65625 614.59375 791.65625S595.9375 833.3125 572.9375000000001 833.3125H250.0312500000001C204.0000000000001 833.3125 166.6875000000001 796 166.6875000000001 749.96875V249.9687500000001C166.6875000000001 203.9375000000001 204.0000000000001 166.625 250.0312500000001 166.625z" />
    <glyph glyph-name="envelope-o"
      unicode="&#xEA16;"
      horiz-adv-x="1000" d="M928.5714285714286 160.7142857142857V589.2857142857142C916.8571428571428 575.8928571428571 904.0000000000002 563.6071428571429 890.0714285714287 552.4642857142857C810.2857142857144 491.0714285714286 729.9285714285716 428.5714285714286 652.3571428571429 363.8571428571428C610.5000000000001 328.7142857142857 558.6071428571429 285.7142857142857 500.5714285714287 285.7142857142857H499.4642857142858C441.4285714285715 285.7142857142857 389.5357142857144 328.6785714285715 347.6785714285715 363.8571428571428C270.1071428571429 428.6071428571428 189.7500000000001 491.1071428571428 109.9642857142858 552.4642857142856C96.0000000000001 563.6428571428571 83.1785714285715 575.8928571428571 71.4642857142858 589.2857142857142V160.7142857142857C71.4642857142858 151.2142857142858 79.8214285714286 142.8571428571429 89.3214285714286 142.8571428571429H910.7500000000002C920.2500000000002 142.8571428571429 928.6071428571428 151.2142857142858 928.6071428571428 160.7142857142857zM928.5714285714286 747.2142857142857C928.5714285714286 761.1785714285714 931.9285714285714 785.7142857142858 910.7142857142858 785.7142857142858H89.2857142857143C79.7857142857143 785.7142857142858 71.4285714285714 777.3571428571429 71.4285714285714 767.8571428571429C71.4285714285714 704.25 103.25 649 153.4642857142858 609.3571428571429C228.25 550.75 303.0357142857143 491.6071428571429 377.2500000000001 432.4642857142858C406.8214285714286 408.4642857142858 460.3928571428572 357.1428571428571 499.4642857142858 357.1428571428571H500.5714285714287C539.6428571428572 357.1428571428571 593.2142857142859 408.4642857142858 622.7857142857143 432.4642857142857C697.0000000000001 491.6071428571429 771.7857142857144 550.7857142857142 846.5714285714287 609.3571428571429C882.8571428571429 637.8214285714287 928.6071428571428 699.75 928.6071428571428 747.1785714285714zM1000 767.8571428571429V160.7142857142857C1000 111.6071428571428 959.8214285714286 71.4285714285715 910.7142857142858 71.4285714285715H89.2857142857143C40.1785714285714 71.4285714285715 0 111.6071428571428 0 160.7142857142857V767.8571428571429C0 816.9642857142858 40.1785714285714 857.1428571428571 89.2857142857143 857.1428571428571H910.7142857142858C959.8214285714286 857.1428571428571 1000 816.9642857142858 1000 767.8571428571429z" />
    <glyph glyph-name="envelope-o1"
      unicode="&#xEA17;"
      horiz-adv-x="1000" d="M928.5714285714286 160.7142857142857V589.2857142857142C916.8571428571428 575.8928571428571 904.0000000000002 563.6071428571429 890.0714285714287 552.4642857142857C810.2857142857144 491.0714285714286 729.9285714285716 428.5714285714286 652.3571428571429 363.8571428571428C610.5000000000001 328.7142857142857 558.6071428571429 285.7142857142857 500.5714285714287 285.7142857142857H499.4642857142858C441.4285714285715 285.7142857142857 389.5357142857144 328.6785714285715 347.6785714285715 363.8571428571428C270.1071428571429 428.6071428571428 189.7500000000001 491.1071428571428 109.9642857142858 552.4642857142856C96.0000000000001 563.6428571428571 83.1785714285715 575.8928571428571 71.4642857142858 589.2857142857142V160.7142857142857C71.4642857142858 151.2142857142858 79.8214285714286 142.8571428571429 89.3214285714286 142.8571428571429H910.7500000000002C920.2500000000002 142.8571428571429 928.6071428571428 151.2142857142858 928.6071428571428 160.7142857142857zM928.5714285714286 747.2142857142857C928.5714285714286 761.1785714285714 931.9285714285714 785.7142857142858 910.7142857142858 785.7142857142858H89.2857142857143C79.7857142857143 785.7142857142858 71.4285714285714 777.3571428571429 71.4285714285714 767.8571428571429C71.4285714285714 704.25 103.25 649 153.4642857142858 609.3571428571429C228.25 550.75 303.0357142857143 491.6071428571429 377.2500000000001 432.4642857142858C406.8214285714286 408.4642857142858 460.3928571428572 357.1428571428571 499.4642857142858 357.1428571428571H500.5714285714287C539.6428571428572 357.1428571428571 593.2142857142859 408.4642857142858 622.7857142857143 432.4642857142857C697.0000000000001 491.6071428571429 771.7857142857144 550.7857142857142 846.5714285714287 609.3571428571429C882.8571428571429 637.8214285714287 928.6071428571428 699.75 928.6071428571428 747.1785714285714zM1000 767.8571428571429V160.7142857142857C1000 111.6071428571428 959.8214285714286 71.4285714285715 910.7142857142858 71.4285714285715H89.2857142857143C40.1785714285714 71.4285714285715 0 111.6071428571428 0 160.7142857142857V767.8571428571429C0 816.9642857142858 40.1785714285714 857.1428571428571 89.2857142857143 857.1428571428571H910.7142857142858C959.8214285714286 857.1428571428571 1000 816.9642857142858 1000 767.8571428571429z" />
    <glyph glyph-name="estimate"
      unicode="&#xEA18;"
      horiz-adv-x="1000" d="M791.65625 875H208.3124999999999C162.4687499999999 875 124.9687499999999 837.5 124.9687499999999 791.65625V208.3124999999999C124.9687499999999 162.4687499999999 162.4687499999999 124.9687499999999 208.3124999999999 124.9687499999999H791.65625C837.4999999999999 124.9687499999999 875 162.4687499999998 875 208.3124999999999V791.65625C875 837.5 837.5 875 791.65625 875zM791.65625 208.34375H208.3124999999999V791.6875000000001H791.65625V208.34375zM468.75 678.34375H260.40625V615.84375H468.75V678.34375zM750 343.75H541.65625V281.25H750V343.75zM750 447.90625H541.65625V385.40625H750V447.90625zM333.34375 250H395.84375V333.34375H479.1875V395.84375H395.84375V479.1875000000001H333.34375V395.84375H250V333.34375H333.34375V250zM587.0625 543.75L645.8125 602.5L704.5625 543.75L748.71875 587.90625L689.96875 647.0625000000001L748.71875 705.8125L704.5625 749.9687500000001L645.8125 691.2187500000001L587.0625 749.9687500000001L542.90625 705.8125L601.65625 647.0625000000001L542.90625 587.90625L587.0625 543.75z" />
    <glyph glyph-name="exclamation"
      unicode="&#xEA19;"
      horiz-adv-x="1000" d="M458.3125 375H541.65625V291.65625H458.3124999999999V375zM458.3125 708.34375H541.65625V458.34375H458.3124999999999V708.34375zM499.5625 916.6875C269.5625000000001 916.6875 83.3125 730.03125 83.3125 500.03125S269.5625000000001 83.375 499.5625 83.375C729.96875 83.375 916.65625 270.03125 916.65625 500.03125S730 916.6875 499.5624999999999 916.6875zM500 166.6875C315.84375 166.6875 166.65625 315.84375 166.65625 500.03125S315.8125 833.375 500 833.375C684.15625 833.375 833.34375 684.21875 833.34375 500.03125S684.1875000000001 166.6875 500 166.6875z" />
    <glyph glyph-name="feedback"
      unicode="&#xEA1A;"
      horiz-adv-x="1000" d="M833.34375 791.65625H166.6875000000001V291.65625H500.0312500000002L708.3750000000002 145.8124999999999V291.65625H833.3750000000002V791.65625zM333.34375 625H666.6875zM333.34375 458.34375H520.84375z" />
    <glyph glyph-name="file"
      unicode="&#xEA1B;"
      horiz-adv-x="1000" d="M583.34375 916.65625H250.0000000000001C204.15625 916.65625 167.09375 879.15625 167.09375 833.3125L166.6875000000001 166.6562500000001C166.6875000000001 120.8125000000001 203.7812500000001 83.3125000000001 249.5937500000001 83.3125000000001H750.0000000000001C795.8437500000001 83.3125000000001 833.34375 120.8125000000001 833.34375 166.6562500000002V666.6562500000002L583.34375 916.6562500000002zM750 166.65625H250V833.3124999999999H541.65625V624.9687499999999H750V166.6249999999999zM362.75 404C346.5000000000001 387.75 346.5000000000001 361.40625 362.75 345.15625C378.96875 328.9375000000001 405.25 328.9062500000001 421.5 345.0625L458.34375 381.65625V250C458.34375 227 477 208.34375 500 208.34375S541.65625 227.0000000000001 541.65625 250V381.65625L578.3437499999999 344.96875C594.6562499999999 328.6562500000001 621.1874999999999 328.7500000000001 637.4374999999999 345.125C653.5937499999999 361.375 653.6249999999999 387.6875 637.4687499999999 403.9375000000001L529.9062499999999 512.0625000000001C513.6562499999999 528.40625 487.2187499999999 528.4375000000001 470.9062499999999 512.1250000000001L362.78125 404.0000000000001z" />
    <glyph glyph-name="github"
      unicode="&#xEA1C;"
      horiz-adv-x="1000" d="M500 987.625C223.75 987.625 0 763.75 0 487.625C0 266.65625 143.25 79.28125 341.875 13.25C366.875 8.53125 376.03125 24 376.03125 37.2812499999999C376.03125 49.1562499999999 375.625 80.625 375.40625 122.2812499999999C236.3125 92.1249999999999 207 189.3749999999999 207 189.3749999999999C184.25 247.0937499999999 151.375 262.4999999999999 151.375 262.4999999999999C106.09375 293.4999999999999 154.875 292.8749999999999 154.875 292.8749999999999C205.09375 289.3749999999999 231.46875 241.3749999999999 231.46875 241.3749999999999C276.0625 164.9062499999999 348.5000000000001 187 377.09375 199.7812499999999C381.59375 232.1249999999999 394.4687500000001 254.1562499999999 408.75 266.6562499999999C297.7187500000001 279.1562499999999 181 322.1562499999999 181 513.75C181 568.34375 200.375 612.90625 232.46875 647.9062499999999C226.84375 660.5312499999999 209.96875 711.375 236.84375 780.2499999999999C236.84375 780.2499999999999 278.71875 793.6562499999999 374.34375 729C414.34375 740.125 456.84375 745.6249999999999 499.34375 745.875C541.84375 745.625 584.3437499999999 740.125 624.34375 729C719.34375 793.65625 761.21875 780.25 761.21875 780.25C788.0937499999999 711.375 771.21875 660.53125 766.21875 647.90625C798.0937499999999 612.90625 817.46875 568.3125 817.46875 513.75C817.46875 321.65625 700.5937499999999 279.3749999999999 589.34375 267.0937499999999C606.8437499999999 252.0937499999999 623.09375 221.4375 623.09375 174.5937499999999C623.09375 107.6874999999999 622.46875 53.9374999999999 622.46875 37.6874999999999C622.46875 24.5624999999998 631.21875 8.9374999999998 656.8437500000001 13.9374999999998C856.875 79.5312499999999 1000 267.0312499999999 1000 487.6562499999999C1000 763.7812499999999 776.125 987.6562499999998 500 987.6562499999998z" />
    <glyph glyph-name="hide"
      unicode="&#xEA1D;"
      horiz-adv-x="1000" d="M704.78125 740.0625L816.625 838.34375C822.59375 843.5625 829.96875 846.125 837.34375 846.125C854.75 846.125 868.59375 831.96875 868.59375 814.875C868.59375 806.25 865.0000000000001 797.625 858.0000000000001 791.46875L170.5000000000001 187.2499999999999C164.5937500000001 181.9999999999999 157.2187500000001 179.46875 149.8437500000001 179.46875C132.5625000000001 179.46875 118.5937500000001 193.375 118.5937500000001 210.71875C118.5937500000001 219.34375 122.1875000000001 227.9687499999999 129.1250000000001 234.1249999999999L230.7187500000001 323.4062499999999C171.8125000000001 370.5624999999999 121.2500000000001 429.7499999999999 82.9375000000001 491.2499999999999C78.9375000000001 497.8749999999999 76.9375000000001 505.34375 76.9375000000001 512.78125S78.9687500000001 527.6875 82.9687500000001 534.3125C170.9375000000001 675.5625 323.5937500000001 804.4375 493.5000000000001 804.4375C569.1250000000001 804.4375 640.8437500000001 779.71875 704.7812500000001 740.03125zM801.375 663.8125C841.65625 624.53125 876.53125 579.9375 904.5 533.9375C908.34375 527.4375 910.25 520.09375 910.25 512.8125S908.34375 498.1875 904.5 491.6875000000001C818.3437499999999 349.9062500000001 666.125 221.15625 493.5 221.15625C439.40625 221.15625 387.125 234.1875000000001 338.09375 256.5312500000001L447.4375 352.6562500000001C462.0937499999999 348.4062500000001 477.59375 346.1562500000001 493.59375 346.1562500000001C585.59375 346.1562500000001 660.25 420.8125000000001 660.25 512.8125000000002C660.25 521.4062500000002 659.59375 529.8125000000002 658.34375 538.0625000000002L801.375 663.8125000000001zM595.875 644.375C567.625 666.375 532.1250000000001 679.5 493.5937500000001 679.5C401.5937500000001 679.5 326.9375000000001 604.84375 326.9375000000001 512.84375C326.9375000000001 481.96875 335.3437500000001 453.0625 349.9687500000001 428.25L398.3125000000001 470.7187500000001C392.5937500000001 483.6250000000001 389.4375000000001 497.8437500000001 389.4375000000001 512.8437500000001C389.4375000000001 570.3437500000001 436.0937500000001 617.0000000000001 493.5937500000001 617.0000000000001C513.3437500000001 617.0000000000001 531.8437500000001 611.5000000000001 547.5937500000001 601.9062500000001L595.8750000000001 644.3750000000001z" />
    <glyph glyph-name="icon-3d-vista"
      unicode="&#xEA1E;"
      horiz-adv-x="1031.25" d="M404.71875 948.5L303.46875 897.0625L508.9375000000001 794.34375L714.4375000000001 897.0625L657.90625 925.8125C534.6875 988.5 511.46875 1000.0625 508.7500000000001 1000C507.2187500000001 999.96875 460.3750000000001 976.78125 404.6875000000001 948.5zM270.53125 714.28125L270.6875 581.59375L479.125 478.15625V742.625L270.3750000000001 846.96875L270.5312500000001 714.28125zM642.65625 794.6875L538.78125 742.625V477.21875L747.53125 581.5625V714.28125C747.53125 787.28125 747.3124999999999 846.9375 747.03125 846.875S699.78125 823.34375 642.65625 794.6875zM135.65625 470.90625L33.75 419.5625L238.5625 317.1875L339.9687500000001 367.8437499999999C395.7500000000001 395.7187499999999 441.3750000000001 419.1874999999999 441.3750000000001 419.9999999999999C441.3750000000001 421.375 239.2812500000001 523.34375 238.0937500000001 522.5625C237.8125000000001 522.375 191.7187500000001 499.1249999999999 135.6875000000001 470.8749999999999zM677.4375 471.40625C621.9375 443.4375 576.53125 420.09375 576.53125 419.53125S622.1562500000001 395.71875 677.90625 367.84375L779.3125000000001 317.1875000000001L880.7187500000001 367.84375C936.5000000000002 395.71875 982.1250000000002 419.1875 982.1250000000002 420C982.1250000000002 421.375 780.0312500000002 523.34375 778.8437500000001 522.59375C778.5625000000001 522.40625 732.9375000000001 499.375 677.4375000000001 471.40625zM0.15625 237.125L0.3125 104.4375L208.75 1V265.4687499999999L0 369.8124999999999L0.15625 237.1249999999998zM372.28125 317.5625L268.40625 265.5V0.09375L477.15625 104.4375V237.15625C477.15625 310.1562499999999 476.9375 369.8125 476.65625 369.75S429.40625 346.21875 372.28125 317.5625zM540.90625 237.125L541.0625 104.4375L749.5 1V265.4687499999999L540.7500000000001 369.8124999999999L540.90625 237.1249999999998zM913.03125 317.5625L809.15625 265.5V0.09375L1017.90625 104.4375V237.15625C1017.90625 310.1562499999999 1017.6875000000002 369.8125 1017.4062500000002 369.75S970.15625 346.21875 913.0312500000002 317.5625z" />
    <glyph glyph-name="icon-arrow-close"
      unicode="&#xEA1F;"
      horiz-adv-x="1000" d="M779.65625 737.5625C763.625 753.59375 737.75 753.59375 721.7187500000001 737.5625L520.8125000000001 537.09375L319.9062500000001 738C303.8750000000001 754.03125 278.0000000000001 754.03125 261.9687500000001 738S245.9375000000001 696.09375 261.9687500000001 680.0625L462.8750000000001 479.15625L261.9687500000001 278.2499999999999C245.9375000000001 262.2187499999999 245.9375000000001 236.3437499999999 261.9687500000001 220.3124999999999S303.8750000000001 204.2812499999999 319.9062500000001 220.3124999999999L520.8125000000001 421.21875L721.7187500000002 220.3124999999999C737.7500000000002 204.2812499999999 763.6250000000002 204.2812499999999 779.6562500000001 220.3124999999999S795.6875000000002 262.21875 779.6562500000001 278.2499999999999L578.7500000000001 479.15625L779.6562500000001 680.0625C795.2812500000001 695.6875 795.2812500000001 721.96875 779.6562500000001 737.5625z" />
    <glyph glyph-name="icon-arrow-small"
      unicode="&#xEA20;"
      horiz-adv-x="1000" d="M124.59375 692.46875C104.1875 672.0625 104.1875 639.125 124.59375 618.71875L470.84375 272.46875C487.09375 256.21875 513.34375 256.21875 529.59375 272.46875L875.84375 618.71875C896.25 639.125 896.25 672.0625 875.84375 692.46875S822.5 712.875 802.09375 692.46875L500 390.8125L197.90625 692.90625C177.90625 712.90625 144.5625 712.90625 124.5625 692.5z" />
    <glyph glyph-name="icon-arrow"
      unicode="&#xEA21;"
      horiz-adv-x="1000" d="M271.34375 566.5625C259.0625 552.21875 259.0625 531.09375 271.34375 516.75C286.59375 498.9375000000001 314.125 498.9375000000001 329.40625 516.71875L458.3125 666.65625V208.3125000000001C458.3125 185.3125000000001 476.96875 166.6562500000002 499.96875 166.6562500000002S541.625 185.3125000000002 541.625 208.3125000000001V666.6562500000001L670.34375 516.5937500000001C685.6875 498.6875000000002 713.40625 498.7500000000001 728.6875 516.7187500000001C740.9375 531.0937500000001 740.8750000000001 552.2500000000001 728.59375 566.5625000000001L531.5625 796.4375000000001C514.9375 815.8437500000001 484.9062500000001 815.8437500000001 468.2812500000001 796.4375000000001L271.2500000000001 566.5937500000001z" />
    <glyph glyph-name="icon-audit-log"
      unicode="&#xEA22;"
      horiz-adv-x="1000" d="M249.3125 750.90625H333.34375V709.6875C333.34375 686.6875 352 668.03125 375 668.03125L625 668.03125C648 668.03125 666.65625 686.6875 666.65625 709.6875V750.875H750.6875V543.59375C750.6875 520.78125 769.1874999999999 502.28125 791.9999999999999 502.28125S833.3124999999999 520.78125 833.3124999999999 543.59375V767.4375C833.3124999999999 808.46875 802.7812499999999 833.75 765.4999999999999 833.75L624.9687499999999 833.75C624.9687499999999 875.1875 551.6249999999998 916.625 499.9687499999998 916.625S373.2499999999999 875.1875 373.2499999999999 833.75H234.4374999999999C197.1249999999999 833.75 166.6249999999999 808.46875 166.6249999999999 767.4375V241.1875C166.6249999999999 200.15625 197.1562499999999 166.59375 234.4374999999999 166.59375H375.1874999999999C398.0624999999999 166.59375 416.6249999999999 185.15625 416.6249999999999 208.03125S398.0624999999999 249.46875 375.1874999999999 249.46875H249.2812499999999V750.84375zM541.65625 792.375C541.65625 769.5 522.9999999999999 750.9375 499.9999999999999 750.9375S458.3437499999999 769.5 458.3437499999999 792.375C458.3437499999999 815.25 476.9999999999999 833.8125 499.9999999999999 833.8125S541.65625 815.25 541.65625 792.375zM822.65625 328.625L796.75 302.7187499999999L719.375 380.0937499999999L745.28125 405.9999999999999C759.5 420.2187499999999 782.5 420.2187499999999 796.75 405.9999999999999L822.65625 380.0937499999999C836.8749999999999 365.875 836.8749999999999 342.8749999999999 822.65625 328.625zM693.4375 354.15625L770.8125 276.78125L577.375 83.3437499999999H542.875C519.40625 83.3437499999999 500.53125 102.7499999999999 501.2187500000001 126.2187499999999L502.09375 156.3437499999999L693.4375 354.1874999999999z" />
    <glyph glyph-name="icon-backup"
      unicode="&#xEA23;"
      horiz-adv-x="1000" d="M806.25 581.65625C777.90625 725.40625 651.65625 833.3125 500 833.3125C379.59375 833.3125 275 764.96875 222.90625 664.96875C97.5 651.625 0 545.375 0 416.625C0 278.71875 112.09375 166.625 250 166.625H791.65625C906.6562499999998 166.625 1000 259.9687500000001 1000 374.9687500000001C1000 484.9687500000001 914.59375 574.1250000000001 806.25 581.625zM791.65625 250H250C157.90625 250 83.34375 324.59375 83.34375 416.65625C83.34375 502.0624999999999 147.09375 573.3125 231.6875 582.0625L276.28125 586.65625L297.125 626.25C336.71875 702.4999999999999 414.21875 749.9999999999999 500.0312499999999 749.9999999999999C609.1874999999999 749.9999999999999 703.3749999999999 672.4999999999999 724.625 565.4062499999999L737.1249999999999 502.9062499999999L800.8749999999999 498.3124999999999C865.875 494.1562499999999 916.7187499999998 439.5625 916.7187499999998 374.96875C916.7187499999998 306.21875 860.4687499999999 249.96875 791.7187499999999 249.96875zM416.65625 409.15625L358.9375 466.875C342.71875 483.09375 316.40625 483.09375 300.1875000000001 466.875V466.875C283.9687500000001 450.6562500000001 283.9687500000001 424.34375 300.1875000000001 408.1250000000001L387.1875 321.1250000000001C403.4687500000001 304.8437500000001 429.84375 304.8437500000001 446.125 321.1250000000001L637.71875 512.7187500000001C653.9375 528.9375000000001 653.9375 555.2500000000001 637.71875 571.46875V571.46875C621.5 587.6875 595.1875 587.6875 578.96875 571.46875L416.6875000000001 409.1875z" />
    <glyph glyph-name="icon-calender"
      unicode="&#xEA24;"
      horiz-adv-x="1000" d="M416.65625 483.3125C416.65625 506.3125000000001 435.3125 524.96875 458.3125 524.96875S499.96875 506.3125000000001 499.96875 483.3125C499.96875 460.3125 481.3125000000001 441.6562500000001 458.3125 441.6562500000001S416.65625 460.3125000000001 416.65625 483.3125zM833.34375 766.65625V233.3125C833.34375 196.65625 800 166.6562500000001 759.28125 166.6562500000001H240.7500000000001C199.625 166.6562500000001 166.6875 196.6562500000001 166.6875 233.3125L167.0625 766.65625C167.0625 803.3125 199.65625 833.3125 240.78125 833.3125H277.8125V862.9375C277.8125 883.40625 294.4062500000001 899.96875 314.8437500000001 899.96875S351.8750000000001 883.375 351.8750000000001 862.9375V833.3125H648.1875V862.9375C648.1875 883.40625 664.78125 899.96875 685.21875 899.96875S722.25 883.375 722.25 862.9375V833.3125H759.2812499999999C800.0312499999999 833.3125 833.3437499999999 803.3125 833.3437499999999 766.65625zM250 691.65625H750V754.15625H250V691.65625zM750 249.96875V608.3125H250V249.96875H750zM583.34375 483.3125C583.34375 460.3125 602.0000000000001 441.6562500000001 625 441.6562500000001S666.65625 460.3125000000001 666.65625 483.3125C666.65625 506.3125000000001 647.9999999999999 524.96875 625 524.96875S583.34375 506.3125000000001 583.34375 483.3125z" />
    <glyph glyph-name="icon-checkmark"
      unicode="&#xEA25;"
      horiz-adv-x="1000" d="M750 500C750 638.0625 638.0625 750 500 750S250 638.0625 250 500C250 361.9375 361.9375 250 500 250S750 361.9375 750 500zM833.34375 500C833.34375 315.90625 684.09375 166.65625 500 166.65625S166.65625 315.90625 166.65625 500C166.65625 684.09375 315.90625 833.34375 500 833.34375S833.34375 684.09375 833.34375 500zM655.40625 554.84375L499.1562499999999 388.1875C483.71875 371.71875 457.96875 370.53125 441.0625 385.53125L347.3125 468.8749999999999C330.125 484.15625 328.5625 510.4999999999999 343.84375 527.6875S385.46875 546.4374999999999 402.65625 531.15625L466.0937499999999 474.7812499999999L594.5937499999999 611.8437499999999C610.34375 628.625 636.6875 629.4687499999999 653.5 613.7499999999999S671.15625 571.65625 655.40625 554.8437499999999z" />
    <glyph glyph-name="icon-copy"
      unicode="&#xEA26;"
      horiz-adv-x="1000" d="M333.34375 791.65625C333.34375 768.65625 352 750 375 750H750V291.65625C750 268.6562499999999 768.65625 250 791.65625 250S833.3124999999999 268.65625 833.3124999999999 291.65625V791.65625C833.3124999999999 814.65625 814.6562499999999 833.3125 791.65625 833.3125H375C352 833.3125 333.34375 814.65625 333.34375 791.65625zM250 250H583.34375V583.34375H250.0000000000001V250zM166.65625 625C166.65625 648 185.3125 666.65625 208.3125 666.65625H624.9687500000001C647.9687500000001 666.65625 666.625 648 666.625 625V208.34375C666.625 185.34375 647.96875 166.6875000000001 624.9687500000001 166.6875000000001H208.3125000000001C185.3125000000001 166.6875000000001 166.6562500000001 185.3437500000001 166.6562500000001 208.34375V625z" />
    <glyph glyph-name="icon-crossmark"
      unicode="&#xEA27;"
      horiz-adv-x="1000" d="M500 833.34375C316.65625 833.34375 166.65625 683.34375 166.65625 500S316.65625 166.65625 500 166.65625S833.34375 316.65625 833.34375 500S683.34375 833.34375 500 833.34375zM500 250C362.5 250 250 362.5 250 500S362.5 750 500 750S750 637.5 750 500S637.5 250 500 250zM558.34375 500L637.5000000000001 579.15625C654.1562500000001 595.8125 654.1562500000001 620.8125 637.5000000000001 637.5S595.8437500000001 654.15625 579.15625 637.5L500 558.34375L420.84375 637.5C404.1875000000001 654.15625 379.1875 654.15625 362.5000000000001 637.5S345.8437500000001 595.84375 362.5000000000001 579.15625L441.65625 499.9999999999999L362.5000000000001 420.8437499999999C345.8437500000001 404.1874999999998 345.8437500000001 379.1874999999999 362.5000000000001 362.4999999999998S404.1562500000001 345.8437499999998 420.8437500000001 362.4999999999998L500.0000000000001 441.6562499999999L579.1562500000001 362.4999999999998C595.8125000000002 345.8437499999998 620.8125000000001 345.8437499999998 637.5000000000002 362.4999999999998S654.1562500000002 404.1562499999998 637.5000000000002 420.8437499999999L558.3437500000001 499.9999999999999z" />
    <glyph glyph-name="icon-custom-html-abe"
      unicode="&#xEA28;"
      horiz-adv-x="750" d="M20.4375 997.375C12.65625 994 4.625 984.28125 2.09375 975.1875C-0.71875 965.09375 -0.71875 37.0625 2.09375 26.96875C4.6875 17.6875 12.75 8.09375 20.875 4.71875C30.34375 0.75 702.71875 0.75 712.21875 4.71875C720.3437500000001 8.09375 728.40625 17.6875 731 26.96875C733.875 37.3125 733.7812499999999 762.3125 730.90625 773C729.125 779.65625 713.4375 796.21875 623.2187499999999 886.75C551.8749999999999 958.34375 515.0937499999999 993.90625 509.8437499999999 996.34375C502.34375 999.84375 492.6249999999999 1000 264.21875 999.96875C70.8124999999999 999.9375 25.28125 999.4375 20.46875 997.34375zM575.125 841.25L618.9375 797.375H530.28125V841.25C530.28125 865.375 530.5000000000001 885.125 530.78125 885.125S550.9999999999999 865.375 575.125 841.25zM265.25 607.8125C280.625 600.0625 287.28125 579.96875 279.53125 564.84375C277.7812500000001 561.40625 257.28125 535.71875 233.96875 507.75L191.59375 456.90625L235.1875 404.5624999999999C259.5625 375.2812499999999 279.75 349.28125 281 345.53125C286.09375 330.125 278.03125 310.84375 264.03125 304.9999999999999C255.40625 301.40625 242.9375 301.5625 234.90625 305.375C230.5 307.46875 211.875 328.3125 177.09375 370.0625C148.875 403.9375 123.875 434.2499999999999 121.5 437.40625C115.96875 444.8125 114 457.8125 117.03125 466.96875C118.46875 471.2812500000001 140.34375 499.4062500000001 172.875 538.75C229.15625 606.78125 234.8125 612.1875 249.4687500000001 612.1875C253.3750000000001 612.1875 260.46875 610.21875 265.2500000000001 607.8125zM401.6875 607.8125C411.9375 602.625 419.09375 591.46875 419.125 580.5C419.1875 569.1875 380.4375 331.5937499999999 377 322.1875C372.53125 309.9375 363.15625 303.5625 348.25 302.6249999999999C338.1875 301.9999999999999 335.25 302.5937499999999 329.65625 306.4374999999999C319.8125 313.1875 315.3749999999999 320.3124999999999 314.4687499999999 330.8437499999999C313.9375 336.9687499999999 320.4999999999999 382.4374999999999 333.28125 461.0937499999999C344.0625 527.5624999999998 353.4374999999999 584.4374999999998 354.0625 587.4687499999999S357.96875 596.0937499999999 361.3125 599.9374999999999C372.5 612.6874999999999 386.5625 615.4062499999999 401.6875 607.7812499999999zM499.40625 607.8125C509 601.9375 612.90625 476.46875 616.0625 466.9687499999999C619.96875 455.1249999999999 617.0625 444 606.75 431.3125C557.96875 371.375 502.46875 306.53125 498.25 304.6249999999999C489.9375 300.84375 476.1875000000001 301.7187499999999 467.5 306.6249999999999C452.9375000000001 314.8124999999999 446.0625 335.0624999999999 453.1562500000001 348.7812499999999C454.6875 351.7499999999999 475.1875000000001 377.2812499999999 498.7187500000001 405.5312499999999L541.5000000000001 456.8749999999999L497.7812500000001 509.3749999999999C473.7187500000001 538.2499999999999 453.2187500000001 564.03125 452.2187500000001 566.71875C449.5312500000001 573.78125 449.9687500000001 586.3125 453.1250000000001 592.375C462.0937500000001 609.59375 484.4062500000001 617.0625 499.4375000000001 607.875z" />
    <glyph glyph-name="icon-custom-html-statista"
      unicode="&#xEA29;"
      horiz-adv-x="781.25" d="M0 500V0H774.1875V854.84375H629.03125V1000H0V500zM661.28125 943.5625V887.125H775.15625L718.71875 943.5625C687.6875 974.625 662.0625 1000 661.78125 1000S661.25 974.59375 661.25 943.5625zM161.71875 855.40625C167.03125 850.1875 171.375 844.96875 171.375 843.84375S159.8125 830.1875 145.6875 816.0625L120 790.34375L172.3125 737.90625L149.15625 714.75L73.59375 790.3125L110.875 827.625C131.375 848.15625 149.03125 864.9375 150.09375 864.9375S156.40625 860.65625 161.71875 855.4375zM324.59375 827.625L361.875 790.3125L286.3125 714.75L263.15625 737.90625L315.46875 790.34375L289.78125 816.0625C275.65625 830.21875 264.09375 842.65625 264.09375 843.71875C264.09375 846.34375 282.5937500000001 864.9375 285.21875 864.9375C286.3750000000001 864.9375 304.09375 848.15625 324.59375 827.625zM580.65625 629.03125V612.90625H193.5625V645.15625H580.65625V629.03125zM580.65625 548.375V532.25H193.5625V564.5H580.65625V548.375zM580.65625 467.75V451.625H193.5625V483.875H580.65625V467.7499999999999zM580.65625 387.09375V370.9687500000001H193.5625V403.2187500000001H580.65625V387.09375zM566.15625 290.125C573.03125 287.8124999999999 578.65625 284.84375 578.65625 283.53125C578.65625 280.78125 532.875 143.03125 531.5 141.6875C529.875 140.0625 502.0312499999999 149.90625 502.0312499999999 152.0937499999999C502.0312499999999 158.2499999999999 549.0624999999999 294.3437499999999 551.1874999999999 294.3437499999999C552.5312499999999 294.3437499999999 559.28125 292.4374999999999 566.1562499999999 290.1249999999999zM468.1875 274.78125C473.5 269.5624999999999 477.8437499999999 264.34375 477.8437499999999 263.21875S466.28125 249.5624999999999 452.15625 235.4375L426.46875 209.71875L478.78125 157.2812499999999L455.625 134.1249999999999L380.0625 209.6874999999999L417.34375 246.9999999999999C437.84375 267.5312499999999 455.4999999999999 284.3124999999999 456.5625 284.3124999999999S462.875 280.0312499999999 468.1875 274.8124999999999zM663.3125 246.96875L700.59375 209.65625L625.03125 134.09375L601.875 157.25L654.1875 209.6875L628.5000000000001 235.40625C614.375 249.5625 602.8125000000001 262 602.8125000000001 263.0625000000001C602.8125000000001 265.6875000000001 621.3125 284.28125 623.9375 284.28125C625.09375 284.28125 642.8125 267.5000000000001 663.3125000000001 246.9687500000001z" />
    <glyph glyph-name="icon-double-arrows"
      unicode="&#xEA2A;"
      horiz-adv-x="1000" d="M804.21875 303.875C820.3125 320.1875 820.25 346.40625 804.03125 362.625L800.28125 366.375C783.9999999999999 382.65625 757.625 382.65625 741.34375 366.375L708.3125 333.34375V541.6875C708.3125 564.6875 689.65625 583.34375 666.6562500000001 583.34375S625.0000000000001 564.6875 625.0000000000001 541.6875V333.34375L591.9687500000001 366.375C575.6875000000001 382.65625 549.3125000000002 382.65625 533.0312500000002 366.375L529.6250000000001 362.96875C513.2812500000001 346.625 513.3750000000001 320.09375 529.8125000000001 303.8749999999999L639.0312500000001 195.9687499999999C655.4062500000002 179.7812499999999 681.7812500000001 179.9374999999999 697.9687500000001 196.3124999999999L804.2187500000001 303.8749999999999zM195.78125 696.125C179.6875 679.8125 179.75 653.59375 195.96875 637.375L199.71875 633.625C216 617.34375 242.375 617.34375 258.65625 633.625L291.6875 666.65625V458.3125000000001C291.6875 435.3125000000001 310.34375 416.6562500000003 333.34375 416.6562500000003S375 435.3125000000003 375 458.3125000000001V666.6562500000001L408.03125 633.6250000000001C424.3125000000001 617.34375 450.6875 617.34375 466.96875 633.6250000000001L470.375 637.0312500000001C486.71875 653.3750000000001 486.625 679.9062500000001 470.1875 696.1250000000001L360.96875 804.0312500000001C344.59375 820.2187500000001 318.21875 820.0312500000001 302.03125 803.6875000000001L195.78125 696.1250000000001z" />
    <glyph glyph-name="icon-download"
      unicode="&#xEA2B;"
      horiz-adv-x="1000" d="M362.75 470.59375L470.53125 362.8125C486.8125000000001 346.53125 513.1875 346.53125 529.46875 362.8125L637.2500000000001 470.5937499999999C653.5000000000001 486.8437499999999 653.5000000000001 513.1874999999999 637.2500000000001 529.4374999999999C621.0312500000001 545.6562499999999 594.7500000000001 545.6874999999999 578.5000000000001 529.5312499999999L541.6562500000002 492.9374999999999V791.6875C541.6562500000002 814.6874999999999 523.0000000000001 833.34375 500.0000000000002 833.34375S458.3437500000002 814.6875 458.3437500000002 791.6875V492.9374999999999L421.5000000000003 529.5312499999999C405.2500000000003 545.6874999999999 378.9687500000002 545.6562499999999 362.7500000000003 529.4374999999999C346.5000000000003 513.1874999999999 346.5000000000003 486.8437499999999 362.7500000000003 470.5937499999999zM208.34375 250C185.34375 250 166.6875 231.34375 166.6875 208.34375S185.34375 166.6875000000001 208.34375 166.6875000000001H791.6875000000001C814.6875000000001 166.6875000000001 833.34375 185.3437500000001 833.34375 208.34375S814.6875 250 791.6875000000001 250H208.3437500000001z" />
    <glyph glyph-name="icon-edit"
      unicode="&#xEA2C;"
      horiz-adv-x="1000" d="M750 458.34375C750 481.3437500000001 768.65625 500.0000000000001 791.65625 500.0000000000001S833.3124999999999 481.3437500000001 833.3124999999999 458.34375V250C833.3124999999999 204.15625 795.8124999999999 166.65625 749.9687499999999 166.65625H249.9687499999999C204.1249999999998 166.65625 166.6249999999999 204.1562499999999 166.6249999999999 250V791.65625C166.6249999999999 814.65625 185.2812499999998 833.3125 208.2812499999999 833.3125H458.2812499999999C481.2812499999999 833.3125 499.9374999999999 814.65625 499.9374999999999 791.65625S481.2812499999999 750 458.2812499999999 750H249.9374999999999V250H749.9374999999999V458.34375zM822.65625 745.28125L796.75 719.375L719.375 796.75L745.28125 822.65625C759.5 836.90625 782.5 836.90625 796.75 822.65625L822.65625 796.75C836.8749999999999 782.5 836.8749999999999 759.53125 822.65625 745.28125zM693.4375 770.8125L770.8125 693.4375L577.375 500H542.875C519.40625 500 500.53125 519.40625 501.2187500000001 542.875L502.09375 573L693.4375 770.8125z" />
    <glyph glyph-name="icon-excel"
      unicode="&#xEA2D;"
      horiz-adv-x="1000" d="M426.96875 864.6875V737.0625L422.59375 730.53125C413.375 716.71875 419.375 717.28125 278.375 717.28125L151.90625 717.28125L152.90625 27.1875000000001L156.875 21.8750000000001C159.625 18.4062500000001 162.65625 15.3437500000001 166.03125 12.6875000000001L166.15625 12.5937500000001L171.46875 8.6250000000001H828.5937499999999L833.90625 12.5937500000001C837.375 15.3437500000001 840.4375 18.375 843.09375 21.75L843.1875 21.8750000000001L847.15625 27.1875000000001V972.7812500000002L843.1875 978.0937500000002C840.4375 981.5625000000002 837.40625 984.6250000000002 834.03125 987.2812500000002L833.90625 987.3750000000002C828.625 991.3125000000002 827.21875 991.3437500000002 627.78125 991.8437500000002L426.96875 992.3437500000002zM269.28125 874L170.25 774.96875H369.28125V874C369.28125 928.46875 369.0625 973.03125 368.78125 973.03125S323.71875 928.46875 269.28125 874zM715.375 525.4375C719.8125 522.90625 723.5 519.59375 726.375 515.65625L726.4375 515.5625L730.8125 509.03125V384.125C730.8125 244.75 731.5625 252.4375000000001 717.34375 243.59375L710.625 239.40625H289.46875L282.75 243.59375C268.5625 252.4375000000001 269.28125 244.75 269.28125 384.125V509.0312500000001L273.65625 515.5625C283.125 529.75 267.25 528.8125 500.0624999999999 528.8125C694.8749999999999 528.8125 709.1562499999999 528.59375 715.40625 525.4375zM326.96875 442.25V413.40625H471.1875V471.09375H326.96875zM528.875 442.25V413.40625H673.09375V471.09375H528.875zM326.96875 326.875V298.03125H471.1875V355.71875H326.96875zM528.875 326.875V298.03125H673.09375V355.71875H528.875z" />
    <glyph glyph-name="icon-export"
      unicode="&#xEA2E;"
      horiz-adv-x="1000" d="M250 875H583.34375L833.34375 650L833.34375 200C833.34375 154.15625 798.90625 125 750 125H250C201.125 125 166.65625 154.15625 166.65625 200V800C166.65625 845.84375 201.09375 875 250 875zM250 791.65625V208.3124999999999H750V624.9687499999999H583.34375C560.34375 624.9687499999999 541.6875000000001 643.6249999999999 541.6875000000001 666.6249999999999L541.6875000000001 791.6249999999999H250.0312500000001zM504.71875 358.84375V407.4375L416.4375 319.3125C401.125 304.03125 376.3437500000001 304.03125 361.0625 319.3125S345.71875 359.40625 361 374.75L449.28125 463.1875000000001H400.46875C378.78125 463.1875000000001 361.21875 480.7500000000001 361.21875 502.4375000000001S378.78125 541.6875000000001 400.46875 541.6875000000001H541.65625C564.65625 541.6875000000001 583.3124999999999 523.0312500000001 583.3124999999999 500.0312500000001V358.875C583.3124999999999 337.15625 565.7187499999999 319.5625000000001 543.9999999999999 319.5625000000001S504.6874999999999 337.15625 504.6874999999999 358.875z" />
    <glyph glyph-name="icon-file"
      unicode="&#xEA2F;"
      horiz-adv-x="1000" d="M250 875H583.34375L833.34375 650L833.34375 200C833.34375 154.15625 798.90625 125 750 125H250C201.125 125 166.65625 154.15625 166.65625 200V800C166.65625 845.84375 201.09375 875 250 875zM250 791.65625V208.3124999999999H750V624.9687499999999H583.34375C560.34375 624.9687499999999 541.6875000000001 643.6249999999999 541.6875000000001 666.6249999999999L541.6875000000001 791.6249999999999H250.0312500000001zM375 541.65625C352 541.65625 333.34375 523 333.34375 500S352 458.34375 375 458.34375H625C648 458.34375 666.65625 477.0000000000001 666.65625 500.0000000000001S647.9999999999999 541.65625 625 541.65625H375zM333.34375 666.65625C333.34375 689.65625 352 708.3125 375 708.3125H458.34375C481.34375 708.3125 500 689.65625 500 666.65625S481.34375 625 458.34375 625H375C352 625 333.34375 643.65625 333.34375 666.65625zM375 375C352 375 333.34375 356.34375 333.34375 333.34375S352 291.6875000000001 375 291.6875000000001H625C648 291.6875000000001 666.65625 310.3437500000001 666.65625 333.34375S647.9999999999999 375 625 375H375z" />
    <glyph glyph-name="icon-filter"
      unicode="&#xEA30;"
      horiz-adv-x="1000" d="M791.65625 708.34375H208.3124999999999C183.3124999999999 708.34375 166.6562499999999 725 166.6562499999999 750S183.3124999999999 791.65625 208.3124999999999 791.65625H791.65625C816.65625 791.65625 833.3124999999999 775 833.3124999999999 750S816.6562499999999 708.34375 791.65625 708.34375zM708.34375 458.34375H291.6875000000001C266.6875 458.34375 250.0312500000001 475.0000000000001 250.0312500000001 500.0000000000001S266.6875 541.65625 291.6875000000001 541.65625H708.34375C733.3437500000001 541.65625 750 525 750 500.0000000000001S733.34375 458.34375 708.34375 458.34375zM583.34375 208.34375H416.6875000000001C391.6875 208.34375 375.0312500000001 225.0000000000001 375.0312500000001 250S391.6875 291.65625 416.6875000000001 291.65625H583.34375C608.3437500000001 291.65625 625 274.9999999999999 625 250S608.34375 208.34375 583.34375 208.34375z" />
    <glyph glyph-name="icon-filter1"
      unicode="&#xEA31;"
      horiz-adv-x="1000" d="M791.65625 708.34375H208.3124999999999C183.3124999999999 708.34375 166.6562499999999 725 166.6562499999999 750S183.3124999999999 791.65625 208.3124999999999 791.65625H791.65625C816.65625 791.65625 833.3124999999999 775 833.3124999999999 750S816.6562499999999 708.34375 791.65625 708.34375zM708.34375 458.34375H291.6875000000001C266.6875 458.34375 250.0312500000001 475.0000000000001 250.0312500000001 500.0000000000001S266.6875 541.65625 291.6875000000001 541.65625H708.34375C733.3437500000001 541.65625 750 525 750 500.0000000000001S733.34375 458.34375 708.34375 458.34375zM583.34375 208.34375H416.6875000000001C391.6875 208.34375 375.0312500000001 225.0000000000001 375.0312500000001 250S391.6875 291.65625 416.6875000000001 291.65625H583.34375C608.3437500000001 291.65625 625 274.9999999999999 625 250S608.34375 208.34375 583.34375 208.34375z" />
    <glyph glyph-name="icon-folder"
      unicode="&#xEA32;"
      horiz-adv-x="1000" d="M833.34375 750H500L416.65625 833.34375H166.65625C120.8125 833.34375 83.75 795.84375 83.75 750L83.34375 250C83.34375 204.15625 120.84375 166.65625 166.6875 166.65625H833.3437499999999C879.1874999999999 166.65625 916.6874999999998 204.1562499999999 916.6874999999998 250V666.65625C916.6874999999998 712.5 879.1874999999999 750 833.3437499999998 750zM833.34375 250H166.6875000000001V666.65625H833.34375V250z" />
    <glyph glyph-name="icon-h5p"
      unicode="&#xEA33;"
      horiz-adv-x="968.75" d="M466.4375 996.0625C457.6875 989.9375 456 981.75 456 945.3125C456 907.34375 457.8125 899.6875 467.9687500000001 894.4375C475.7812500000001 890.40625 481.0937500000001 890.40625 488.9062500000001 894.4375C499.0937500000001 899.6875 500.8750000000001 907.34375 500.8750000000001 945.3125C500.8750000000001 981.75 499.1875000000001 989.9375 490.4375000000001 996.0625C487.8125000000001 997.90625 482.4062500000001 999.375 478.4375000000001 999.375S469.0312500000001 997.875 466.4375000000001 996.0625zM674.34375 932.15625C674.34375 872 673.9375 863.65625 670.875 858.4375C668.96875 855.21875 666 851.90625 664.25 851.0625S647.59375 849.0625 631.09375 848.4375C601.3437500000001 847.34375 601.0625 847.28125 594.875 841.34375C589.65625 836.34375 588.6250000000001 833.78125 588.6250000000001 825.875C588.6250000000001 816.5 591.5 811.9375 600.875 806.3125C602.5625 805.3125 617.46875 804.03125 634 803.46875C676.1875 802.03125 673.15625 806.53125 673.96875 744.21875L674.59375 695.28125H739.6875V721.40625C739.6875 745.5 740.0937500000001 748.375 745.03125 758.28125C758.4375 785.21875 791.6875 790.375 813.1875000000001 768.90625C824.96875 757.125 827.4375 748.28125 827.4375 717.84375V695.28125H936.1250000000002L934.9687500000002 727.4375C933.4062500000002 771.5625 926.6875000000002 799.875 908.8437500000002 838.03125C868.5312500000002 924.15625 776.2812500000001 992.5625 692.2187500000001 998.6875L674.3750000000001 1000V932.15625zM137.9375 863.625C130.28125 857.1875 128.28125 848.9375 132.21875 839.90625C136.34375 830.40625 188.125 779.4375 195.84375 777.28125C210.1875 773.28125 223.34375 783.84375 223.34375 799.3125C223.34375 805.71875 220.40625 809.34375 192.15625 837.5625C161.96875 867.75 160.6875 868.75 152.53125 868.75C146.46875 868.75 142.34375 867.28125 137.96875 863.59375zM427.40625 820.90625C338.875 804.0625 265.71875 749.03125 225.5 669.09375C208.65625 635.59375 197.75 594.28125 196.375 558.59375L195.78125 543.28125L315.53125 541.25L320.4687499999999 535.53125C325.1249999999999 530.125 325.4062499999999 528.3750000000001 325.4062499999999 503.3125000000001C325.4062499999999 466.96875 330.4062499999999 456.5625000000001 347.8437499999999 456.5625000000001C365.3124999999999 456.5625000000001 370.2812499999999 466.96875 370.2812499999999 503.5937500000001V530.34375L382.2187499999999 542.28125H455.9999999999999V587.1875H440.03125C418.0312499999999 587.1875 405.59375 591.3125 392.8125 602.8125C378.28125 615.875 371.875 629.125 370.75 648.40625C369.59375 668.28125 374.875 683.15625 387.8125 696.4375C400.84375 709.84375 414.96875 715.71875 437.59375 717.1875L455.9999999999999 718.375V823.90625L448.34375 823.6875C444.125 823.5625 434.71875 822.3125 427.4375 820.9375zM603.9375 585.46875C599.15625 584.5625 593.28125 579.6875 590 573.90625C588.71875 571.625 587.1875 556.4375 586.625 539.75C585.1562499999999 498.375 587.84375 500.59375 538.59375 499.7812500000001L500.8749999999999 499.1562500000001V411.65625H516.96875C526.4687499999999 411.65625 537.40625 410.25 543.6875 408.2187500000001C557.0625 403.90625 572.75 390.0625000000001 580.03125 376.1562500000001C584.75 367.125 585.5 363.2812500000001 585.53125 347.3750000000001C585.5625 332.0000000000001 584.75 327.3750000000001 580.625 318.9687500000001C569.1562499999999 295.6875000000001 548.65625 283.2187500000003 518.96875 281.5312500000001L500.8749999999999 280.5000000000001V215.7500000000001H612.375L616.0625 231.5625000000001C626.0312499999999 274.1875000000001 638.5 295.4687500000001 687.8124999999999 353.9375000000001C720.7812499999999 393.0000000000001 735.1874999999999 416.9687500000001 746.4687499999999 451.4687500000001C750.7187499999999 464.5000000000001 757.9999999999999 494.2187500000001 757.9999999999999 498.5312500000001C757.9999999999999 499.0312500000001 733.1249999999999 499.4062500000001 702.6874999999999 499.4062500000001C654.3437499999999 499.4062500000001 646.6562499999999 499.8437500000001 641.5312499999999 502.8750000000001C638.3124999999999 504.7812500000001 634.9999999999999 507.7500000000001 634.1562499999999 509.5000000000001S632.1562499999999 526.15625 631.5312499999999 542.65625C630.4374999999999 572.15625 630.3437499999999 572.71875 624.6249999999999 578.6875C618.8749999999999 584.6562500000001 611.8124999999999 587 603.9062499999999 585.5zM8.46875 538.125C0.65625 532 -2.0625 521.875 1.65625 512.96875C6.75 500.78125 12.0625 499.4062500000001 53.96875 499.4062500000001S101.1875 500.7812500000001 106.28125 512.96875C110 521.875 107.28125 532 99.46875 538.125C94.625 541.9375 91.25 542.25 53.96875 542.25S13.3125 541.9375 8.46875 538.125zM857.4375 538.125C849.625 532 846.90625 521.875 850.625 512.96875C855.71875 500.78125 861.0312499999999 499.4062500000001 902.9375 499.4062500000001S950.1562499999998 500.7812500000001 955.2499999999998 512.96875C958.9687499999998 521.875 956.2499999999998 532 948.4374999999998 538.125C943.5937499999998 541.9375 940.2187499999998 542.25 902.9375 542.25S862.28125 541.9375 857.4375 538.125zM198.84375 498.5000000000001C198.84375 493.7812500000001 206.3125 463.9375 211.1875 449.25C223.34375 412.5625 235.4375000000001 393.0625000000001 276.3125 344.3125C315.96875 297.0312500000001 328.9687500000001 274.59375 339.0625000000001 236.09375L344.40625 215.75H456V260.84375C456 325.0937500000001 456.59375 325.9375 502.5937500000001 325.9375C528.1250000000001 325.9375 529.4062500000001 326.15625 535.375 331.15625C543.1875 337.7187500000001 545.34375 347.5625 540.875 356.2500000000001C535.65625 366.3750000000001 531.15625 367.6875 498.40625 368.8125000000001C468.875 369.8125000000001 468.25 369.9375000000001 462.6875 375.5L457.03125 381.1562500000001L456.4375 440.2812500000001L455.84375 499.4375000000001H413.65625L412.75 480.5625000000001C411.59375 456.1250000000001 406.375 443.8125000000001 391.5 430.1875000000001C366.0625 406.9375000000003 329.6875 406.9375000000003 304.21875 430.1875000000001C289.3125 443.8125000000001 284.125 456.1250000000001 282.96875 480.5625000000002L282.0625 499.4375000000002H240.46875C217.59375 499.4375000000002 198.875 499.0312500000002 198.875 498.5625000000002zM191.625 263.15625C182.125 257.625 131.96875 205.125 130.46875 199.1562499999999C127.53125 187.4374999999999 139.4375 172.84375 151.875 172.84375C159.84375 172.84375 167.125 178.5625 195.25 207.03125C221.78125 233.875 223.3125 235.875 223.3125 243.46875C223.3125 252.84375 219.34375 259.375 211.03125 263.65625C203.375 267.625 199.09375 267.5000000000001 191.59375 263.125zM744.375 262.75C736.28125 257.8125 733.53125 252.8125 733.53125 243.0625000000001C733.53125 236.0000000000001 735.625 233.3437500000001 761.59375 207.0625C789.7187499999999 178.59375 796.96875 172.875 804.96875 172.875C817.4375 172.875 829.3125 187.46875 826.375 199.1875C824.875 205.1562499999999 774.7499999999999 257.625 765.25 263.1874999999999C757.375 267.7812499999999 752.4375 267.6874999999999 744.375 262.7812499999999zM347.84375 147.875C347.84375 134.1249999999999 348.4375 119.46875 349.125 115.3124999999999L350.375 107.7499999999999L465.875 106.5624999999999L471.09375 101.6562499999999C481.59375 91.8124999999999 479.28125 72.6562499999999 466.9062499999999 67.0312499999999C463.65625 65.5624999999999 444.96875 64.7499999999999 414.03125 64.7499999999999C387.71875 64.7499999999999 366.15625 64.2187499999999 366.15625 63.5937499999999C366.15625 60.7812499999999 378.90625 44.5624999999999 387.90625 35.8749999999999C401 23.3124999999999 416.84375 13.4999999999999 435.53125 6.4687499999999C449.5625 1.1874999999999 453.1249999999999 0.6875 478.3749999999999 0.6875S507.1874999999999 1.15625 521.21875 6.4687499999999C539.9062499999999 13.5312499999999 555.75 23.3125 568.84375 35.8749999999999C577.875 44.5624999999999 590.59375 60.7812499999999 590.59375 63.5937499999999C590.59375 64.2187499999999 578.3125 64.7499999999999 563.3125 64.7499999999999C539.0625 64.7499999999999 535.4687499999999 65.2187499999999 530.8125 68.8749999999999C523 75 520.28125 85.1249999999999 524 94.0312499999999C529 106.0312499999999 534.71875 107.5937499999999 572.875 107.5937499999999H606.375L607.65625 115.25C608.34375 119.46875 608.9375 134.15625 608.9375 147.9062499999999L608.9687500000001 172.9062499999999H347.7500000000001L347.7812500000001 147.9062499999999z" />
    <glyph glyph-name="icon-help"
      unicode="&#xEA34;"
      horiz-adv-x="1000" d="M460.75 832.53125C421.71875 827.375 386.34375 816.5625 353.78125 800.84375L355.875 801.75C257.15625 753.40625 186.5625 660.75 169.65625 550.4375L169.40625 548.5625C167.5625 536.15625 166.5 521.84375 166.5 507.28125C166.5 500.9375000000001 166.6875 494.625 167.09375 488.375L167.0625 489.2187500000001C167.3125 438.6562500000001 180.125 391.125 202.5625 349.5625L201.78125 351.125C233.65625 287.8125 283.34375 237.40625 344.28125 205.5625L346.09375 204.6875C390.8125 180.90625 443.84375 166.9375000000001 500.1562499999999 166.9375000000001C551.0937499999999 166.9375000000001 599.375 178.3750000000001 642.5624999999999 198.8125000000001L640.5312499999999 197.9375000000001C716.8124999999999 234.5937500000001 775.9687499999999 296.7500000000001 807.8437499999999 373.1562500000001L808.6562499999999 375.3750000000001C823.9999999999999 412.3750000000001 832.9374999999999 455.3750000000001 832.9374999999999 500.4375000000001C832.9374999999999 661.125 719.5312499999999 795.3125000000001 568.3749999999999 827.3750000000001L566.1874999999999 827.75C549.8124999999998 830.96875 530.9687499999999 832.8125 511.7187499999999 832.8125C509.9687499999999 832.8125 508.2187499999999 832.8125 506.4687499999999 832.78125L506.7187499999999 832.78125C484.9374999999999 833.1875 464.2187499999999 833.0625 460.6874999999999 832.53125zM543.1875 747.25C620.4375000000001 737.625 685.0625 691.15625 719.6875 626.25L720.28125 625C738.34375 590.78125 748.96875 550.1875 748.96875 507.1250000000001C748.96875 504.96875 748.9374999999999 502.8125000000001 748.875 500.6875000000001L748.875 501.0000000000001C749.0312499999999 497.8750000000001 749.09375 494.2187500000001 749.09375 490.5312500000001C749.09375 426.4375 724.1875 368.125 683.5625 324.8125000000001L683.6875 324.9375000000001C639.25 279.4687500000001 577.3125 251.2500000000001 508.8125 251.2500000000001C505.46875 251.2500000000001 502.1562499999999 251.3125 498.84375 251.4375000000001L499.3125 251.4375000000001C497.2499999999999 251.3750000000001 494.8437499999999 251.3437500000001 492.4375 251.3437500000001C449.96875 251.3437500000001 409.96875 261.7812500000001 374.8125 280.2500000000001L376.1875 279.5937500000001C300.15625 321.0000000000001 249.4375 400.2812500000001 249.4375 491.4375000000001C249.4375 499.6250000000001 249.84375 507.7187500000001 250.6562500000001 515.71875L250.5625000000001 514.71875C251.8437500000001 560.09375 264.625 602.25 286.0625 638.65625L285.40625 637.4375C306.1875 668.03125 331.78125 693.625 361.375 713.8125L362.375 714.4375C390.09375 730.71875 422.5 742.5 457.0625 747.8125L458.5937499999999 748C470.28125 749.28125 483.8125 750.03125 497.53125 750.03125C513.625 750.03125 529.4687499999999 749.0312500000001 544.9999999999999 747.0625000000001L543.1562499999999 747.2500000000001zM470.6875 698C426.28125 687.5625 390.96875 656.15625 375.25 615.0625L374.9375 614.15625C367.875 595.40625 368.1875 587.53125 376.40625 578.1875C382.375 571.59375 390.96875 567.46875 400.53125 567.46875C409.0000000000001 567.46875 416.6875 570.6875 422.46875 576L422.4375 575.96875C428.8125000000001 581.78125 434.34375 588.375 438.90625 595.59375L439.125 596C450.8749999999999 618.8125 474.25 634.125 501.2187500000001 634.125C506.1250000000001 634.125 510.90625 633.625 515.53125 632.65625L515.09375 632.75C532.34375 632.125 547.3125 622.90625 555.90625 609.28125L556.0312500000001 609.0625C559.53125 603.03125 561.5937500000001 595.8125 561.5937500000001 588.09375C561.5937500000001 586.4375 561.5000000000001 584.8125 561.3125000000001 583.1875L561.3437500000001 583.3750000000001C561.2812500000002 560.28125 555.5000000000001 549.8125000000001 523.4062500000002 514.6562500000001C486.4375000000002 474.1250000000001 479.3437500000002 463.6562500000001 471.9062500000002 438.5625000000001C470.3437500000002 435.3125000000001 469.4375000000002 431.4687500000001 469.4375000000002 427.4375C469.4375000000002 412.96875 481.1875000000002 401.2187500000001 495.6562500000002 401.2187500000001C496.9687500000002 401.2187500000001 498.2187500000002 401.3125000000001 499.4687500000002 401.5000000000001L499.3125000000002 401.46875C516.6250000000001 401.46875 529.1875000000001 411.7500000000001 541.1250000000002 435.6875C552.5312500000001 456.9375 566.4375000000001 475.15625 582.7500000000002 490.8749999999999L582.8125000000002 490.9374999999999C609.6875000000001 514.0625 627.0937500000002 547.5 628.8437500000001 585.0625L628.8437500000001 585.34375C628.8437500000001 585.96875 628.8750000000002 586.71875 628.8750000000002 587.46875C628.8750000000002 640.15625 592.1562500000001 684.2499999999999 542.9062500000001 695.53125L542.1562500000001 695.6875C529.5312500000001 698.59375 515.0312500000001 700.25 500.1562500000001 700.25C489.7812500000001 700.25 479.5625000000001 699.4375 469.6250000000001 697.875L470.7187500000001 698.03125zM483.21875 362.375C474.15625 357 467.9062499999999 347.71875 466.7187499999999 336.90625L466.7187499999999 336.75C466.6562499999999 336.03125 466.6249999999999 335.15625 466.6249999999999 334.3125C466.6249999999999 315.84375 481.5937499999999 300.875 500.0624999999999 300.875C511.8437499999999 300.875 522.1874999999999 306.96875 528.15625 316.15625L528.25 316.2812500000001C530.9375 321.3125000000001 532.53125 327.2812500000001 532.53125 333.6562500000001C532.53125 340.1875000000001 530.875 346.3125000000001 527.9375000000001 351.6562500000001L528.0312500000001 351.4687500000001C521.9687500000001 360.7187500000001 511.6250000000001 366.7500000000001 499.8750000000001 366.7500000000001C493.7812500000001 366.7500000000001 488.0312500000001 365.1250000000001 483.0937500000001 362.2812500000001L483.2500000000001 362.3750000000001z" />
    <glyph glyph-name="icon-history"
      unicode="&#xEA35;"
      horiz-adv-x="1000" d="M833.34375 208.34375C833.34375 231.3437500000001 814.6875 250 791.6875000000001 250H208.3437500000001C185.3437500000001 250 166.6875000000001 231.34375 166.6875000000001 208.34375S185.34375 166.6875000000001 208.3437500000001 166.6875000000001H791.6875000000001C814.6875000000001 166.6875000000001 833.34375 185.3437500000001 833.34375 208.34375zM763.15625 583.34375V416.6875H236.8437500000001V583.34375H763.15625zM798.25 666.65625H201.75C182.4375 666.65625 166.65625 647.90625 166.65625 625V375C166.65625 352.09375 182.4375 333.34375 201.75 333.34375H798.25C817.5625 333.34375 833.34375 352.0937500000001 833.34375 375V625C833.34375 647.90625 817.5625000000001 666.65625 798.25 666.65625zM833.34375 791.65625C833.34375 814.65625 814.6875 833.3125 791.6875000000001 833.3125H208.3437500000001C185.3437500000001 833.3125 166.6875000000001 814.65625 166.6875000000001 791.65625S185.34375 750 208.3437500000001 750H791.6875000000001C814.6875000000001 750 833.34375 768.65625 833.34375 791.65625z" />
    <glyph glyph-name="icon-info-inverted"
      unicode="&#xEA36;"
      horiz-adv-x="1000" d="M781.25 500C781.25 656.25 656.25 781.25 500 781.25S218.75 656.25 218.75 500C218.75 343.75 343.75 218.75 500 218.75S781.25 343.75 781.25 500zM875 500C875 293.75 706.25 125 500 125S125 293.75 125 500C125 706.25 293.75 875 500 875S875 706.25 875 500zM550 687.5V637.5C550 606.25 525 587.5 500 587.5C468.75 587.5 450 612.5 450 637.5V687.5C450 712.5 475.0000000000001 737.5 500 737.5C531.25 737.5 550 712.5 550 687.5zM550 500V312.5C550 281.25 525 262.5 500 262.5C468.75 262.5 450 287.5 450 312.5V500C450 525 475.0000000000001 550 500 550C531.25 550 550 525 550 500z" />
    <glyph glyph-name="icon-info"
      unicode="&#xEA37;"
      horiz-adv-x="1000" d="M500 250C361.9375 250 250 361.9375 250 500S361.9375 750 500 750C638.0625 750 750 638.0625 750 500S638.0625 250 500 250zM500 166.65625C684.09375 166.65625 833.34375 315.90625 833.34375 500S684.09375 833.34375 500 833.34375C315.90625 833.34375 166.65625 684.09375 166.65625 500S315.90625 166.65625 500 166.65625zM541.65625 375C541.65625 398 522.9999999999999 416.65625 499.9999999999999 416.65625S458.3437499999999 397.9999999999999 458.3437499999999 375C458.3437499999999 352 476.9999999999999 333.34375 499.9999999999999 333.34375S541.65625 352.0000000000001 541.65625 375zM500 666.65625C523 666.65625 541.65625 648 541.65625 625V500C541.65625 477 522.9999999999999 458.34375 499.9999999999999 458.34375S458.3437499999999 477.0000000000001 458.3437499999999 500.0000000000001V625C458.3437499999999 648 476.9999999999999 666.65625 499.9999999999999 666.65625z" />
    <glyph glyph-name="icon-interactive"
      unicode="&#xEA38;"
      horiz-adv-x="1000" d="M31.25 968.75H968.75V875H31.25zM31.25 109.375H421.875V78.125C421.875 52.28125 442.90625 31.25 468.75 31.25H531.25C557.09375 31.25 578.125 52.28125 578.125 78.125V109.375H968.75V171.875H31.25zM546.875 109.375V78.125C546.875 69.5 539.875 62.5 531.25 62.5H468.75C460.125 62.5 453.125 69.5 453.125 78.125V109.375zM78.125 843.75V203.125H921.875V843.75zM312.5 734.375V640.625L378.78125 706.90625C395.75 689.9375 406.25 666.5 406.25 640.625C406.25 588.84375 364.28125 546.875 312.5 546.875S218.75 588.84375 218.75 640.625S260.71875 734.375 312.5 734.375zM171.875 250H140.625V281.25H171.875zM140.625 640.625H171.875C171.875 563.09375 234.96875 500 312.5 500S453.125 563.09375 453.125 640.625S390.03125 781.25 312.5 781.25V812.5C407.28125 812.5 484.375 735.40625 484.375 640.625S407.28125 468.75 312.5 468.75S140.625 545.84375 140.625 640.625zM234.375 250H203.125V281.25H234.375zM812.5 359.375C809 359.375 805.6875 360.09375 802.53125 361.15625L718.125 287.3125C718.5 285.34375 718.75 283.34375 718.75 281.25C718.75 264 704.75 250 687.5 250S656.25 264 656.25 281.25C656.25 282.5 656.46875 283.6875 656.625 284.875L574.78125 346.25C571.0000000000001 344.625 566.875 343.75 562.5 343.75C559 343.75 555.6875 344.46875 552.53125 345.53125L468.125 271.6875C468.5 269.71875 468.75 267.71875 468.75 265.6562499999999C468.75 248.4062499999999 454.75 234.4062499999999 437.5 234.4062499999999C425.96875 234.4062499999999 416 240.71875 410.59375 250.0312499999999H265.625V281.2812499999999H410.59375C416 290.5937499999999 425.96875 296.9062499999999 437.5 296.9062499999999C441 296.9062499999999 444.3125 296.1874999999999 447.46875 295.125L531.875 368.96875C531.5 370.9374999999999 531.25 372.9374999999999 531.25 375.0312499999999C531.25 392.2812499999999 545.25 406.2812499999999 562.5 406.2812499999999S593.75 392.2812499999999 593.75 375.0312499999999C593.75 373.78125 593.53125 372.59375 593.375 371.4062499999999L675.21875 310.03125C678.9999999999999 311.65625 683.125 312.5312499999999 687.5 312.5312499999999C691 312.5312499999999 694.3125 311.8124999999999 697.46875 310.75L781.875 384.59375C781.5 386.5624999999999 781.25 388.5624999999999 781.25 390.625C781.25 407.875 795.25 421.875 812.5 421.875S843.75 407.875 843.75 390.625C843.75 373.375 829.75 359.375 812.5 359.375zM843.75 500H500V531.25H546.875V609.375H609.375V703.125H671.875V656.25H734.375V781.25H796.875V531.25H843.75z" />
    <glyph glyph-name="icon-link"
      unicode="&#xEA39;"
      horiz-adv-x="1000" d="M625 541.65625H375C352 541.65625 333.34375 523 333.34375 500S352 458.34375 375 458.34375H625C648 458.34375 666.65625 477.0000000000001 666.65625 500.0000000000001S647.9999999999999 541.65625 625 541.65625zM245.84375 500C245.84375 625 345.4375 670.84375 416.6875 670.84375H418.78125C440.65625 670.84375 458.375 688.5625 458.375 710.4375S440.65625 750.0312499999999 418.78125 750.0312499999999H416.6875C301.6875 750.0312499999999 166.6875 666.6875 166.6875 500.0312499999999S301.6875 250.0312499999999 416.6875 250.0312499999999H418.78125C440.65625 250.0312499999999 458.375 267.7499999999999 458.375 289.6249999999999S440.65625 329.2187499999999 418.78125 329.2187499999999H416.6875C345.4375 329.2187499999999 245.84375 375.0624999999999 245.84375 500.0624999999998zM754.15625 500C754.15625 625 654.5624999999999 670.84375 583.3125 670.84375H581.21875C559.34375 670.84375 541.625 688.5625 541.625 710.4375S559.34375 750.0312499999999 581.21875 750.0312499999999H583.3125C698.3125 750.0312499999999 833.3125 666.6875 833.3125 500.0312499999999S698.3125 250.0312499999999 583.3125 250.0312499999999H581.21875C559.34375 250.0312499999999 541.625 267.7499999999999 541.625 289.6249999999999S559.34375 329.2187499999999 581.21875 329.2187499999999H583.3125C654.5625 329.2187499999999 754.15625 375.0624999999999 754.15625 500.0624999999998z" />
    <glyph glyph-name="icon-lock-close"
      unicode="&#xEA3A;"
      horiz-adv-x="875" d="M276.53125 897.5C320.1875 941.15625 379.4375 965.6875 441.1875 965.6875S562.15625 941.15625 605.84375 897.5C649.5 853.84375 674.03125 794.59375 674.03125 732.84375V593.125H720.5937499999999C757.6562499999999 593.125 793.1874999999999 578.40625 819.375 552.21875S860.28125 490.5000000000001 860.28125 453.4375V174.0312500000001C860.28125 136.9687500000001 845.5625 101.4375000000001 819.375 75.25S757.625 34.34375 720.5937499999999 34.34375H161.7812499999999C124.7187499999999 34.34375 89.1874999999999 49.0625 62.9999999999999 75.25S22.0937499999999 137 22.0937499999999 174.0312500000001V453.4375000000001C22.0937499999999 490.5000000000002 36.8124999999999 526.0312500000002 62.9999999999999 552.2187500000002S124.7187499999999 593.1250000000001 161.7812499999999 593.1250000000001H208.3437499999999V732.8437500000001C208.3437499999999 794.5937500000001 232.8749999999999 853.8125000000001 276.5312499999999 897.5000000000001zM301.46875 593.15625H580.875V732.875C580.875 769.9375 566.15625 805.46875 539.96875 831.65625S478.21875 872.5625 441.1875 872.5625C404.125 872.5625 368.59375 857.84375 342.40625 831.65625S301.5000000000001 769.90625 301.5000000000001 732.875V593.15625zM161.75 500.03125C149.40625 500.03125 137.5625 495.1250000000001 128.8125 486.4062499999999S115.1875 465.8125 115.1875 453.46875V174.0625C115.1875 161.71875 120.09375 149.875 128.8125 141.125S149.40625 127.46875 161.75 127.46875H720.5625C732.90625 127.46875 744.75 132.375 753.5 141.125S767.15625 161.6875000000001 767.15625 174.0625V453.4687500000001C767.15625 465.8125000000001 762.25 477.6562500000001 753.5 486.40625S732.9374999999999 500.0312500000001 720.5625 500.0312500000001H161.75zM441.1875 406.875C466.90625 406.875 487.75 386.0312499999999 487.75 360.3125V267.1875C487.75 241.46875 466.90625 220.6250000000001 441.1875 220.6250000000001S394.625 241.4687500000001 394.625 267.1875V360.3125C394.625 386.03125 415.46875 406.875 441.1875 406.875z" />
    <glyph glyph-name="icon-move"
      unicode="&#xEA3B;"
      horiz-adv-x="1000" d="M500 750H833.34375C879.1875 750 916.6875000000002 712.5 916.6875000000002 666.65625V250C916.6875000000002 204.15625 879.1875000000001 166.65625 833.34375 166.65625H166.6875000000001C120.8437500000001 166.65625 83.3437500000001 204.1562499999999 83.3437500000001 250V750C83.3437500000001 795.84375 120.8437500000001 833.34375 166.6875000000001 833.34375H416.6875000000001L500.0312500000002 750zM166.65625 750V250H833.3124999999999V666.65625H465.4062499999999L382.0625 750H166.6562499999999zM612.75 321.09375L720.5312500000001 428.8749999999999C736.8125000000001 445.1562499999999 736.8125000000001 471.5312499999999 720.5312500000001 487.8124999999999L612.7500000000001 595.5937499999999C596.5000000000001 611.8437499999998 570.1562500000001 611.8437499999998 553.9062500000001 595.5937499999999C537.6875000000002 579.3749999999999 537.6562500000001 553.0937499999999 553.8125000000001 536.8437499999998L590.4062500000001 499.9999999999999H291.6562500000001C268.6562500000001 499.9999999999999 250.0000000000001 481.3437499999999 250.0000000000001 458.3437499999999S268.6562500000001 416.6875 291.6562500000001 416.6875H590.4062500000001L553.8125000000001 379.84375C537.6562500000001 363.59375 537.6875000000001 337.3125 553.9062500000001 321.0937500000001C570.1562500000001 304.8437500000001 596.5000000000001 304.8437500000001 612.7500000000001 321.0937500000001z" />
    <glyph glyph-name="icon-permission"
      unicode="&#xEA3C;"
      horiz-adv-x="1000" d="M666.65625 625V541.65625C708.3124999999999 541.65625 750 500 750 458.3125V249.9687500000001C750 208.3125000000001 708.34375 166.625 666.65625 166.625H333.3125C291.65625 166.625 249.96875 208.28125 249.96875 249.9687500000001V458.3125000000001C249.96875 499.9687500000001 291.625 541.6562500000001 333.3125 541.6562500000001H583.3124999999999V625.0000000000001C583.3124999999999 750.0000000000001 569.1562499999999 750.0000000000001 499.9687499999999 750.0000000000001C439.5624999999999 750.0000000000001 421.09375 750.0000000000001 417.40625 666.6562500000001C416.375 643.6562500000001 397.9999999999999 625.0000000000001 374.9687499999999 625.0000000000001S333.1249999999999 643.6875000000001 333.5625 666.6875000000001C335.53125 768.1875000000001 352.59375 833.3125000000001 499.9687499999999 833.3125000000001C666.625 833.3125000000001 666.625 739.96875 666.625 624.96875zM333.34375 458.34375V250H666.6875V458.34375H333.34375zM500 416.65625C477 416.65625 458.34375 397.9999999999999 458.34375 375V333.34375C458.34375 310.34375 477 291.6875000000001 500 291.6875000000001S541.65625 310.3437500000001 541.65625 333.34375V375C541.65625 398 522.9999999999999 416.65625 499.9999999999999 416.65625z" />
    <glyph glyph-name="icon-plus"
      unicode="&#xEA3D;"
      horiz-adv-x="1000" d="M264.28125 740.5C134.65625 610.875 134.65625 398.71875 264.28125 269.0937499999999S606.0625 139.4687499999999 735.6875 269.0937499999999S865.3125 610.8749999999999 735.6875 740.5S393.9062500000001 870.1249999999999 264.28125 740.5zM676.78125 328C579.5625 230.7812499999999 420.46875 230.7812499999999 323.21875 328S226 584.3125 323.21875 681.5625S579.53125 778.78125 676.78125 681.5625S774 425.2499999999999 676.78125 328zM541.25 546.03125V658C541.25 681.5625 523.5625 699.25 500 699.25S458.75 681.5625 458.75 658V546.03125H346.78125C323.21875 546.03125 305.53125 528.34375 305.53125 504.78125S323.21875 463.5312500000001 346.78125 463.5312500000001H458.75V351.5625C458.75 328 476.4375 310.3125 500 310.3125S541.25 328 541.25 351.5625V463.53125H653.21875C676.78125 463.53125 694.46875 481.2187499999999 694.46875 504.7812499999999S676.78125 546.03125 653.21875 546.03125H541.25z" />
    <glyph glyph-name="icon-popup-info"
      unicode="&#xEA3E;"
      horiz-adv-x="1000" d="M583.34375 208.34375C583.34375 162.3125000000001 546.0312500000001 125 500 125S416.65625 162.3125 416.65625 208.34375C416.65625 254.375 453.9687500000001 291.6875000000001 500 291.6875000000001S583.34375 254.3750000000001 583.34375 208.34375zM500 875C454.15625 875 416.65625 837.5 416.65625 791.65625V458.3125C416.65625 412.46875 454.15625 374.9687500000001 500 374.9687500000001S583.34375 412.46875 583.34375 458.3125000000001V791.6562500000001C583.34375 837.5000000000001 545.8437500000001 875.0000000000001 500 875.0000000000001z" />
    <glyph glyph-name="icon-published"
      unicode="&#xEA3F;"
      horiz-adv-x="1000" d="M500 833.34375C316 833.34375 166.65625 684 166.65625 500S316 166.65625 500 166.65625C683.9999999999999 166.65625 833.34375 316 833.34375 500S684 833.34375 500 833.34375zM250 500C250 520.34375 250 541.65625 250 562.5L399.65625 400V366.65625C399.65625 330.0000000000001 429.65625 300 466.3125 300V253.0625000000001C354.15625 270.8125000000001 249.9687500000001 364.3125 249.9687500000001 500.0000000000001zM687.5 333.34375C678.84375 360.3437500000001 663 366.6875 633 366.6875H599.65625V466.6875C599.65625 485.03125 584.65625 500.0312500000001 566.3125 500.0312500000001H366.3125V566.6875H432.96875C451.3125 566.6875 466.3125 581.6875 466.3125 600.03125V666.6875H532.96875C569.625 666.6875 599.625 685 599.625 721.6875V726.5625C687.46875 687.53125 749.96875 611.6875 749.96875 500.0312500000001C749.96875 430.6875 729.1249999999999 395.875 687.46875 333.375z" />
    <glyph glyph-name="icon-reset"
      unicode="&#xEA40;"
      horiz-adv-x="1000" d="M333.34375 566.65625C351.75 566.65625 366.6875 581.59375 366.6875 600S351.75 633.34375 333.34375 633.34375H269.6875C315.6875 713 401.6875 766.6875 500.0312499999999 766.6875C614.6874999999999 766.6875 712.53125 693.71875 750.09375 592.0625C755.53125 577.375 768.96875 566.6875 784.625 566.6875C806.34375 566.6875 822.6875 586.6875 815.6875 607.28125C770.96875 738.65625 646.65625 833.375 500.0312499999999 833.375C391.03125 833.375 294.03125 780.71875 233.375 699.71875V733.375C233.375 751.78125 218.4375 766.71875 200.03125 766.71875S166.6875 751.78125 166.6875 733.375V608.375C166.6875 585.375 185.3437499999999 566.71875 208.34375 566.71875H333.34375zM666.65625 433.34375C648.25 433.34375 633.3125 418.40625 633.3125 400S648.25 366.65625 666.65625 366.65625H730.3124999999999C684.3124999999999 287 598.3124999999999 233.3125 499.9687499999999 233.3125C385.3124999999999 233.3125 287.46875 306.2812500000001 249.9062499999999 407.9375000000001C244.4687499999999 422.625 231.0312499999999 433.3125000000001 215.3749999999999 433.3125000000001C193.6562499999999 433.3125000000001 177.3124999999999 413.3125000000001 184.3124999999999 392.7187500000001C229.0312499999999 261.3437500000001 353.3437499999999 166.6250000000001 499.9687499999999 166.6250000000001C608.96875 166.6250000000001 705.9687499999999 219.2812500000001 766.6249999999999 300.2812500000001V266.6250000000001C766.6249999999999 248.2187500000001 781.5624999999999 233.2812500000001 799.9687499999999 233.2812500000001S833.3124999999999 248.2187500000001 833.3124999999999 266.6250000000001V391.6250000000001C833.3124999999999 414.6250000000001 814.6562499999999 433.2812500000001 791.65625 433.2812500000001H666.65625z" />
    <glyph glyph-name="icon-search"
      unicode="&#xEA41;"
      horiz-adv-x="1000" d="M651.65625 426.65625L960.5312500000002 117.78125C982.1875000000002 96.1249999999999 982.1875000000002 61.125 960.5312500000002 39.4374999999999S903.8750000000002 17.7812499999999 882.1875 39.4374999999999L573.3125 348.3124999999999C487.1875 285.5312499999999 374.4375 257.7499999999999 254.4375 293.8749999999999C130.5625 331.0937499999999 33.3125 436.09375 7.78125 563.3124999999999C-44.4375 821.0937499999999 178.34375 1044.4375 436.65625 992.1874999999998C563.3125 966.6249999999998 668.3125 869.4062499999999 706.09375 745.5312499999999C742.2187499999999 625.5312499999999 714.4375 512.7499999999999 651.6562499999999 426.6562499999999zM361.09375 888.875C222.75 888.875 111.09375 777.21875 111.09375 638.875S222.75 388.875 361.09375 388.875C499.4375 388.875 611.09375 500.53125 611.09375 638.875S499.4375 888.875 361.09375 888.875z" />
    <glyph glyph-name="icon-selected"
      unicode="&#xEA42;"
      horiz-adv-x="1000" d="M208.34375 875H791.6875000000001C837.5312500000001 875 875.0312500000001 837.5 875.0312500000001 791.65625V208.3124999999999C875.0312500000001 162.4687499999999 837.5312500000002 124.9687499999999 791.6875000000001 124.9687499999999H208.3437500000001C162.5 124.9687499999999 125.0000000000001 162.4687499999998 125.0000000000001 208.3124999999999V791.65625C125.0000000000001 837.5 162.5000000000001 875 208.3437500000001 875zM387.5 321.25C403.75 305 430 305 446.2500000000001 321.25L762.09375 637.5C778.34375 653.75 778.34375 680 762.09375 696.25S719.59375 712.5 703.34375 696.25L416.6875000000001 409.59375L296.6875000000001 529.59375C280.4375000000001 545.84375 254.1875000000001 545.84375 237.9375000000001 529.59375S221.6875 487.09375 237.9375000000001 470.84375L387.5312500000001 321.25z" />
    <glyph glyph-name="icon-share"
      unicode="&#xEA43;"
      horiz-adv-x="1000" d="M791.65625 541.65625C768.6562499999999 541.65625 750 523 750 500V250H250V500C250 523 231.3437500000001 541.65625 208.34375 541.65625S166.6875 523 166.6875 500V250C166.6875 204.15625 204.1875 166.65625 250.03125 166.65625H750.0312499999999C795.8749999999999 166.65625 833.375 204.1562499999999 833.375 250V500C833.375 523 814.7187499999999 541.65625 791.71875 541.65625zM321.0625 654.40625C304.8125 638.15625 304.8125 611.84375 321.0625 595.59375S363.5625 579.34375 379.8125 595.53125L458.3125 673.75V375C458.3125 352 476.96875 333.34375 499.96875 333.34375S541.625 352.0000000000001 541.625 375V673.75L620.125 595.53125C636.375 579.34375 662.6562500000001 579.375 678.875 595.59375S695.125 638.15625 678.875 654.40625L529.40625 803.875C513.1249999999999 820.15625 486.7499999999999 820.15625 470.46875 803.875L321 654.40625z" />
    <glyph glyph-name="icon-square"
      unicode="&#xEA44;"
      horiz-adv-x="1000" d="M750 166.65625H250C204.15625 166.65625 166.65625 204.1562499999999 166.65625 250V750C166.65625 795.84375 204.15625 833.34375 250 833.34375H750C795.84375 833.34375 833.34375 795.84375 833.34375 750V250C833.34375 204.15625 795.8437500000001 166.65625 750 166.65625zM250 750V750V250H750V750H250z" />
    <glyph glyph-name="icon-storyline"
      unicode="&#xEA45;"
      horiz-adv-x="1125" d="M268.875 966.65625V933.3125H335.53125V999.96875H268.875V966.625zM535.5625 966.65625V933.3125H468.9062500000001V866.65625H535.5625V800H602.21875V866.65625H668.875V933.3125H602.21875V999.96875H535.5625V966.625zM802.21875 966.65625V933.3125H868.875V999.96875H802.21875V966.625zM135.5625 833.34375V800H68.90625V733.34375H135.5625V666.6875H202.21875V733.34375H268.875V800H202.21875V866.65625H135.5625V833.3125zM935.5625 833.34375V800H868.90625V733.34375H935.5625V666.6875H1002.2187499999998V733.34375H1068.875V800H1002.2187499999998V866.65625H935.5625V833.3125zM523.59375 730.90625C376.0625 715.34375 244.28125 622.96875 179.96875 490C166.5 462.15625 158.1875 440.53125 151.09375 415.03125L146.90625 399.9062499999999L216.03125 401.125L223.375 421.75C242.34375 474.9375 269.5 518.125 308.875 557.75C419.6875 669.375 586.2499999999999 698.09375 727.7812499999999 629.96875C814.75 588.09375 881.9999999999999 513.1875 914.2499999999998 422.21875L921.7187499999998 401.09375L990.8437499999998 399.875L986.6562499999998 415C930.28125 618.46875 733.0937499999999 752.96875 523.5937499999999 730.875zM523.34375 596.625C481.46875 589.8125 436.5625 572.0625 400 547.8125C377.9375000000001 533.1875 335.09375 490.1562500000001 320.3437500000001 467.78125C309.15625 450.84375 290.9375 415.6562500000001 287.8437500000001 405L286.3750000000001 400H357.0000000000001L370.15625 421.5C396.21875 464.0625 439.46875 500.125 485.0625 517.25C516.90625 529.21875 532.625 531.96875 568.875 531.96875S620.84375 529.21875 652.6875 517.25C698.28125 500.125 741.53125 464.0625 767.59375 421.5L780.75 400H851.375L849.84375 405C846.46875 416.1875 828.40625 451.0937500000001 817.40625 467.78125C802.0625 491 759.4375 533.65625 736.625 548.625C702.8125 570.8125 664.53125 586.78125 626.5 594.53125C602.25 599.5 547.75 600.59375 523.3125 596.59375zM535.625 463.1875C503.4375 456.21875 473.125 439.5312499999999 450.59375 416.40625C443.5625 409.21875 436.25 401.0625 434.34375 398.3125C430.375 392.59375 430.4062500000001 392.59375 447.2500000000001 388.9374999999999C453.0625000000001 387.6875 467.3125 383.59375 478.9375 379.875L500.0624999999999 373.1249999999999L507.28125 378.5312499999999C542.8437500000001 405.2187499999999 588.3125 406.5624999999998 625.3125 381.9687499999999L638.3437500000001 373.3124999999998L662.0000000000001 380.8124999999998C675.0000000000001 384.9374999999998 689.9062500000001 389.0312499999998 695.0625000000001 389.9062499999998S705.0312500000001 392.3749999999998 705.6875000000001 393.4687499999998S699.1875000000002 403.4999999999999 689.7812500000001 413.3437499999998C672.1562500000001 431.7812499999998 649.7187500000001 447.4687499999998 629.8125000000001 455.2499999999998C601.8125000000001 466.2187499999998 564.2187500000001 469.3749999999999 535.6875000000001 463.1874999999999zM0 233.40625V133.46875L190.5625 132.84375C380.8437500000001 132.21875 381.125 132.21875 395.5625 127.28125C417.125 119.90625 437.03125 107.34375 453.71875 90.59375C466.65625 77.59375 471.09375 70.71875 487.71875 37.8125L506.8125 0H631L650.125 37.875C666.96875 71.1875 671.0625 77.5625 684.28125 90.65625C701.625 107.84375 717.375 117.875 740.375 126.25L756.6875 132.2187499999999L1137.8125 133.4687499999999V333.3124999999999L950.5937499999998 333.2812499999999C800.5937499999999 333.2499999999998 758.59375 332.5937499999999 739.3749999999999 330.0312499999999C684.6249999999999 322.7499999999999 635.1874999999999 303.5937499999999 589.4687499999999 271.9687499999999L568.8749999999999 257.7187499999999L551.6874999999999 269.7812499999999C516.125 294.6874999999999 483.1562499999999 310.4062499999999 444.0625 320.9999999999999C400.875 332.7187499999999 390.15625 333.2499999999998 187.2812499999999 333.2812499999999L0.0624999999999 333.3124999999999V233.3749999999999z" />
    <glyph glyph-name="icon-subscribe"
      unicode="&#xEA46;"
      horiz-adv-x="1000" d="M333.34375 750.90625H249.3125V249.53125H375.21875C398.09375 249.53125 416.65625 230.96875 416.65625 208.09375S398.09375 166.65625 375.21875 166.65625H234.46875C197.15625 166.65625 166.65625 200.21875 166.65625 241.25V767.5C166.65625 808.53125 197.1875 833.8125 234.46875 833.8125H373.28125C373.28125 875.25 448.3125 916.6875 500 916.6875S625 875.25 625 833.8125L765.53125 833.8125C802.8125 833.8125 833.34375 808.53125 833.34375 767.5V543.65625C833.34375 520.84375 814.8437500000001 502.34375 792.0312500000001 502.34375S750.7187500000001 520.84375 750.7187500000001 543.65625V750.9375H666.6875000000001V709.75C666.6875000000001 686.75 648.0312500000001 668.09375 625.0312500000001 668.09375L375.0312500000002 668.09375C352.0312500000001 668.09375 333.3750000000002 686.75 333.3750000000002 709.75V750.96875zM500 750.9375C523 750.9375 541.65625 769.5 541.65625 792.375S522.9999999999999 833.8125 499.9999999999999 833.8125C476.9999999999999 833.8125 458.3437499999999 815.25 458.3437499999999 792.375S476.9999999999999 750.9375 499.9999999999999 750.9375zM796.75 302.71875L822.65625 328.625C836.8749999999999 342.84375 836.8749999999999 365.84375 822.65625 380.09375L796.75 406C782.53125 420.21875 759.53125 420.21875 745.28125 406L719.375 380.09375L796.75 302.71875zM770.84375 276.78125L693.4687500000001 354.15625L502.1250000000001 156.3125L501.2500000000001 126.1875C500.5625000000001 102.71875 519.4062500000001 83.3125 542.90625 83.3125H577.40625L770.84375 276.75zM375 583.34375C352 583.34375 333.34375 564.6875 333.34375 541.6875S352 500.03125 375 500.03125H625C648 500.03125 666.65625 518.6875 666.65625 541.6875S647.9999999999999 583.34375 625 583.34375H375z" />
    <glyph glyph-name="icon-subscription"
      unicode="&#xEA47;"
      horiz-adv-x="1000" d="M437.65625 511.78125L165.84375 666.65625L165.84375 333.3125000000001H416.65625C439.65625 333.3125000000001 458.3125 314.6562500000001 458.3125 291.6562500000003S439.65625 250.0000000000003 416.65625 250.0000000000003H165.84375C120 250.0000000000003 82.5 287.5000000000003 82.5 333.3437500000003L82.90625 750.0000000000002C82.90625 795.8437500000002 120 833.3437500000002 165.8125 833.3437500000002H749.5625C795.40625 833.3437500000002 832.90625 795.8437500000002 832.90625 750.0000000000002V583.3437500000002C832.90625 560.3437500000002 814.2499999999999 541.6875000000002 791.25 541.6875000000002S749.5937500000001 560.3437500000002 749.5937500000001 583.3437500000002V666.6875000000002L479.0000000000001 511.8437500000003C466.1875000000001 504.5312500000003 450.5 504.5000000000003 437.6875 511.8125000000003zM458.34375 583.34375L749.5937500000001 750H165.8437500000001L458.3437500000001 583.34375zM948.6875 431.65625C963.40625 449.3437499999999 961.03125 475.625 943.34375 490.3437499999999S899.375 502.6874999999999 884.65625 485L705.53125 270.0625L612.78125 362.8125C596.5 379.09375 570.1250000000001 379.09375 553.8437500000001 362.8125S537.5625 320.15625 553.8437500000001 303.875L678.8437500000001 178.875C687.1250000000001 170.59375 698.5000000000001 166.1875 710.1875000000001 166.71875S732.8125000000001 172.6875 740.3125 181.6562500000001L948.65625 431.6562500000001z" />
    <glyph glyph-name="icon-success"
      unicode="&#xEA48;"
      horiz-adv-x="968.75" d="M487.8125 897.5625C263.40625 897.5625 80.5 714.625 80.5 490.2499999999999S263.4375 82.9374999999999 487.8125 82.9374999999999S895.125 265.8749999999999 895.125 490.2499999999998S712.1875 897.5624999999999 487.8124999999999 897.5624999999999zM487.8125 165.84375C307.3125 165.84375 163.4375 312.1875 163.4375 490.2499999999999S307.34375 814.625 487.8125 814.625S812.1875000000001 668.28125 812.1875000000001 490.2499999999999S665.8437500000001 165.875 487.8125000000001 165.875zM407.3125 402.4375L646.34375 641.46875C663.40625 656.09375 687.8124999999999 656.09375 704.875 641.46875C719.5 624.40625 719.5 600 704.875 585.375L436.59375 317.09375C419.53125 302.46875 395.125 302.46875 378.0625 317.09375L273.1875 421.96875C258.5625 436.59375 258.5625 463.4375 273.1875 480.5C290.25 495.1250000000001 314.65625 495.1250000000001 331.71875 480.5L407.3125 402.4375z" />
    </font>
</defs>
</svg>
