<svg xmlns="http://www.w3.org/2000/svg" xmlns:xlink="http://www.w3.org/1999/xlink" width="0" height="0" style="display:none;"><symbol id="hi-angle-down"></symbol><symbol id="hi-angle-dropdown"></symbol><symbol id="hi-angle-left"></symbol><symbol viewBox="0 0 32 32" id="hi-angle-right">
<path d="M9.841 28.013c0.653 0.653 1.707 0.653 2.36 0l11.080-11.080c0.52-0.52 0.52-1.36 0-1.88l-11.080-11.080c-0.653-0.653-1.707-0.653-2.36 0s-0.653 1.707 0 2.36l9.653 9.667-9.667 9.667c-0.64 0.64-0.64 1.707 0.013 2.347z"></path>
</symbol><symbol viewBox="0 0 24 24" id="hi-angle-up">
    <path d="M21.01 16.62C21.5 16.13 21.5 15.34 21.01 14.85L12.7 6.54001C12.31 6.15001 11.68 6.15001 11.29 6.54001L2.98 14.85C2.49 15.34 2.49 16.13 2.98 16.62C3.47 17.11 4.26 17.11 4.75 16.62L12 9.38001L19.25 16.63C19.73 17.11 20.53 17.11 21.01 16.62Z"></path>
</symbol><symbol id="hi-arrow-down"></symbol><symbol id="hi-arrow-left"></symbol><symbol id="hi-arrow-right"></symbol><symbol id="hi-arrow-up-down"></symbol><symbol id="hi-arrow-up"></symbol><symbol id="hi-bell"></symbol><symbol id="hi-calendar"></symbol><symbol id="hi-cancel"></symbol><symbol id="hi-close"></symbol><symbol id="hi-delete"></symbol><symbol id="hi-diagram"></symbol><symbol id="hi-dots-horizontal"></symbol><symbol id="hi-dots-vertical"></symbol><symbol id="hi-download-file"></symbol><symbol id="hi-download"></symbol><symbol id="hi-edit"></symbol><symbol id="hi-envelope-o"></symbol><symbol id="hi-envelope-o1"></symbol><symbol id="hi-estimate"></symbol><symbol id="hi-exclamation"></symbol><symbol id="hi-feedback"></symbol><symbol id="hi-file"></symbol><symbol id="hi-github"></symbol><symbol id="hi-hide"></symbol><symbol id="hi-icon-3d-vista"></symbol><symbol id="hi-icon-arrow-close"></symbol><symbol id="hi-icon-arrow-small"></symbol><symbol id="hi-icon-arrow"></symbol><symbol id="hi-icon-audit-log"></symbol><symbol id="hi-icon-backup"></symbol><symbol id="hi-icon-calender"></symbol><symbol id="hi-icon-checkmark"></symbol><symbol id="hi-icon-copy"></symbol><symbol id="hi-icon-crossmark"></symbol><symbol id="hi-icon-custom-html-abe"></symbol><symbol id="hi-icon-custom-html-statista"></symbol><symbol id="hi-icon-double-arrows"></symbol><symbol id="hi-icon-download"></symbol><symbol id="hi-icon-edit"></symbol><symbol id="hi-icon-excel"></symbol><symbol viewBox="0 0 16 16" id="hi-icon-export-v2">
<path d="M14 14.5H2H1.5V14V11.5H0.5V14C0.5 14.8239 1.17614 15.5 2 15.5H14C14.8239 15.5 15.5 14.8239 15.5 14V11.5H14.5V14V14.5H14ZM8.5 3.83V2.62619L9.35287 3.47576L11.5893 5.70358L12.2929 5L8 0.707107L3.70711 5L4.41068 5.70358L6.64713 3.47576L7.5 2.62619V3.83V11.5H8.5V3.83Z" stroke="#0000C9" stroke-opacity="0.788235"></path>
</symbol><symbol id="hi-icon-export"></symbol><symbol id="hi-icon-file"></symbol><symbol id="hi-icon-filter"></symbol><symbol id="hi-icon-filter1"></symbol><symbol id="hi-icon-folder"></symbol><symbol id="hi-icon-h5p"></symbol><symbol id="hi-icon-help"></symbol><symbol id="hi-icon-history"></symbol><symbol id="hi-icon-info-inverted"></symbol><symbol id="hi-icon-info"></symbol><symbol id="hi-icon-interactive"></symbol><symbol id="hi-icon-link"></symbol><symbol id="hi-icon-lock-close"></symbol><symbol id="hi-icon-move"></symbol><symbol id="hi-icon-permission"></symbol><symbol viewBox="0 0 24 24" id="hi-icon-plus-v2">
<path d="M18 13H13V18C13 18.55 12.55 19 12 19C11.45 19 11 18.55 11 18V13H6C5.45 13 5 12.55 5 12C5 11.45 5.45 11 6 11H11V6C11 5.45 11.45 5 12 5C12.55 5 13 5.45 13 6V11H18C18.55 11 19 11.45 19 12C19 12.55 18.55 13 18 13Z" fill="black"></path>
</symbol><symbol id="hi-icon-plus"></symbol><symbol id="hi-icon-popup-info"></symbol><symbol id="hi-icon-published"></symbol><symbol id="hi-icon-reset"></symbol><symbol id="hi-icon-search"></symbol><symbol id="hi-icon-selected"></symbol><symbol id="hi-icon-share"></symbol><symbol id="hi-icon-square"></symbol><symbol id="hi-icon-storyline"></symbol><symbol id="hi-icon-subscribe"></symbol><symbol id="hi-icon-subscription"></symbol><symbol id="hi-icon-success"></symbol><symbol id="hi-icon-tools"></symbol><symbol id="hi-icon-tooltip"></symbol><symbol id="hi-icon-trash"></symbol><symbol id="hi-icon-un-subscribe"></symbol><symbol id="hi-icon-unpublish"></symbol><symbol id="hi-icon-upload"></symbol><symbol id="hi-icon-user-edit"></symbol><symbol id="hi-icon-user-management"></symbol><symbol id="hi-icon-user"></symbol><symbol id="hi-info"></symbol><symbol id="hi-magnifier"></symbol><symbol id="hi-person"></symbol><symbol id="hi-pfizer"></symbol><symbol id="hi-plus-fill"></symbol><symbol id="hi-reset"></symbol><symbol id="hi-round-check"></symbol><symbol viewBox="0 0 22 28" id="hi-screen-1024">
<path d="M19.1053 0H2.89474C1.29684 0 0 1.29684 0 2.89474V24.8947C0 26.4926 1.29684 27.7895 2.89474 27.7895H19.1053C20.7032 27.7895 22 26.4926 22 24.8947V2.89474C22 1.29684 20.7032 0 19.1053 0ZM11 26.6316C10.0389 26.6316 9.26316 25.8558 9.26316 24.8947C9.26316 23.9337 10.0389 23.1579 11 23.1579C11.9611 23.1579 12.7368 23.9337 12.7368 24.8947C12.7368 25.8558 11.9611 26.6316 11 26.6316ZM19.6842 22H2.31579V3.47368H19.6842V22Z" fill="#00A18C"></path>
</symbol><symbol viewBox="0 0 26 24" id="hi-screen-1400">
<path d="M23.6364 0H2.36364C1.06364 0 0 1.06364 0 2.36364V16.5455C0 17.8455 1.06364 18.9091 2.36364 18.9091H10.6364L8.27273 22.4545V23.6364H17.7273V22.4545L15.3636 18.9091H23.6364C24.9364 18.9091 26 17.8455 26 16.5455V2.36364C26 1.06364 24.9364 0 23.6364 0ZM23.6364 14.1818H2.36364V2.36364H23.6364V14.1818Z" fill="#00A18C"></path>
</symbol><symbol viewBox="0 0 12 19" id="hi-screen-320">
<path d="M9.06818 0H2.15909C0.967273 0 0 0.967273 0 2.15909V16.8409C0 18.0327 0.967273 19 2.15909 19H9.06818C10.26 19 11.2273 18.0327 11.2273 16.8409V2.15909C11.2273 0.967273 10.26 0 9.06818 0ZM5.61364 18.1364C4.89682 18.1364 4.31818 17.5577 4.31818 16.8409C4.31818 16.1241 4.89682 15.5455 5.61364 15.5455C6.33045 15.5455 6.90909 16.1241 6.90909 16.8409C6.90909 17.5577 6.33045 18.1364 5.61364 18.1364ZM9.5 14.6818H1.72727V2.59091H9.5V14.6818Z" fill="#00A18C"></path>
</symbol><symbol viewBox="0 0 19 12" id="hi-screen-640">
<path d="M-3.96383e-07 2.15936L-9.43769e-08 9.06845C-4.22808e-08 10.2603 0.967273 11.2275 2.15909 11.2275L16.8409 11.2275C18.0327 11.2275 19 10.2603 19 9.06845L19 2.15936C19 0.967538 18.0327 0.000265287 16.8409 0.000265339L2.15909 0.000265981C0.967272 0.000266033 -4.48479e-07 0.967539 -3.96383e-07 2.15936ZM18.1364 5.6139C18.1364 6.33072 17.5577 6.90936 16.8409 6.90936C16.1241 6.90936 15.5455 6.33072 15.5455 5.6139C15.5455 4.89708 16.1241 4.31845 16.8409 4.31845C17.5577 4.31845 18.1364 4.89708 18.1364 5.6139ZM14.6818 1.72754L14.6818 9.50027L2.59091 9.50027L2.59091 1.72754L14.6818 1.72754Z" fill="#00A18C"></path>
</symbol><symbol viewBox="0 0 28 23" id="hi-screen-768">
<path d="M0.10527 3.78948L0.10527 20C0.10527 21.5979 1.40211 22.8947 3.00001 22.8947L25 22.8947C26.5979 22.8947 27.8947 21.5979 27.8947 20L27.8947 3.78948C27.8947 2.19159 26.5979 0.894744 25 0.894744L3.00001 0.894745C1.40211 0.894745 0.105269 2.19159 0.10527 3.78948ZM26.7368 11.8947C26.7368 12.8558 25.9611 13.6316 25 13.6316C24.039 13.6316 23.2632 12.8558 23.2632 11.8947C23.2632 10.9337 24.039 10.1579 25 10.1579C25.9611 10.1579 26.7368 10.9337 26.7368 11.8947ZM22.1053 3.21053L22.1053 20.579L3.57895 20.579L3.57895 3.21053L22.1053 3.21053Z" fill="#00A18C"></path>
</symbol><symbol viewBox="0 0 24 24" id="hi-sign-out">
<path d="M8.50215 11.4995C9.05562 11.4995 9.5043 11.9482 9.5043 12.5017C9.5043 13.0552 9.05562 13.5038 8.50215 13.5038C7.94868 13.5038 7.5 13.0552 7.5 12.5017C7.5 11.9482 7.94868 11.4995 8.50215 11.4995ZM12 4.3537V10.4995L12.0005 11.0045L19.442 11.0035L17.7196 9.27977C17.4534 9.01346 17.4292 8.59679 17.6471 8.30321L17.7198 8.21911C17.9861 7.95289 18.4027 7.92875 18.6963 8.14666L18.7804 8.21929L21.777 11.2169C22.043 11.483 22.0674 11.8992 21.85 12.1928L21.7775 12.2769L18.7809 15.2803C18.4884 15.5736 18.0135 15.5741 17.7203 15.2816C17.4537 15.0156 17.429 14.599 17.6465 14.3051L17.7191 14.2209L19.432 12.5035L12.0005 12.5045L12 19.2495C12 19.7159 11.5788 20.0692 11.1196 19.9881L2.61955 18.4868C2.26121 18.4235 2 18.1121 2 17.7482V5.74953C2 5.38222 2.26601 5.06896 2.62847 5.00944L11.1285 3.61361C11.5851 3.53863 12 3.89097 12 4.3537ZM10.5 5.2369L3.5 6.38641V17.1191L10.5 18.3555V5.2369ZM13 18.5008L13.7652 18.501L13.867 18.4941C14.2335 18.4443 14.5158 18.1299 14.5152 17.7497L14.508 13.4995H13V18.5008ZM13.002 9.99953L13 8.72487V4.99952L13.7453 4.99953C14.1245 4.99953 14.4381 5.28105 14.4883 5.64664L14.4953 5.74829L14.502 9.99953H13.002Z" fill="#212121"></path>
</symbol><symbol id="hi-square-menu-fill"></symbol><symbol id="hi-square-menu"></symbol><symbol viewBox="0 0 16 16" id="hi-star-outlined">
<g clip-path="url(#clip0_563_8159)">
<path d="M16 5.792L11.64 9.576L12.944 15.2L8 12.216L3.056 15.2L4.368 9.576L0 5.792L5.752 5.304L8 0L10.248 5.296L16 5.792zM8 10.72L11.016 12.544L10.216 9.12L12.872 6.816L9.368 6.512L8 3.28L6.64 6.504L3.136 6.808L5.792 9.112L4.992 12.536L8 10.72z" fill="#6F6F6F"></path>
</g>
</symbol><symbol id="hi-star"></symbol><symbol id="hi-text-file"></symbol><symbol id="hi-thumb"></symbol><symbol id="hi-unfold-more"></symbol><symbol id="hi-upload-cloud"></symbol><symbol viewBox="0 0 24 24" id="hi-view-outlined">
<path d="M12 7.6C15.1009 7.6 17.8664 9.304 19.2164 12C17.8664 14.696 15.1009 16.4 12 16.4C8.89909 16.4 6.13364 14.696 4.78364 12C6.13364 9.304 8.89909 7.6 12 7.6ZM12 6C7.90909 6 4.41545 8.488 3 12C4.41545 15.512 7.90909 18 12 18C16.0909 18 19.5845 15.512 21 12C19.5845 8.488 16.0909 6 12 6ZM12 10C13.1291 10 14.0455 10.896 14.0455 12C14.0455 13.104 13.1291 14 12 14C10.8709 14 9.95455 13.104 9.95455 12C9.95455 10.896 10.8709 10 12 10ZM12 8.4C9.97091 8.4 8.31818 10.016 8.31818 12C8.31818 13.984 9.97091 15.6 12 15.6C14.0291 15.6 15.6818 13.984 15.6818 12C15.6818 10.016 14.0291 8.4 12 8.4Z" fill="#0000C9" fill-opacity="0.788235"></path>
</symbol><symbol id="hi-view"></symbol></svg>